{"glyphs":{"0":{"ha":757,"x_min":99,"x_max":686,"o":"m 460 938 q 255 840 336 938 q 136 597 174 742 q 99 308 99 451 q 157 67 99 150 q 326 -15 215 -15 q 530 83 449 -15 q 649 326 611 181 q 686 615 686 471 q 628 856 686 775 q 460 938 571 938 m 458 883 q 621 625 621 883 q 590 353 621 488 q 492 129 558 218 q 328 40 425 40 q 164 300 164 40 q 196 570 164 436 q 294 794 228 704 q 458 883 361 883 z "},"1":{"ha":561,"x_min":118,"x_max":467,"o":"m 467 922 l 338 0 l 274 0 l 393 844 l 142 700 l 118 753 l 413 922 l 467 922 z "},"2":{"ha":654,"x_min":10,"x_max":608,"o":"m 382 938 q 548 880 488 938 q 608 725 608 822 q 569 568 608 644 q 424 376 531 492 q 97 57 317 261 l 538 58 l 519 0 l 10 0 l 17 58 q 360 394 250 276 q 506 581 469 513 q 542 724 542 650 q 498 840 542 799 q 378 882 454 882 q 259 855 311 882 q 154 774 207 828 l 111 813 q 238 908 174 878 q 382 938 303 938 z "},"3":{"ha":667,"x_min":-6,"x_max":601,"o":"m 383 938 q 544 881 486 938 q 601 733 601 825 q 578 627 601 679 q 505 538 554 575 q 383 490 456 501 q 514 435 464 488 q 564 290 564 383 q 529 149 564 219 q 422 32 494 79 q 240 -15 349 -15 q 99 15 160 -15 q -6 106 39 46 l 40 140 q 128 64 81 86 q 240 42 176 42 q 388 81 331 42 q 472 178 446 119 q 497 296 497 236 q 310 461 497 461 l 250 461 l 265 514 l 310 514 q 433 545 382 514 q 510 627 485 576 q 536 733 536 678 q 494 844 536 804 q 379 885 451 885 q 265 863 318 885 q 153 792 213 840 l 121 835 q 246 913 183 888 q 383 938 308 938 z "},"4":{"ha":711,"x_min":49,"x_max":651,"o":"m 651 303 l 643 247 l 517 247 l 482 0 l 419 0 l 454 247 l 49 247 l 57 297 l 425 938 l 479 915 l 126 303 l 463 303 l 508 581 l 564 581 l 525 303 l 651 303 z "},"5":{"ha":667,"x_min":14,"x_max":643,"o":"m 625 867 l 247 867 l 200 536 q 364 582 278 582 q 529 517 469 582 q 589 339 589 451 q 554 178 589 260 q 445 40 519 96 q 257 -15 371 -15 q 118 13 176 -15 q 14 96 60 42 l 58 133 q 144 64 97 86 q 258 42 192 42 q 410 89 350 42 q 497 206 469 136 q 524 340 524 275 q 477 480 524 431 q 353 529 431 529 q 267 518 304 529 q 182 481 231 507 l 131 481 l 192 922 l 643 922 l 625 867 z "},"6":{"ha":721,"x_min":94,"x_max":661,"o":"m 433 599 q 585 539 526 599 q 644 368 644 479 q 611 194 644 283 q 508 45 578 106 q 335 -15 438 -15 q 152 66 210 -15 q 94 289 94 147 q 142 596 94 446 q 283 842 190 746 q 500 938 375 938 q 588 924 550 938 q 661 883 625 910 l 626 839 q 499 883 569 883 q 294 765 381 883 q 172 456 207 647 q 433 599 281 599 m 335 40 q 475 94 419 40 q 555 224 531 149 q 579 367 579 300 q 538 500 579 456 q 425 544 496 544 q 284 500 350 544 q 163 376 218 456 q 158 282 158 325 q 335 40 158 40 z "},"7":{"ha":601,"x_min":71,"x_max":628,"o":"m 628 922 l 621 871 l 131 -10 l 71 11 l 550 867 l 115 867 l 122 922 l 628 922 z "},"8":{"ha":739,"x_min":57,"x_max":672,"o":"m 469 486 q 603 395 560 446 q 646 271 646 344 q 604 121 646 186 q 488 20 563 56 q 318 -15 414 -15 q 127 47 197 -15 q 57 211 57 110 q 114 378 57 303 q 301 499 171 453 q 199 578 233 532 q 165 690 165 625 q 203 820 165 764 q 306 907 242 876 q 446 938 371 938 q 606 885 540 938 q 672 739 672 832 q 624 594 672 651 q 469 486 576 536 m 228 692 q 261 594 228 633 q 374 525 294 556 l 421 507 q 566 611 522 557 q 610 739 610 665 q 565 847 610 808 q 444 885 519 885 q 290 831 351 885 q 228 692 228 776 m 319 40 q 507 102 433 40 q 581 274 581 164 q 539 378 581 338 q 403 457 497 419 l 356 476 q 173 362 222 429 q 124 211 124 294 q 176 86 124 132 q 319 40 229 40 z "},"9":{"ha":714,"x_min":106,"x_max":660,"o":"m 422 938 q 601 865 542 938 q 660 661 660 792 q 542 235 660 415 q 118 -26 425 54 l 106 25 q 423 192 307 88 q 578 482 539 297 q 463 383 526 418 q 326 347 399 347 q 171 415 231 347 q 111 593 111 482 q 144 753 111 674 q 248 885 178 833 q 422 938 318 938 m 336 403 q 469 442 407 403 q 589 556 531 481 q 594 660 594 610 q 553 827 594 771 q 421 883 511 883 q 278 837 333 883 q 200 723 224 790 q 176 590 176 656 q 219 453 176 503 q 336 403 261 403 z "},"\r":{"ha":392,"x_min":0,"x_max":0,"o":""}," ":{"ha":392,"x_min":0,"x_max":0,"o":""},"A":{"ha":778,"x_min":-24,"x_max":699,"o":"m 631 0 l 581 267 l 169 267 l 44 0 l -24 0 l 431 950 l 513 950 l 699 0 l 631 0 m 197 325 l 569 325 l 464 896 l 197 325 z "},"Á":{"ha":778,"x_min":-24,"x_max":699,"o":"m 631 0 l 581 267 l 169 267 l 44 0 l -24 0 l 431 950 l 513 950 l 699 0 l 631 0 m 197 325 l 569 325 l 464 896 l 197 325 m 607 1219 l 629 1158 l 350 1054 l 335 1093 l 607 1219 z "},"Ă":{"ha":778,"x_min":-24,"x_max":699,"o":"m 631 0 l 581 267 l 169 267 l 44 0 l -24 0 l 431 950 l 513 950 l 699 0 l 631 0 m 197 325 l 569 325 l 464 896 l 197 325 m 486 1065 q 376 1103 419 1065 q 331 1196 333 1140 l 375 1201 q 411 1142 382 1164 q 486 1121 440 1121 q 572 1144 535 1121 q 626 1206 608 1167 l 671 1192 q 603 1101 654 1136 q 486 1065 551 1065 z "},"Ắ":{"ha":778,"x_min":-24,"x_max":699,"o":"m 671 1331 l 490 1169 l 461 1199 l 629 1375 l 671 1331 m 488 1025 q 378 1063 421 1025 q 332 1156 335 1100 l 376 1161 q 413 1102 383 1124 q 488 1081 442 1081 q 573 1103 536 1081 q 628 1165 610 1126 l 672 1151 q 604 1060 656 1096 q 488 1025 553 1025 m 631 0 l 581 267 l 169 267 l 44 0 l -24 0 l 431 950 l 513 950 l 699 0 l 631 0 m 197 325 l 569 325 l 464 896 l 197 325 z "},"Ặ":{"ha":778,"x_min":-24,"x_max":699,"o":"m 631 0 l 581 267 l 169 267 l 44 0 l -24 0 l 431 950 l 513 950 l 699 0 l 631 0 m 197 325 l 569 325 l 464 896 l 197 325 m 486 1065 q 376 1103 419 1065 q 331 1196 333 1140 l 375 1201 q 411 1142 382 1164 q 486 1121 440 1121 q 572 1144 535 1121 q 626 1206 608 1167 l 671 1192 q 603 1101 654 1136 q 486 1065 551 1065 m 319 -125 q 353 -137 340 -125 q 365 -168 365 -149 q 350 -207 365 -192 q 311 -222 335 -222 q 278 -210 290 -222 q 267 -179 267 -199 q 282 -140 267 -156 q 319 -125 297 -125 z "},"Ằ":{"ha":778,"x_min":-24,"x_max":699,"o":"m 528 1194 l 496 1169 l 358 1335 l 408 1375 l 528 1194 m 486 1025 q 376 1063 419 1025 q 331 1156 333 1100 l 375 1161 q 411 1102 382 1124 q 486 1081 440 1081 q 572 1103 535 1081 q 626 1165 608 1126 l 671 1151 q 603 1060 654 1096 q 486 1025 551 1025 m 631 0 l 581 267 l 169 267 l 44 0 l -24 0 l 431 950 l 513 950 l 699 0 l 631 0 m 197 325 l 569 325 l 464 896 l 197 325 z "},"Ẳ":{"ha":778,"x_min":-24,"x_max":699,"o":"m 631 0 l 581 267 l 169 267 l 44 0 l -24 0 l 431 950 l 513 950 l 699 0 l 631 0 m 197 325 l 569 325 l 464 896 l 197 325 m 488 1025 q 378 1063 421 1025 q 332 1156 335 1100 l 376 1161 q 413 1102 383 1124 q 488 1081 442 1081 q 573 1103 536 1081 q 628 1165 610 1126 l 672 1151 q 604 1060 656 1096 q 488 1025 553 1025 m 474 1235 q 551 1255 521 1238 q 582 1310 582 1272 q 524 1360 582 1360 q 482 1355 499 1360 q 440 1339 465 1350 l 424 1382 q 531 1410 472 1410 q 613 1383 583 1410 q 643 1311 643 1357 q 612 1237 643 1265 q 526 1201 581 1208 l 518 1139 l 463 1139 l 474 1235 z "},"Ẵ":{"ha":778,"x_min":-24,"x_max":715,"o":"m 432 1272 q 388 1260 406 1272 q 344 1217 371 1249 l 307 1243 q 432 1326 368 1326 q 474 1318 456 1326 q 519 1293 493 1310 q 556 1272 540 1279 q 589 1264 572 1264 q 631 1278 611 1264 q 676 1325 651 1293 l 715 1301 q 590 1211 658 1211 q 544 1220 564 1211 q 496 1246 524 1229 q 462 1266 476 1260 q 432 1272 447 1272 m 488 1081 q 573 1103 536 1081 q 628 1165 610 1126 l 672 1151 q 604 1060 656 1096 q 488 1025 553 1025 q 378 1063 421 1025 q 332 1156 335 1100 l 376 1161 q 413 1102 383 1124 q 488 1081 442 1081 m 431 950 l 513 950 l 699 0 l 631 0 l 581 267 l 169 267 l 44 0 l -24 0 l 431 950 m 197 325 l 569 325 l 464 896 l 197 325 z "},"Ǎ":{"ha":778,"x_min":-24,"x_max":700,"o":"m 631 0 l 581 267 l 169 267 l 44 0 l -24 0 l 431 950 l 513 950 l 699 0 l 631 0 m 197 325 l 569 325 l 464 896 l 197 325 m 672 1222 l 700 1188 l 506 1051 l 467 1051 l 308 1188 l 340 1221 l 493 1113 l 672 1222 z "},"Â":{"ha":778,"x_min":-24,"x_max":699,"o":"m 631 0 l 581 267 l 169 267 l 44 0 l -24 0 l 431 950 l 513 950 l 699 0 l 631 0 m 197 325 l 569 325 l 464 896 l 197 325 m 317 1060 l 290 1096 l 485 1232 l 522 1232 l 679 1094 l 649 1060 l 499 1171 l 317 1060 z "},"Ấ":{"ha":778,"x_min":-24,"x_max":810,"o":"m 810 1315 l 629 1154 l 600 1183 l 768 1360 l 810 1315 m 497 1126 l 315 1015 l 289 1051 l 483 1188 l 521 1188 l 678 1050 l 647 1015 l 497 1126 m 431 950 l 513 950 l 699 0 l 631 0 l 581 267 l 169 267 l 44 0 l -24 0 l 431 950 m 197 325 l 569 325 l 464 896 l 197 325 z "},"Ậ":{"ha":778,"x_min":-24,"x_max":699,"o":"m 631 0 l 581 267 l 169 267 l 44 0 l -24 0 l 431 950 l 513 950 l 699 0 l 631 0 m 197 325 l 569 325 l 464 896 l 197 325 m 317 1060 l 290 1096 l 485 1232 l 522 1232 l 679 1094 l 649 1060 l 499 1171 l 317 1060 m 319 -125 q 353 -137 340 -125 q 365 -168 365 -149 q 350 -207 365 -192 q 311 -222 335 -222 q 278 -210 290 -222 q 267 -179 267 -199 q 282 -140 267 -156 q 319 -125 297 -125 z "},"Ầ":{"ha":778,"x_min":-24,"x_max":699,"o":"m 382 1179 l 350 1154 l 213 1319 l 263 1360 l 382 1179 m 311 1015 l 285 1051 l 479 1188 l 517 1188 l 674 1050 l 643 1015 l 493 1126 l 311 1015 m 631 0 l 581 267 l 169 267 l 44 0 l -24 0 l 431 950 l 513 950 l 699 0 l 631 0 m 197 325 l 569 325 l 464 896 l 197 325 z "},"Ẩ":{"ha":778,"x_min":-24,"x_max":806,"o":"m 631 0 l 581 267 l 169 267 l 44 0 l -24 0 l 431 950 l 513 950 l 699 0 l 631 0 m 197 325 l 569 325 l 464 896 l 197 325 m 313 1015 l 286 1051 l 481 1188 l 518 1188 l 675 1050 l 644 1015 l 494 1126 l 313 1015 m 636 1224 q 714 1244 683 1226 q 744 1299 744 1261 q 686 1349 744 1349 q 644 1344 661 1349 q 603 1328 628 1339 l 586 1371 q 693 1399 635 1399 q 776 1372 746 1399 q 806 1300 806 1346 q 774 1226 806 1254 q 689 1190 743 1197 l 681 1128 l 625 1128 l 636 1224 z "},"Ẫ":{"ha":778,"x_min":-24,"x_max":715,"o":"m 432 1294 q 388 1283 406 1294 q 344 1239 371 1271 l 307 1265 q 432 1349 368 1349 q 474 1340 456 1349 q 519 1315 493 1332 q 556 1294 540 1301 q 589 1286 572 1286 q 631 1301 611 1286 q 676 1347 651 1315 l 715 1324 q 590 1233 658 1233 q 544 1242 564 1233 q 496 1268 524 1251 q 462 1288 476 1282 q 432 1294 447 1294 m 492 1126 l 310 1015 l 283 1051 l 478 1188 l 515 1188 l 672 1050 l 642 1015 l 492 1126 m 431 950 l 513 950 l 699 0 l 631 0 l 581 267 l 169 267 l 44 0 l -24 0 l 431 950 m 197 325 l 569 325 l 464 896 l 197 325 z "},"Ȁ":{"ha":778,"x_min":-24,"x_max":699,"o":"m 631 0 l 581 267 l 169 267 l 44 0 l -24 0 l 431 950 l 513 950 l 699 0 l 631 0 m 197 325 l 569 325 l 464 896 l 197 325 m 360 1292 l 438 1092 l 392 1071 l 296 1260 l 360 1292 m 528 1290 l 596 1097 l 550 1076 l 464 1260 l 528 1290 z "},"Ä":{"ha":778,"x_min":-24,"x_max":699,"o":"m 631 0 l 581 267 l 169 267 l 44 0 l -24 0 l 431 950 l 513 950 l 699 0 l 631 0 m 197 325 l 569 325 l 464 896 l 197 325 m 369 1100 q 340 1111 351 1100 q 328 1140 328 1122 q 342 1177 328 1163 q 379 1192 357 1192 q 410 1181 399 1192 q 422 1151 422 1169 q 407 1115 422 1129 q 369 1100 392 1100 m 622 1100 q 591 1111 603 1100 q 579 1140 579 1122 q 594 1177 579 1163 q 631 1192 608 1192 q 662 1181 650 1192 q 674 1151 674 1169 q 659 1115 674 1129 q 622 1100 644 1100 z "},"Ǟ":{"ha":778,"x_min":-24,"x_max":699,"o":"m 631 0 l 581 267 l 169 267 l 44 0 l -24 0 l 431 950 l 513 950 l 699 0 l 631 0 m 197 325 l 569 325 l 464 896 l 197 325 m 354 1032 q 324 1043 336 1032 q 313 1072 313 1054 q 327 1109 313 1094 q 364 1124 342 1124 q 395 1113 383 1124 q 407 1083 407 1101 q 392 1047 407 1061 q 354 1032 376 1032 m 607 1032 q 576 1043 588 1032 q 564 1072 564 1054 q 578 1109 564 1094 q 615 1124 593 1124 q 647 1113 635 1124 q 658 1083 658 1101 q 644 1047 658 1061 q 607 1032 629 1032 m 657 1207 l 339 1207 l 349 1261 l 665 1261 l 657 1207 z "},"Ȧ":{"ha":778,"x_min":-24,"x_max":699,"o":"m 631 0 l 581 267 l 169 267 l 44 0 l -24 0 l 431 950 l 513 950 l 699 0 l 631 0 m 197 325 l 569 325 l 464 896 l 197 325 m 500 1111 q 467 1123 479 1111 q 454 1154 454 1135 q 469 1193 454 1178 q 508 1208 485 1208 q 541 1197 529 1208 q 553 1165 553 1185 q 538 1126 553 1142 q 500 1111 522 1111 z "},"Ạ":{"ha":778,"x_min":-24,"x_max":699,"o":"m 631 0 l 581 267 l 169 267 l 44 0 l -24 0 l 431 950 l 513 950 l 699 0 l 631 0 m 197 325 l 569 325 l 464 896 l 197 325 m 319 -125 q 353 -137 340 -125 q 365 -168 365 -149 q 350 -207 365 -192 q 311 -222 335 -222 q 278 -210 290 -222 q 267 -179 267 -199 q 282 -140 267 -156 q 319 -125 297 -125 z "},"Ǡ":{"ha":778,"x_min":-24,"x_max":699,"o":"m 631 0 l 581 267 l 169 267 l 44 0 l -24 0 l 431 950 l 513 950 l 699 0 l 631 0 m 197 325 l 569 325 l 464 896 l 197 325 m 482 1032 q 449 1044 461 1032 q 436 1075 436 1056 q 451 1114 436 1099 q 490 1129 467 1129 q 523 1117 511 1129 q 535 1086 535 1106 q 519 1047 535 1063 q 482 1032 504 1032 m 658 1207 l 340 1207 l 350 1261 l 667 1261 l 658 1207 z "},"À":{"ha":778,"x_min":-24,"x_max":699,"o":"m 631 0 l 581 267 l 169 267 l 44 0 l -24 0 l 431 950 l 513 950 l 699 0 l 631 0 m 197 325 l 569 325 l 464 896 l 197 325 m 399 1218 l 636 1093 l 613 1054 l 367 1158 l 399 1218 z "},"Ả":{"ha":778,"x_min":-24,"x_max":699,"o":"m 631 0 l 581 267 l 169 267 l 44 0 l -24 0 l 431 950 l 513 950 l 699 0 l 631 0 m 197 325 l 569 325 l 464 896 l 197 325 m 474 1176 q 551 1197 521 1179 q 582 1251 582 1214 q 524 1301 582 1301 q 482 1297 499 1301 q 440 1281 465 1292 l 424 1324 q 531 1351 472 1351 q 613 1325 583 1351 q 643 1253 643 1299 q 612 1178 643 1207 q 526 1143 581 1150 l 518 1081 l 463 1081 l 474 1176 z "},"Ȃ":{"ha":778,"x_min":-24,"x_max":699,"o":"m 631 0 l 581 267 l 169 267 l 44 0 l -24 0 l 431 950 l 513 950 l 699 0 l 631 0 m 197 325 l 569 325 l 464 896 l 197 325 m 319 1107 q 389 1209 338 1171 q 508 1247 440 1247 q 618 1208 576 1247 q 661 1103 660 1168 l 615 1097 q 506 1193 600 1193 q 419 1167 456 1193 q 363 1093 382 1142 l 319 1107 z "},"Ɑ":{"ha":925,"x_min":103,"x_max":843,"o":"m 732 154 q 728 106 728 128 q 738 60 728 78 q 775 32 749 43 l 757 -15 q 665 115 658 8 q 404 -15 560 -15 q 247 27 315 -15 q 141 154 179 69 q 103 360 103 239 q 157 648 103 508 q 311 876 211 788 q 540 964 411 964 q 764 842 685 964 l 786 950 l 843 950 l 732 154 m 410 43 q 553 78 489 43 q 672 190 617 114 l 754 775 q 660 875 711 843 q 539 907 610 907 q 342 826 426 907 q 215 617 258 744 q 171 360 171 490 q 236 122 171 201 q 410 43 301 43 z "},"Ā":{"ha":778,"x_min":-24,"x_max":699,"o":"m 631 0 l 581 267 l 169 267 l 44 0 l -24 0 l 431 950 l 513 950 l 699 0 l 631 0 m 197 325 l 569 325 l 464 896 l 197 325 m 654 1118 l 336 1118 l 346 1172 l 663 1172 l 654 1118 z "},"Ą":{"ha":778,"x_min":-24,"x_max":699,"o":"m 685 0 q 537 -83 583 -43 q 490 -172 490 -122 q 571 -239 490 -239 q 650 -231 604 -239 l 639 -287 q 563 -296 597 -296 q 463 -266 497 -296 q 428 -189 428 -236 q 475 -74 428 -122 q 628 15 522 -26 l 581 267 l 169 267 l 44 0 l -24 0 l 431 950 l 513 950 l 699 0 l 685 0 m 197 325 l 569 325 l 464 896 l 197 325 z "},"Å":{"ha":778,"x_min":-24,"x_max":699,"o":"m 631 0 l 581 267 l 169 267 l 44 0 l -24 0 l 431 950 l 513 950 l 699 0 l 631 0 m 197 325 l 569 325 l 464 896 l 197 325 m 521 1307 q 606 1276 574 1307 q 638 1199 638 1246 q 596 1098 638 1138 q 493 1058 554 1058 q 408 1090 440 1058 q 376 1168 376 1121 q 418 1268 376 1229 q 521 1307 460 1307 m 519 1265 q 453 1238 478 1265 q 428 1168 428 1210 q 445 1119 428 1138 q 494 1101 463 1101 q 562 1130 538 1101 q 586 1197 586 1158 q 569 1247 586 1229 q 519 1265 551 1265 z "},"Ǻ":{"ha":778,"x_min":-24,"x_max":699,"o":"m 631 0 l 581 267 l 169 267 l 44 0 l -24 0 l 431 950 l 513 950 l 699 0 l 631 0 m 197 325 l 569 325 l 464 896 l 197 325 m 504 1258 q 589 1228 557 1258 q 621 1150 621 1197 q 579 1049 621 1089 q 476 1010 538 1010 q 392 1041 424 1010 q 360 1119 360 1072 q 401 1219 360 1181 q 504 1258 443 1258 m 503 1217 q 436 1189 461 1217 q 411 1119 411 1161 q 428 1071 411 1089 q 478 1053 446 1053 q 545 1081 521 1053 q 569 1149 569 1110 q 552 1199 569 1181 q 503 1217 535 1217 m 640 1433 l 663 1372 l 383 1268 l 368 1307 l 640 1433 z "},"Ⱥ":{"ha":778,"x_min":-24,"x_max":699,"o":"m 633 0 l 583 267 l 350 267 l 204 -97 l 164 -87 l 307 267 l 168 267 l 43 0 l -24 0 l 431 950 l 513 950 l 535 833 l 615 1032 l 654 1021 l 550 761 l 699 0 l 633 0 m 194 324 l 329 324 l 494 733 l 464 897 l 194 324 m 374 324 l 572 324 l 508 660 l 374 324 z "},"Ã":{"ha":778,"x_min":-24,"x_max":707,"o":"m 631 0 l 581 267 l 169 267 l 44 0 l -24 0 l 431 950 l 513 950 l 699 0 l 631 0 m 197 325 l 569 325 l 464 896 l 197 325 m 582 1106 q 535 1115 556 1106 q 488 1140 515 1124 q 453 1160 468 1154 q 424 1167 439 1167 q 380 1155 397 1167 q 336 1111 363 1143 l 299 1138 q 424 1221 360 1221 q 466 1213 447 1221 q 511 1188 485 1204 q 548 1166 532 1174 q 581 1158 564 1158 q 623 1173 603 1158 q 668 1219 643 1188 l 707 1196 q 582 1106 650 1106 z "},"Æ":{"ha":1069,"x_min":-47,"x_max":1024,"o":"m 1007 893 l 550 893 l 594 524 l 953 524 l 946 467 l 601 467 l 650 57 l 968 57 l 958 0 l 592 0 l 563 261 l 160 261 l 24 0 l -47 0 l 454 950 l 1024 950 l 1007 893 m 556 318 l 490 896 l 189 318 l 556 318 z "},"Ǽ":{"ha":1069,"x_min":-47,"x_max":1024,"o":"m 1007 893 l 550 893 l 594 524 l 953 524 l 946 467 l 601 467 l 650 57 l 968 57 l 958 0 l 592 0 l 563 261 l 160 261 l 24 0 l -47 0 l 454 950 l 1024 950 l 1007 893 m 556 318 l 490 896 l 189 318 l 556 318 m 842 1219 l 864 1158 l 585 1054 l 569 1093 l 842 1219 z "},"Ǣ":{"ha":1069,"x_min":-47,"x_max":1024,"o":"m 1007 893 l 550 893 l 594 524 l 953 524 l 946 467 l 601 467 l 650 57 l 968 57 l 958 0 l 592 0 l 563 261 l 160 261 l 24 0 l -47 0 l 454 950 l 1024 950 l 1007 893 m 556 318 l 490 896 l 189 318 l 556 318 m 889 1118 l 571 1118 l 581 1172 l 897 1172 l 889 1118 z "},"B":{"ha":822,"x_min":107,"x_max":751,"o":"m 538 503 q 681 444 628 492 q 735 301 735 396 q 700 156 735 224 q 583 44 665 88 q 367 0 500 0 l 107 0 l 242 950 l 467 950 q 676 897 600 950 q 751 742 751 844 q 693 581 751 644 q 538 503 635 518 m 299 893 l 249 528 l 446 528 q 622 588 560 528 q 685 740 685 649 q 471 893 685 893 l 299 893 m 372 57 q 598 128 531 57 q 665 303 665 199 q 609 431 665 389 q 454 472 553 472 l 240 472 l 183 57 l 372 57 z "},"Ḃ":{"ha":822,"x_min":107,"x_max":751,"o":"m 538 503 q 681 444 628 492 q 735 301 735 396 q 700 156 735 224 q 583 44 665 88 q 367 0 500 0 l 107 0 l 242 950 l 467 950 q 676 897 600 950 q 751 742 751 844 q 693 581 751 644 q 538 503 635 518 m 299 893 l 249 528 l 446 528 q 622 588 560 528 q 685 740 685 649 q 471 893 685 893 l 299 893 m 372 57 q 598 128 531 57 q 665 303 665 199 q 609 431 665 389 q 454 472 553 472 l 240 472 l 183 57 l 372 57 m 497 1111 q 464 1123 476 1111 q 451 1154 451 1135 q 467 1193 451 1178 q 506 1208 482 1208 q 538 1197 526 1208 q 550 1165 550 1185 q 535 1126 550 1142 q 497 1111 519 1111 z "},"Ḅ":{"ha":822,"x_min":107,"x_max":751,"o":"m 538 503 q 681 444 628 492 q 735 301 735 396 q 700 156 735 224 q 583 44 665 88 q 367 0 500 0 l 107 0 l 242 950 l 467 950 q 676 897 600 950 q 751 742 751 844 q 693 581 751 644 q 538 503 635 518 m 299 893 l 249 528 l 446 528 q 622 588 560 528 q 685 740 685 649 q 471 893 685 893 l 299 893 m 372 57 q 598 128 531 57 q 665 303 665 199 q 609 431 665 389 q 454 472 553 472 l 240 472 l 183 57 l 372 57 m 357 -125 q 390 -137 378 -125 q 403 -168 403 -149 q 388 -207 403 -192 q 349 -222 372 -222 q 316 -210 328 -222 q 304 -179 304 -199 q 319 -140 304 -156 q 357 -125 335 -125 z "},"Ꞵ":{"ha":822,"x_min":69,"x_max":751,"o":"m 546 503 q 683 448 631 494 q 736 310 736 401 q 692 147 736 217 q 570 38 649 76 q 390 0 492 0 q 179 40 278 0 l 136 -271 l 69 -271 l 242 950 l 467 950 q 676 897 600 950 q 751 739 751 844 q 695 581 751 642 q 546 503 639 519 m 390 57 q 591 126 515 57 q 667 310 667 194 q 611 433 667 393 q 458 472 556 472 l 351 472 l 367 528 l 454 528 q 624 584 563 528 q 685 738 685 640 q 471 893 685 893 l 299 893 l 186 92 q 390 57 285 57 z "},"Ɓ":{"ha":896,"x_min":85,"x_max":824,"o":"m 610 503 q 753 444 700 492 q 807 301 807 396 q 772 156 807 224 q 655 44 738 88 q 439 0 572 0 l 179 0 l 306 894 l 269 894 q 178 862 208 894 q 149 775 149 829 q 153 735 149 753 q 165 694 157 718 l 114 671 q 92 722 100 697 q 85 778 85 747 q 135 902 85 854 q 278 950 186 950 l 539 950 q 748 897 672 950 q 824 742 824 844 q 765 581 824 644 q 610 503 707 518 m 371 893 l 321 528 l 518 528 q 694 588 632 528 q 757 740 757 649 q 543 893 757 893 l 371 893 m 444 57 q 670 128 603 57 q 738 303 738 199 q 681 431 738 389 q 526 472 625 472 l 313 472 l 256 57 l 444 57 z "},"Ƀ":{"ha":832,"x_min":28,"x_max":761,"o":"m 547 503 q 691 444 638 492 q 744 301 744 396 q 710 156 744 224 q 592 44 675 88 q 376 0 510 0 l 117 0 l 151 246 l 28 246 l 36 300 l 160 300 l 251 950 l 476 950 q 685 897 610 950 q 761 742 761 844 q 703 581 761 644 q 547 503 644 518 m 308 893 l 258 528 l 456 528 q 632 588 569 528 q 694 740 694 649 q 481 893 694 893 l 308 893 m 382 57 q 608 128 540 57 q 675 303 675 199 q 619 431 675 389 q 464 472 563 472 l 250 472 l 226 300 l 479 300 l 471 246 l 219 246 l 193 57 l 382 57 z "},"Ƃ":{"ha":783,"x_min":107,"x_max":711,"o":"m 414 575 q 633 514 556 575 q 711 336 711 453 q 675 174 711 250 q 556 49 639 99 q 338 0 472 0 l 107 0 l 242 950 l 708 950 l 689 892 l 300 892 l 256 575 l 414 575 m 351 57 q 523 99 458 57 q 615 203 588 140 q 642 335 642 267 q 414 518 642 518 l 247 518 l 183 57 l 351 57 z "},"C":{"ha":757,"x_min":104,"x_max":785,"o":"m 557 964 q 685 942 632 964 q 785 878 739 921 l 746 838 q 659 891 701 875 q 558 907 617 907 q 337 822 424 907 q 211 612 250 738 q 172 361 172 486 q 242 126 172 206 q 428 46 311 46 q 548 66 497 46 q 651 126 599 86 l 686 78 q 424 -15 568 -15 q 191 83 278 -15 q 104 363 104 182 q 151 640 104 501 q 301 871 199 778 q 557 964 403 964 z "},"Ć":{"ha":757,"x_min":104,"x_max":785,"o":"m 557 964 q 685 942 632 964 q 785 878 739 921 l 746 838 q 659 891 701 875 q 558 907 617 907 q 337 822 424 907 q 211 612 250 738 q 172 361 172 486 q 242 126 172 206 q 428 46 311 46 q 548 66 497 46 q 651 126 599 86 l 686 78 q 424 -15 568 -15 q 191 83 278 -15 q 104 363 104 182 q 151 640 104 501 q 301 871 199 778 q 557 964 403 964 m 692 1219 l 714 1158 l 435 1054 l 419 1093 l 692 1219 z "},"Č":{"ha":757,"x_min":104,"x_max":785,"o":"m 557 964 q 685 942 632 964 q 785 878 739 921 l 746 838 q 659 891 701 875 q 558 907 617 907 q 337 822 424 907 q 211 612 250 738 q 172 361 172 486 q 242 126 172 206 q 428 46 311 46 q 548 66 497 46 q 651 126 599 86 l 686 78 q 424 -15 568 -15 q 191 83 278 -15 q 104 363 104 182 q 151 640 104 501 q 301 871 199 778 q 557 964 403 964 m 757 1222 l 785 1188 l 590 1051 l 551 1051 l 393 1188 l 425 1221 l 578 1113 l 757 1222 z "},"Ç":{"ha":757,"x_min":104,"x_max":785,"o":"m 558 907 q 337 822 424 907 q 211 612 250 738 q 172 361 172 486 q 242 126 172 206 q 428 46 311 46 q 548 66 497 46 q 651 126 599 86 l 686 78 q 442 -15 576 -10 l 428 -93 q 544 -190 544 -101 q 502 -277 544 -244 q 394 -310 460 -310 q 289 -279 332 -310 l 315 -239 q 394 -260 349 -260 q 460 -242 435 -260 q 485 -192 485 -225 q 460 -146 485 -160 q 371 -132 435 -132 l 396 -14 q 183 94 263 -4 q 104 363 104 192 q 151 640 104 501 q 301 871 199 778 q 557 964 403 964 q 685 942 632 964 q 785 878 739 921 l 746 838 q 659 891 701 875 q 558 907 617 907 z "},"Ĉ":{"ha":757,"x_min":104,"x_max":785,"o":"m 557 964 q 685 942 632 964 q 785 878 739 921 l 746 838 q 659 891 701 875 q 558 907 617 907 q 337 822 424 907 q 211 612 250 738 q 172 361 172 486 q 242 126 172 206 q 428 46 311 46 q 548 66 497 46 q 651 126 599 86 l 686 78 q 424 -15 568 -15 q 191 83 278 -15 q 104 363 104 182 q 151 640 104 501 q 301 871 199 778 q 557 964 403 964 m 401 1060 l 375 1096 l 569 1232 l 607 1232 l 764 1094 l 733 1060 l 583 1171 l 401 1060 z "},"Ċ":{"ha":757,"x_min":104,"x_max":785,"o":"m 557 964 q 685 942 632 964 q 785 878 739 921 l 746 838 q 659 891 701 875 q 558 907 617 907 q 337 822 424 907 q 211 612 250 738 q 172 361 172 486 q 242 126 172 206 q 428 46 311 46 q 548 66 497 46 q 651 126 599 86 l 686 78 q 424 -15 568 -15 q 191 83 278 -15 q 104 363 104 182 q 151 640 104 501 q 301 871 199 778 q 557 964 403 964 m 585 1111 q 551 1123 564 1111 q 539 1154 539 1135 q 554 1193 539 1178 q 593 1208 569 1208 q 626 1197 614 1208 q 638 1165 638 1185 q 622 1126 638 1142 q 585 1111 607 1111 z "},"Ꭓ":{"ha":690,"x_min":-56,"x_max":715,"o":"m 715 950 l 389 440 l 601 -151 l 529 -151 l 347 396 l 19 -151 l -56 -151 l 313 440 l 128 950 l 199 950 l 356 482 l 639 950 l 715 950 z "},"Ƈ":{"ha":760,"x_min":104,"x_max":1047,"o":"m 914 1142 q 1047 1094 989 1142 l 1014 1054 q 969 1078 990 1071 q 915 1086 947 1086 q 838 1057 869 1086 q 797 964 806 1028 l 785 878 l 750 842 q 660 891 704 875 q 558 907 615 907 q 337 822 424 907 q 211 612 250 738 q 172 361 172 486 q 242 126 172 206 q 428 46 311 46 q 548 66 497 46 q 651 126 599 86 l 686 78 q 424 -15 568 -15 q 191 83 278 -15 q 104 363 104 182 q 151 640 104 501 q 301 871 199 778 q 556 964 403 964 q 726 918 656 964 l 733 967 q 792 1097 744 1053 q 914 1142 840 1142 z "},"Ȼ":{"ha":757,"x_min":104,"x_max":785,"o":"m 746 838 q 643 896 692 882 l 310 72 q 428 46 361 46 q 548 66 497 46 q 651 126 599 86 l 686 78 q 424 -15 568 -15 q 286 13 349 -15 l 242 -97 l 201 -87 l 250 32 q 142 162 181 78 q 104 363 104 246 q 151 640 104 501 q 301 871 199 778 q 557 964 403 964 q 625 958 597 964 l 654 1032 l 693 1021 l 664 950 q 785 878 733 928 l 746 838 m 603 904 q 558 907 575 907 q 337 822 424 907 q 211 612 250 738 q 172 361 172 486 q 275 93 172 174 l 603 904 z "},"D":{"ha":869,"x_min":107,"x_max":797,"o":"m 424 950 q 694 873 592 950 q 797 596 797 796 q 748 303 797 438 q 588 84 699 168 q 304 0 478 0 l 107 0 l 242 950 l 424 950 m 299 893 l 183 57 l 314 57 q 556 135 463 57 q 690 336 649 214 q 731 597 731 458 q 647 832 731 771 q 424 893 563 893 l 299 893 z "},"Ǳ":{"ha":1546,"x_min":107,"x_max":1561,"o":"m 424 950 q 694 873 592 950 q 797 596 797 796 q 748 303 797 438 q 588 84 699 168 q 304 0 478 0 l 107 0 l 242 950 l 424 950 m 299 893 l 183 57 l 314 57 q 556 135 463 57 q 690 336 649 214 q 731 597 731 458 q 647 832 731 771 q 424 893 563 893 l 299 893 m 835 0 l 843 57 l 1476 890 l 1013 890 l 1021 950 l 1561 950 l 1554 894 l 922 60 l 1425 60 l 1407 0 l 835 0 z "},"Ǆ":{"ha":1546,"x_min":107,"x_max":1561,"o":"m 424 950 q 694 873 592 950 q 797 596 797 796 q 748 303 797 438 q 588 84 699 168 q 304 0 478 0 l 107 0 l 242 950 l 424 950 m 299 893 l 183 57 l 314 57 q 556 135 463 57 q 690 336 649 214 q 731 597 731 458 q 647 832 731 771 q 424 893 563 893 l 299 893 m 835 0 l 843 57 l 1476 890 l 1013 890 l 1021 950 l 1561 950 l 1554 894 l 922 60 l 1425 60 l 1407 0 l 835 0 m 1478 1222 l 1506 1188 l 1311 1051 l 1272 1051 l 1114 1188 l 1146 1221 l 1299 1113 l 1478 1222 z "},"Ɖ":{"ha":875,"x_min":58,"x_max":801,"o":"m 428 950 q 699 873 596 950 q 801 596 801 796 q 752 303 801 438 q 592 84 703 168 q 308 0 482 0 l 111 0 l 176 463 l 58 463 l 65 518 l 185 518 l 246 950 l 428 950 m 318 57 q 560 135 467 57 q 694 336 653 214 q 735 597 735 458 q 651 832 735 771 q 428 893 567 893 l 303 893 l 251 518 l 508 518 l 501 463 l 243 463 l 188 57 l 318 57 z "},"Ð":{"ha":875,"x_min":58,"x_max":801,"o":"m 428 950 q 699 873 596 950 q 801 596 801 796 q 752 303 801 438 q 592 84 703 168 q 308 0 482 0 l 111 0 l 176 463 l 58 463 l 65 518 l 185 518 l 246 950 l 428 950 m 318 57 q 560 135 467 57 q 694 336 653 214 q 735 597 735 458 q 651 832 735 771 q 428 893 567 893 l 303 893 l 251 518 l 508 518 l 501 463 l 243 463 l 188 57 l 318 57 z "},"Ď":{"ha":869,"x_min":107,"x_max":797,"o":"m 424 950 q 694 873 592 950 q 797 596 797 796 q 748 303 797 438 q 588 84 699 168 q 304 0 478 0 l 107 0 l 242 950 l 424 950 m 299 893 l 183 57 l 314 57 q 556 135 463 57 q 690 336 649 214 q 731 597 731 458 q 647 832 731 771 q 424 893 563 893 l 299 893 m 696 1222 l 724 1188 l 529 1051 l 490 1051 l 332 1188 l 364 1221 l 517 1113 l 696 1222 z "},"Ḓ":{"ha":869,"x_min":107,"x_max":797,"o":"m 424 950 q 694 873 592 950 q 797 596 797 796 q 748 303 797 438 q 588 84 699 168 q 304 0 478 0 l 107 0 l 242 950 l 424 950 m 299 893 l 183 57 l 314 57 q 556 135 463 57 q 690 336 649 214 q 731 597 731 458 q 647 832 731 771 q 424 893 563 893 l 299 893 m 150 -276 l 121 -242 l 317 -97 l 356 -97 l 511 -242 l 481 -276 l 329 -158 l 150 -276 z "},"Đ":{"ha":875,"x_min":58,"x_max":801,"o":"m 428 950 q 699 873 596 950 q 801 596 801 796 q 752 303 801 438 q 592 84 703 168 q 308 0 482 0 l 111 0 l 176 463 l 58 463 l 65 518 l 185 518 l 246 950 l 428 950 m 318 57 q 560 135 467 57 q 694 336 653 214 q 735 597 735 458 q 651 832 735 771 q 428 893 567 893 l 303 893 l 251 518 l 508 518 l 501 463 l 243 463 l 188 57 l 318 57 z "},"Ḋ":{"ha":869,"x_min":107,"x_max":797,"o":"m 424 950 q 694 873 592 950 q 797 596 797 796 q 748 303 797 438 q 588 84 699 168 q 304 0 478 0 l 107 0 l 242 950 l 424 950 m 299 893 l 183 57 l 314 57 q 556 135 463 57 q 690 336 649 214 q 731 597 731 458 q 647 832 731 771 q 424 893 563 893 l 299 893 m 524 1111 q 490 1123 503 1111 q 478 1154 478 1135 q 493 1193 478 1178 q 532 1208 508 1208 q 565 1197 553 1208 q 576 1165 576 1185 q 561 1126 576 1142 q 524 1111 546 1111 z "},"Ḍ":{"ha":869,"x_min":107,"x_max":797,"o":"m 424 950 q 694 873 592 950 q 797 596 797 796 q 748 303 797 438 q 588 84 699 168 q 304 0 478 0 l 107 0 l 242 950 l 424 950 m 299 893 l 183 57 l 314 57 q 556 135 463 57 q 690 336 649 214 q 731 597 731 458 q 647 832 731 771 q 424 893 563 893 l 299 893 m 332 -125 q 365 -137 353 -125 q 378 -168 378 -149 q 363 -207 378 -192 q 324 -222 347 -222 q 291 -210 303 -222 q 279 -179 279 -199 q 294 -140 279 -156 q 332 -125 310 -125 z "},"Ɗ":{"ha":943,"x_min":85,"x_max":869,"o":"m 496 950 q 767 873 664 950 q 869 596 869 796 q 820 303 869 438 q 660 84 771 168 q 376 0 550 0 l 179 0 l 306 894 l 269 894 q 178 862 208 894 q 149 775 149 829 q 153 735 149 753 q 165 694 157 718 l 114 671 q 92 722 100 697 q 85 778 85 747 q 135 902 85 854 q 278 950 186 950 l 496 950 m 386 57 q 628 135 535 57 q 762 336 721 214 q 803 597 803 458 q 719 832 803 771 q 496 893 635 893 l 371 893 l 256 57 l 386 57 z "},"Ḏ":{"ha":869,"x_min":107,"x_max":797,"o":"m 424 950 q 694 873 592 950 q 797 596 797 796 q 748 303 797 438 q 588 84 699 168 q 304 0 478 0 l 107 0 l 242 950 l 424 950 m 299 893 l 183 57 l 314 57 q 556 135 463 57 q 690 336 649 214 q 731 597 731 458 q 647 832 731 771 q 424 893 563 893 l 299 893 m 176 -160 l 494 -160 l 485 -214 l 168 -214 l 176 -160 z "},"Ƌ":{"ha":785,"x_min":54,"x_max":708,"o":"m 575 0 l 338 0 q 131 63 208 0 q 54 258 54 126 q 156 492 54 408 q 431 575 257 575 l 590 575 l 635 892 l 239 892 l 246 950 l 708 950 l 575 0 m 582 518 l 425 518 q 202 450 282 518 q 122 258 122 382 q 179 105 122 153 q 346 57 236 57 l 518 57 l 582 518 z "},"ǲ":{"ha":1433,"x_min":107,"x_max":1436,"o":"m 424 950 q 694 873 592 950 q 797 596 797 796 q 748 303 797 438 q 588 84 699 168 q 304 0 478 0 l 107 0 l 242 950 l 424 950 m 299 893 l 183 57 l 314 57 q 556 135 463 57 q 690 336 649 214 q 731 597 731 458 q 647 832 731 771 q 424 893 563 893 l 299 893 m 1436 725 l 1429 674 l 933 57 l 1336 57 l 1322 0 l 843 0 l 851 51 l 1347 668 l 972 668 l 981 725 l 1436 725 z "},"ǅ":{"ha":1433,"x_min":107,"x_max":1444,"o":"m 424 950 q 694 873 592 950 q 797 596 797 796 q 748 303 797 438 q 588 84 699 168 q 304 0 478 0 l 107 0 l 242 950 l 424 950 m 299 893 l 183 57 l 314 57 q 556 135 463 57 q 690 336 649 214 q 731 597 731 458 q 647 832 731 771 q 424 893 563 893 l 299 893 m 1436 725 l 1429 674 l 933 57 l 1336 57 l 1322 0 l 843 0 l 851 51 l 1347 668 l 972 668 l 981 725 l 1436 725 m 1417 1061 l 1444 1026 l 1249 882 l 1210 882 l 1053 1026 l 1085 1061 l 1235 943 l 1417 1061 z "},"E":{"ha":697,"x_min":107,"x_max":711,"o":"m 711 950 l 694 893 l 299 893 l 247 524 l 590 524 l 582 467 l 240 467 l 182 57 l 596 57 l 586 0 l 107 0 l 242 950 l 711 950 z "},"É":{"ha":697,"x_min":107,"x_max":711,"o":"m 711 950 l 694 893 l 299 893 l 247 524 l 590 524 l 582 467 l 240 467 l 182 57 l 596 57 l 586 0 l 107 0 l 242 950 l 711 950 m 617 1219 l 639 1158 l 360 1054 l 344 1093 l 617 1219 z "},"Ĕ":{"ha":697,"x_min":107,"x_max":711,"o":"m 711 950 l 694 893 l 299 893 l 247 524 l 590 524 l 582 467 l 240 467 l 182 57 l 596 57 l 586 0 l 107 0 l 242 950 l 711 950 m 496 1065 q 386 1103 429 1065 q 340 1196 343 1140 l 385 1201 q 421 1142 392 1164 q 496 1121 450 1121 q 581 1144 544 1121 q 636 1206 618 1167 l 681 1192 q 613 1101 664 1136 q 496 1065 561 1065 z "},"Ě":{"ha":697,"x_min":107,"x_max":711,"o":"m 711 950 l 694 893 l 299 893 l 247 524 l 590 524 l 582 467 l 240 467 l 182 57 l 596 57 l 586 0 l 107 0 l 242 950 l 711 950 m 682 1222 l 710 1188 l 515 1051 l 476 1051 l 318 1188 l 350 1221 l 503 1113 l 682 1222 z "},"Ȩ":{"ha":697,"x_min":107,"x_max":711,"o":"m 299 893 l 247 524 l 590 524 l 582 467 l 240 467 l 182 57 l 596 57 l 586 0 l 364 0 l 347 -93 q 464 -189 464 -101 q 421 -276 464 -243 q 313 -310 378 -310 q 208 -279 251 -310 l 235 -240 q 314 -260 271 -260 q 379 -242 354 -260 q 404 -192 404 -225 q 379 -146 404 -160 q 290 -132 354 -132 l 318 0 l 107 0 l 242 950 l 711 950 l 694 893 l 299 893 z "},"Ê":{"ha":697,"x_min":107,"x_max":711,"o":"m 711 950 l 694 893 l 299 893 l 247 524 l 590 524 l 582 467 l 240 467 l 182 57 l 596 57 l 586 0 l 107 0 l 242 950 l 711 950 m 326 1060 l 300 1096 l 494 1232 l 532 1232 l 689 1094 l 658 1060 l 508 1171 l 326 1060 z "},"Ế":{"ha":697,"x_min":107,"x_max":819,"o":"m 778 1360 l 819 1315 l 639 1154 l 610 1183 l 778 1360 m 325 1015 l 299 1051 l 493 1188 l 531 1188 l 688 1050 l 657 1015 l 507 1126 l 325 1015 m 711 950 l 694 893 l 299 893 l 247 524 l 590 524 l 582 467 l 240 467 l 182 57 l 596 57 l 586 0 l 107 0 l 242 950 l 711 950 z "},"Ệ":{"ha":697,"x_min":107,"x_max":711,"o":"m 711 950 l 694 893 l 299 893 l 247 524 l 590 524 l 582 467 l 240 467 l 182 57 l 596 57 l 586 0 l 107 0 l 242 950 l 711 950 m 326 1060 l 300 1096 l 494 1232 l 532 1232 l 689 1094 l 658 1060 l 508 1171 l 326 1060 m 325 -125 q 358 -137 346 -125 q 371 -168 371 -149 q 356 -207 371 -192 q 317 -222 340 -222 q 284 -210 296 -222 q 272 -179 272 -199 q 288 -140 272 -156 q 325 -125 303 -125 z "},"Ề":{"ha":697,"x_min":107,"x_max":711,"o":"m 272 1360 l 392 1179 l 360 1154 l 222 1319 l 272 1360 m 321 1015 l 294 1051 l 489 1188 l 526 1188 l 683 1050 l 653 1015 l 503 1126 l 321 1015 m 711 950 l 694 893 l 299 893 l 247 524 l 590 524 l 582 467 l 240 467 l 182 57 l 596 57 l 586 0 l 107 0 l 242 950 l 711 950 z "},"Ể":{"ha":697,"x_min":107,"x_max":815,"o":"m 711 950 l 694 893 l 299 893 l 247 524 l 590 524 l 582 467 l 240 467 l 182 57 l 596 57 l 586 0 l 107 0 l 242 950 l 711 950 m 322 1015 l 296 1051 l 490 1188 l 528 1188 l 685 1050 l 654 1015 l 504 1126 l 322 1015 m 646 1224 q 724 1244 693 1226 q 754 1299 754 1261 q 696 1349 754 1349 q 654 1344 671 1349 q 613 1328 638 1339 l 596 1371 q 703 1399 644 1399 q 785 1372 756 1399 q 815 1300 815 1346 q 784 1226 815 1254 q 699 1190 753 1197 l 690 1128 l 635 1128 l 646 1224 z "},"Ễ":{"ha":697,"x_min":107,"x_max":725,"o":"m 600 1233 q 553 1242 574 1233 q 506 1268 533 1251 q 472 1288 486 1282 q 442 1294 457 1294 q 398 1283 415 1294 q 354 1239 381 1271 l 317 1265 q 442 1349 378 1349 q 484 1340 465 1349 q 529 1315 503 1332 q 566 1294 550 1301 q 599 1286 582 1286 q 641 1301 621 1286 q 686 1347 661 1315 l 725 1324 q 600 1233 668 1233 m 319 1015 l 293 1051 l 488 1188 l 525 1188 l 682 1050 l 651 1015 l 501 1126 l 319 1015 m 711 950 l 694 893 l 299 893 l 247 524 l 590 524 l 582 467 l 240 467 l 182 57 l 596 57 l 586 0 l 107 0 l 242 950 l 711 950 z "},"Ȅ":{"ha":697,"x_min":107,"x_max":711,"o":"m 711 950 l 694 893 l 299 893 l 247 524 l 590 524 l 582 467 l 240 467 l 182 57 l 596 57 l 586 0 l 107 0 l 242 950 l 711 950 m 369 1292 l 447 1092 l 401 1071 l 306 1260 l 369 1292 m 538 1290 l 606 1097 l 560 1076 l 474 1260 l 538 1290 z "},"Ë":{"ha":697,"x_min":107,"x_max":711,"o":"m 711 950 l 694 893 l 299 893 l 247 524 l 590 524 l 582 467 l 240 467 l 182 57 l 596 57 l 586 0 l 107 0 l 242 950 l 711 950 m 379 1100 q 349 1111 361 1100 q 338 1140 338 1122 q 352 1177 338 1163 q 389 1192 367 1192 q 420 1181 408 1192 q 432 1151 432 1169 q 417 1115 432 1129 q 379 1100 401 1100 m 632 1100 q 601 1111 613 1100 q 589 1140 589 1122 q 603 1177 589 1163 q 640 1192 618 1192 q 672 1181 660 1192 q 683 1151 683 1169 q 669 1115 683 1129 q 632 1100 654 1100 z "},"Ė":{"ha":697,"x_min":107,"x_max":711,"o":"m 711 950 l 694 893 l 299 893 l 247 524 l 590 524 l 582 467 l 240 467 l 182 57 l 596 57 l 586 0 l 107 0 l 242 950 l 711 950 m 510 1111 q 476 1123 489 1111 q 464 1154 464 1135 q 479 1193 464 1178 q 518 1208 494 1208 q 551 1197 539 1208 q 563 1165 563 1185 q 547 1126 563 1142 q 510 1111 532 1111 z "},"Ẹ":{"ha":697,"x_min":107,"x_max":711,"o":"m 711 950 l 694 893 l 299 893 l 247 524 l 590 524 l 582 467 l 240 467 l 182 57 l 596 57 l 586 0 l 107 0 l 242 950 l 711 950 m 325 -125 q 358 -137 346 -125 q 371 -168 371 -149 q 356 -207 371 -192 q 317 -222 340 -222 q 284 -210 296 -222 q 272 -179 272 -199 q 288 -140 272 -156 q 325 -125 303 -125 z "},"È":{"ha":697,"x_min":107,"x_max":711,"o":"m 711 950 l 694 893 l 299 893 l 247 524 l 590 524 l 582 467 l 240 467 l 182 57 l 596 57 l 586 0 l 107 0 l 242 950 l 711 950 m 408 1218 l 646 1093 l 622 1054 l 376 1158 l 408 1218 z "},"Ẻ":{"ha":697,"x_min":107,"x_max":711,"o":"m 711 950 l 694 893 l 299 893 l 247 524 l 590 524 l 582 467 l 240 467 l 182 57 l 596 57 l 586 0 l 107 0 l 242 950 l 711 950 m 483 1176 q 561 1197 531 1179 q 592 1251 592 1214 q 533 1301 592 1301 q 492 1297 508 1301 q 450 1281 475 1292 l 433 1324 q 540 1351 482 1351 q 623 1325 593 1351 q 653 1253 653 1299 q 622 1178 653 1207 q 536 1143 590 1150 l 528 1081 l 472 1081 l 483 1176 z "},"Ȇ":{"ha":697,"x_min":107,"x_max":711,"o":"m 711 950 l 694 893 l 299 893 l 247 524 l 590 524 l 582 467 l 240 467 l 182 57 l 596 57 l 586 0 l 107 0 l 242 950 l 711 950 m 329 1107 q 399 1209 347 1171 q 518 1247 450 1247 q 628 1208 586 1247 q 671 1103 669 1168 l 625 1097 q 515 1193 610 1193 q 428 1167 465 1193 q 372 1093 392 1142 l 329 1107 z "},"Ē":{"ha":697,"x_min":107,"x_max":711,"o":"m 711 950 l 694 893 l 299 893 l 247 524 l 590 524 l 582 467 l 240 467 l 182 57 l 596 57 l 586 0 l 107 0 l 242 950 l 711 950 m 664 1118 l 346 1118 l 356 1172 l 672 1172 l 664 1118 z "},"Ę":{"ha":697,"x_min":107,"x_max":711,"o":"m 299 893 l 247 524 l 590 524 l 582 467 l 240 467 l 182 57 l 596 57 l 586 0 l 547 0 q 399 -83 446 -43 q 353 -172 353 -122 q 433 -239 353 -239 q 513 -231 467 -239 l 501 -287 q 425 -296 460 -296 q 325 -266 360 -296 q 290 -189 290 -236 q 329 -83 290 -128 q 456 0 368 -39 l 107 0 l 242 950 l 711 950 l 694 893 l 299 893 z "},"Ɛ":{"ha":721,"x_min":63,"x_max":725,"o":"m 454 964 q 604 935 540 964 q 725 847 668 906 l 683 808 q 582 882 638 857 q 456 907 526 907 q 289 849 354 907 q 224 700 224 790 q 276 581 224 624 q 421 539 329 539 l 503 539 l 486 481 l 411 482 q 208 417 283 483 q 132 238 132 351 q 189 94 132 144 q 344 44 246 44 q 613 154 489 44 l 651 111 q 342 -15 511 -15 q 139 53 215 -15 q 63 238 63 121 q 133 428 63 354 q 310 514 203 501 q 199 578 240 531 q 157 700 157 625 q 195 836 157 776 q 301 930 233 896 q 454 964 369 964 z "},"Ǝ":{"ha":699,"x_min":10,"x_max":621,"o":"m 151 950 l 621 950 l 488 0 l 10 0 l 18 57 l 431 57 l 488 467 l 146 467 l 154 524 l 496 524 l 547 893 l 144 893 l 151 950 z "},"Ʃ":{"ha":681,"x_min":15,"x_max":697,"o":"m 697 950 l 689 892 l 226 892 l 471 483 l 467 449 l 113 58 l 571 58 l 563 0 l 15 0 l 21 44 l 406 471 l 143 906 l 149 950 l 697 950 z "},"Ɇ":{"ha":697,"x_min":107,"x_max":711,"o":"m 694 893 l 614 893 l 464 524 l 590 524 l 582 467 l 442 467 l 276 57 l 596 57 l 586 0 l 253 0 l 214 -97 l 174 -87 l 208 0 l 107 0 l 242 950 l 593 950 l 626 1032 l 665 1021 l 636 950 l 711 950 l 694 893 m 421 524 l 571 893 l 299 893 l 247 524 l 421 524 m 232 57 l 397 467 l 240 467 l 182 57 l 232 57 z "},"Ẽ":{"ha":697,"x_min":107,"x_max":717,"o":"m 711 950 l 694 893 l 299 893 l 247 524 l 590 524 l 582 467 l 240 467 l 182 57 l 596 57 l 586 0 l 107 0 l 242 950 l 711 950 m 592 1106 q 545 1115 565 1106 q 497 1140 525 1124 q 463 1160 478 1154 q 433 1167 449 1167 q 390 1155 407 1167 q 346 1111 372 1143 l 308 1138 q 433 1221 369 1221 q 476 1213 457 1221 q 521 1188 494 1204 q 558 1166 542 1174 q 590 1158 574 1158 q 633 1173 613 1158 q 678 1219 653 1188 l 717 1196 q 592 1106 660 1106 z "},"Ʒ":{"ha":675,"x_min":-11,"x_max":654,"o":"m 647 894 l 278 531 l 319 531 q 527 472 457 531 q 597 306 597 414 q 553 139 597 213 q 431 25 508 65 q 254 -15 353 -15 q 99 15 163 -15 q -11 106 36 46 l 32 140 q 128 66 78 89 q 253 43 178 43 q 453 115 379 43 q 528 306 528 188 q 472 436 528 396 q 310 476 417 476 l 193 476 l 201 531 l 561 893 l 128 893 l 136 950 l 654 950 l 647 894 z "},"Ǯ":{"ha":675,"x_min":-11,"x_max":654,"o":"m 647 894 l 278 531 l 319 531 q 527 472 457 531 q 597 306 597 414 q 553 139 597 213 q 431 25 508 65 q 254 -15 353 -15 q 99 15 163 -15 q -11 106 36 46 l 32 140 q 128 66 78 89 q 253 43 178 43 q 453 115 379 43 q 528 306 528 188 q 472 436 528 396 q 310 476 417 476 l 193 476 l 201 531 l 561 893 l 128 893 l 136 950 l 654 950 l 647 894 m 596 1222 l 624 1188 l 429 1051 l 390 1051 l 232 1188 l 264 1221 l 417 1113 l 596 1222 z "},"Ƹ":{"ha":676,"x_min":51,"x_max":704,"o":"m 696 893 l 257 893 l 521 531 l 514 476 l 508 482 l 513 476 l 400 476 q 193 409 268 476 q 118 226 118 342 q 170 92 118 140 q 317 43 222 43 q 457 66 397 43 q 578 142 517 89 l 615 101 q 481 14 551 43 q 314 -15 410 -15 q 123 51 194 -15 q 51 226 51 117 q 94 387 51 318 q 217 493 138 456 q 400 531 296 531 l 453 531 l 178 894 l 186 950 l 704 950 l 696 893 z "},"F":{"ha":660,"x_min":107,"x_max":703,"o":"m 703 950 l 688 893 l 299 893 l 246 506 l 581 506 l 572 450 l 238 450 l 174 0 l 107 0 l 242 950 l 703 950 z "},"Ḟ":{"ha":660,"x_min":107,"x_max":703,"o":"m 703 950 l 688 893 l 299 893 l 246 506 l 581 506 l 572 450 l 238 450 l 174 0 l 107 0 l 242 950 l 703 950 m 500 1111 q 467 1123 479 1111 q 454 1154 454 1135 q 469 1193 454 1178 q 508 1208 485 1208 q 541 1197 529 1208 q 553 1165 553 1185 q 538 1126 553 1142 q 500 1111 522 1111 z "},"Ƒ":{"ha":660,"x_min":-156,"x_max":703,"o":"m 299 893 l 246 506 l 581 506 l 572 450 l 238 450 l 174 0 l 158 -107 q 97 -238 146 -194 q -25 -282 47 -282 q -156 -235 -97 -282 l -124 -193 q -80 -217 -101 -208 q -26 -225 -58 -225 q 51 -196 19 -225 q 92 -103 83 -167 l 107 0 l 242 950 l 703 950 l 688 893 l 299 893 z "},"G":{"ha":850,"x_min":104,"x_max":810,"o":"m 564 964 q 699 942 639 964 q 810 874 758 919 l 767 835 q 674 890 721 872 q 564 907 626 907 q 348 826 436 907 q 216 617 260 744 q 172 354 172 490 q 242 121 172 199 q 439 43 313 43 q 651 96 553 43 l 703 449 l 513 449 l 513 507 l 776 507 l 714 61 q 433 -15 579 -15 q 192 81 279 -15 q 104 361 104 178 q 156 647 104 508 q 313 875 208 786 q 564 964 417 964 z "},"Ǵ":{"ha":850,"x_min":104,"x_max":810,"o":"m 564 964 q 699 942 639 964 q 810 874 758 919 l 767 835 q 674 890 721 872 q 564 907 626 907 q 348 826 436 907 q 216 617 260 744 q 172 354 172 490 q 242 121 172 199 q 439 43 313 43 q 651 96 553 43 l 703 449 l 513 449 l 513 507 l 776 507 l 714 61 q 433 -15 579 -15 q 192 81 279 -15 q 104 361 104 178 q 156 647 104 508 q 313 875 208 786 q 564 964 417 964 m 701 1219 l 724 1158 l 444 1054 l 429 1093 l 701 1219 z "},"Ɣ":{"ha":751,"x_min":110,"x_max":806,"o":"m 374 78 q 413 -49 401 -7 q 424 -133 424 -92 q 387 -242 424 -201 q 288 -282 350 -282 q 209 -254 238 -282 q 181 -179 181 -226 q 206 -76 181 -131 q 296 83 232 -22 l 110 950 l 178 950 l 340 132 l 736 950 l 806 950 l 374 78 m 361 -133 q 353 -65 361 -100 q 328 33 346 -29 q 264 -88 285 -40 q 243 -176 243 -136 q 289 -226 243 -226 q 342 -201 324 -226 q 361 -133 361 -175 z "},"Ğ":{"ha":850,"x_min":104,"x_max":810,"o":"m 564 964 q 699 942 639 964 q 810 874 758 919 l 767 835 q 674 890 721 872 q 564 907 626 907 q 348 826 436 907 q 216 617 260 744 q 172 354 172 490 q 242 121 172 199 q 439 43 313 43 q 651 96 553 43 l 703 449 l 513 449 l 513 507 l 776 507 l 714 61 q 433 -15 579 -15 q 192 81 279 -15 q 104 361 104 178 q 156 647 104 508 q 313 875 208 786 q 564 964 417 964 m 581 1065 q 471 1103 514 1065 q 425 1196 428 1140 l 469 1201 q 506 1142 476 1164 q 581 1121 535 1121 q 666 1144 629 1121 q 721 1206 703 1167 l 765 1192 q 697 1101 749 1136 q 581 1065 646 1065 z "},"Ǧ":{"ha":850,"x_min":104,"x_max":810,"o":"m 564 964 q 699 942 639 964 q 810 874 758 919 l 767 835 q 674 890 721 872 q 564 907 626 907 q 348 826 436 907 q 216 617 260 744 q 172 354 172 490 q 242 121 172 199 q 439 43 313 43 q 651 96 553 43 l 703 449 l 513 449 l 513 507 l 776 507 l 714 61 q 433 -15 579 -15 q 192 81 279 -15 q 104 361 104 178 q 156 647 104 508 q 313 875 208 786 q 564 964 417 964 m 767 1222 l 794 1188 l 600 1051 l 561 1051 l 403 1188 l 435 1221 l 588 1113 l 767 1222 z "},"Ĝ":{"ha":850,"x_min":104,"x_max":810,"o":"m 564 964 q 699 942 639 964 q 810 874 758 919 l 767 835 q 674 890 721 872 q 564 907 626 907 q 348 826 436 907 q 216 617 260 744 q 172 354 172 490 q 242 121 172 199 q 439 43 313 43 q 651 96 553 43 l 703 449 l 513 449 l 513 507 l 776 507 l 714 61 q 433 -15 579 -15 q 192 81 279 -15 q 104 361 104 178 q 156 647 104 508 q 313 875 208 786 q 564 964 417 964 m 411 1060 l 385 1096 l 579 1232 l 617 1232 l 774 1094 l 743 1060 l 593 1171 l 411 1060 z "},"Ģ":{"ha":850,"x_min":104,"x_max":810,"o":"m 564 964 q 699 942 639 964 q 810 874 758 919 l 767 835 q 674 890 721 872 q 564 907 626 907 q 348 826 436 907 q 216 617 260 744 q 172 354 172 490 q 242 121 172 199 q 439 43 313 43 q 651 96 553 43 l 703 449 l 513 449 l 513 507 l 776 507 l 714 61 q 433 -15 579 -15 q 192 81 279 -15 q 104 361 104 178 q 156 647 104 508 q 313 875 208 786 q 564 964 417 964 m 406 -121 q 442 -135 428 -121 q 456 -169 456 -149 q 448 -205 456 -187 q 415 -262 440 -222 l 344 -379 l 303 -379 l 372 -221 q 353 -202 360 -214 q 347 -178 347 -190 q 363 -137 347 -154 q 406 -121 379 -121 z "},"Ġ":{"ha":850,"x_min":104,"x_max":810,"o":"m 564 964 q 699 942 639 964 q 810 874 758 919 l 767 835 q 674 890 721 872 q 564 907 626 907 q 348 826 436 907 q 216 617 260 744 q 172 354 172 490 q 242 121 172 199 q 439 43 313 43 q 651 96 553 43 l 703 449 l 513 449 l 513 507 l 776 507 l 714 61 q 433 -15 579 -15 q 192 81 279 -15 q 104 361 104 178 q 156 647 104 508 q 313 875 208 786 q 564 964 417 964 m 594 1111 q 561 1123 574 1111 q 549 1154 549 1135 q 564 1193 549 1178 q 603 1208 579 1208 q 635 1197 624 1208 q 647 1165 647 1185 q 632 1126 647 1142 q 594 1111 617 1111 z "},"Ɠ":{"ha":785,"x_min":104,"x_max":1071,"o":"m 939 1142 q 1014 1128 983 1142 q 1071 1094 1044 1115 l 1039 1054 q 994 1078 1015 1069 q 940 1086 972 1086 q 863 1057 894 1086 q 822 964 831 1028 l 810 874 l 774 840 q 675 890 725 874 q 564 907 625 907 q 348 826 436 907 q 216 617 260 744 q 172 354 172 490 q 242 121 172 199 q 439 43 313 43 q 651 96 553 43 l 703 449 l 513 449 l 513 507 l 776 507 l 714 61 q 433 -15 579 -15 q 192 81 279 -15 q 104 361 104 178 q 156 647 104 508 q 313 875 208 786 q 564 964 417 964 q 751 914 681 964 l 758 967 q 817 1097 769 1053 q 939 1142 865 1142 z "},"Ɂ":{"ha":638,"x_min":92,"x_max":638,"o":"m 231 417 l 326 440 q 508 538 447 469 q 568 718 568 606 q 519 857 568 807 q 381 907 471 907 q 251 881 313 907 q 128 807 190 856 l 92 850 q 233 935 161 907 q 385 964 304 964 q 570 898 503 964 q 638 722 638 832 q 563 505 638 586 q 347 390 489 424 l 290 378 l 236 0 l 171 0 l 231 417 z "},"Ǥ":{"ha":872,"x_min":104,"x_max":863,"o":"m 854 276 l 744 276 l 714 61 q 433 -15 579 -15 q 192 81 279 -15 q 104 361 104 178 q 156 647 104 508 q 313 875 208 786 q 564 964 417 964 q 699 942 639 964 q 810 874 758 919 l 767 833 q 674 890 721 872 q 564 907 626 907 q 348 826 436 907 q 216 617 260 744 q 172 354 172 490 q 242 121 172 199 q 439 43 313 43 q 651 96 553 43 l 678 276 l 496 276 l 504 333 l 686 333 l 703 449 l 513 449 l 513 507 l 776 507 l 751 333 l 863 333 l 854 276 z "},"Ȝ":{"ha":692,"x_min":26,"x_max":639,"o":"m 403 964 q 576 906 513 964 q 639 749 639 849 q 581 586 639 649 q 424 499 522 524 q 556 444 507 490 q 606 311 606 399 q 451 34 606 135 q 28 -119 296 -67 l 26 -64 q 401 75 265 -11 q 536 310 536 161 q 318 468 536 472 l 231 467 l 247 525 l 318 525 q 499 586 429 525 q 569 746 569 647 q 525 865 569 824 q 400 907 481 907 q 266 881 329 907 q 136 807 203 856 l 103 850 q 247 936 176 908 q 403 964 318 964 z "},"H":{"ha":924,"x_min":107,"x_max":847,"o":"m 174 0 l 107 0 l 242 950 l 307 950 l 249 529 l 722 529 l 781 950 l 847 950 l 714 0 l 647 0 l 714 471 l 240 471 l 174 0 z "},"Ħ":{"ha":917,"x_min":108,"x_max":907,"o":"m 907 765 l 900 715 l 815 715 l 715 0 l 649 0 l 715 471 l 242 471 l 175 0 l 108 0 l 210 715 l 121 715 l 129 765 l 217 765 l 243 950 l 308 950 l 283 765 l 757 765 l 782 950 l 849 950 l 822 765 l 907 765 m 724 529 l 750 715 l 276 715 l 250 529 l 724 529 z "},"Ȟ":{"ha":924,"x_min":107,"x_max":847,"o":"m 174 0 l 107 0 l 242 950 l 307 950 l 249 529 l 722 529 l 781 950 l 847 950 l 714 0 l 647 0 l 714 471 l 240 471 l 174 0 m 742 1222 l 769 1188 l 575 1051 l 536 1051 l 378 1188 l 410 1221 l 563 1113 l 742 1222 z "},"Ĥ":{"ha":924,"x_min":107,"x_max":847,"o":"m 174 0 l 107 0 l 242 950 l 307 950 l 249 529 l 722 529 l 781 950 l 847 950 l 714 0 l 647 0 l 714 471 l 240 471 l 174 0 m 386 1060 l 360 1096 l 554 1232 l 592 1232 l 749 1094 l 718 1060 l 568 1171 l 386 1060 z "},"Ḥ":{"ha":924,"x_min":107,"x_max":847,"o":"m 174 0 l 107 0 l 242 950 l 307 950 l 249 529 l 722 529 l 781 950 l 847 950 l 714 0 l 647 0 l 714 471 l 240 471 l 174 0 m 390 -125 q 424 -137 411 -125 q 436 -168 436 -149 q 421 -207 436 -192 q 382 -222 406 -222 q 349 -210 361 -222 q 338 -179 338 -199 q 353 -140 338 -156 q 390 -125 368 -125 z "},"Ɦ":{"ha":997,"x_min":85,"x_max":919,"o":"m 919 950 l 786 0 l 719 0 l 786 471 l 313 471 l 246 0 l 179 0 l 306 894 l 269 894 q 178 862 208 894 q 149 775 149 829 q 153 735 149 753 q 165 694 157 718 l 114 671 q 92 722 100 697 q 85 778 85 747 q 135 902 85 854 q 278 950 186 950 l 379 950 l 321 529 l 794 529 l 853 950 l 919 950 z "},"Ɥ":{"ha":814,"x_min":93,"x_max":738,"o":"m 738 950 l 604 0 l 538 0 l 596 414 q 470 338 535 364 q 329 313 406 313 q 157 371 221 313 q 93 532 93 429 q 97 582 93 556 l 149 950 l 214 950 l 163 582 q 160 539 160 567 q 207 415 160 457 q 343 372 254 372 q 488 403 419 372 q 607 486 557 435 l 672 950 l 738 950 z "},"Ƕ":{"ha":1332,"x_min":107,"x_max":1229,"o":"m 876 -15 q 728 39 779 -15 q 676 181 676 93 q 679 222 676 194 l 714 471 l 240 471 l 174 0 l 107 0 l 242 950 l 307 950 l 249 529 l 722 529 l 781 950 l 847 950 l 744 222 q 742 182 742 194 q 778 77 742 113 q 882 42 815 42 q 1103 202 1042 42 q 1165 588 1165 363 q 1161 725 1165 663 l 1225 725 q 1229 581 1229 658 q 1151 157 1229 329 q 876 -15 1072 -15 z "},"I":{"ha":385,"x_min":107,"x_max":307,"o":"m 307 950 l 174 0 l 107 0 l 242 950 l 307 950 z "},"Ĳ":{"ha":781,"x_min":107,"x_max":711,"o":"m 307 950 l 174 0 l 107 0 l 242 950 l 307 950 m 596 124 q 558 -6 583 43 q 486 -90 533 -56 q 354 -157 439 -124 l 339 -107 q 444 -47 407 -76 q 501 24 482 -18 q 529 132 521 65 l 644 950 l 711 950 l 596 124 z "},"Í":{"ha":385,"x_min":107,"x_max":432,"o":"m 307 950 l 174 0 l 107 0 l 242 950 l 307 950 m 410 1219 l 432 1158 l 153 1054 l 138 1093 l 410 1219 z "},"Ĭ":{"ha":385,"x_min":107,"x_max":474,"o":"m 307 950 l 174 0 l 107 0 l 242 950 l 307 950 m 289 1065 q 179 1103 222 1065 q 133 1196 136 1140 l 178 1201 q 214 1142 185 1164 q 289 1121 243 1121 q 374 1144 338 1121 q 429 1206 411 1167 l 474 1192 q 406 1101 457 1136 q 289 1065 354 1065 z "},"Ǐ":{"ha":385,"x_min":107,"x_max":503,"o":"m 307 950 l 174 0 l 107 0 l 242 950 l 307 950 m 475 1222 l 503 1188 l 308 1051 l 269 1051 l 111 1188 l 143 1221 l 296 1113 l 475 1222 z "},"Î":{"ha":385,"x_min":93,"x_max":482,"o":"m 307 950 l 174 0 l 107 0 l 242 950 l 307 950 m 119 1060 l 93 1096 l 288 1232 l 325 1232 l 482 1094 l 451 1060 l 301 1171 l 119 1060 z "},"Ȉ":{"ha":385,"x_min":99,"x_max":399,"o":"m 307 950 l 174 0 l 107 0 l 242 950 l 307 950 m 163 1292 l 240 1092 l 194 1071 l 99 1260 l 163 1292 m 331 1290 l 399 1097 l 353 1076 l 267 1260 l 331 1290 z "},"Ï":{"ha":385,"x_min":107,"x_max":476,"o":"m 307 950 l 174 0 l 107 0 l 242 950 l 307 950 m 172 1100 q 142 1111 154 1100 q 131 1140 131 1122 q 145 1177 131 1163 q 182 1192 160 1192 q 213 1181 201 1192 q 225 1151 225 1169 q 210 1115 225 1129 q 172 1100 194 1100 m 425 1100 q 394 1111 406 1100 q 382 1140 382 1122 q 397 1177 382 1163 q 433 1192 411 1192 q 465 1181 453 1192 q 476 1151 476 1169 q 462 1115 476 1129 q 425 1100 447 1100 z "},"Ḯ":{"ha":385,"x_min":107,"x_max":471,"o":"m 307 950 l 174 0 l 107 0 l 242 950 l 307 950 m 429 1328 l 471 1283 l 290 1122 l 261 1151 l 429 1328 m 156 1032 q 125 1044 138 1032 q 113 1074 113 1056 q 127 1110 113 1094 q 164 1125 142 1125 q 195 1113 183 1125 q 207 1083 207 1101 q 192 1047 207 1063 q 156 1032 178 1032 m 408 1032 q 377 1044 389 1032 q 365 1074 365 1056 q 380 1110 365 1094 q 417 1125 394 1125 q 447 1113 435 1125 q 460 1083 460 1101 q 445 1047 460 1063 q 408 1032 431 1032 z "},"İ":{"ha":385,"x_min":107,"x_max":356,"o":"m 307 950 l 174 0 l 107 0 l 242 950 l 307 950 m 303 1111 q 269 1123 282 1111 q 257 1154 257 1135 q 272 1193 257 1178 q 311 1208 288 1208 q 344 1197 332 1208 q 356 1165 356 1185 q 340 1126 356 1142 q 303 1111 325 1111 z "},"Ị":{"ha":385,"x_min":69,"x_max":307,"o":"m 307 950 l 174 0 l 107 0 l 242 950 l 307 950 m 122 -125 q 156 -137 143 -125 q 168 -168 168 -149 q 153 -207 168 -192 q 114 -222 138 -222 q 81 -210 93 -222 q 69 -179 69 -199 q 85 -140 69 -156 q 122 -125 100 -125 z "},"Ì":{"ha":385,"x_min":107,"x_max":439,"o":"m 307 950 l 174 0 l 107 0 l 242 950 l 307 950 m 201 1218 l 439 1093 l 415 1054 l 169 1158 l 201 1218 z "},"Ỉ":{"ha":385,"x_min":107,"x_max":446,"o":"m 307 950 l 174 0 l 107 0 l 242 950 l 307 950 m 276 1176 q 354 1197 324 1179 q 385 1251 385 1214 q 326 1301 385 1301 q 285 1297 301 1301 q 243 1281 268 1292 l 226 1324 q 333 1351 275 1351 q 416 1325 386 1351 q 446 1253 446 1299 q 415 1178 446 1207 q 329 1143 383 1150 l 321 1081 l 265 1081 l 276 1176 z "},"Ȋ":{"ha":385,"x_min":107,"x_max":464,"o":"m 307 950 l 174 0 l 107 0 l 242 950 l 307 950 m 122 1107 q 192 1209 140 1171 q 311 1247 243 1247 q 421 1208 379 1247 q 464 1103 463 1168 l 418 1097 q 308 1193 403 1193 q 222 1167 258 1193 q 165 1093 185 1142 l 122 1107 z "},"Ī":{"ha":385,"x_min":107,"x_max":465,"o":"m 307 950 l 174 0 l 107 0 l 242 950 l 307 950 m 457 1118 l 139 1118 l 149 1172 l 465 1172 l 457 1118 z "},"Į":{"ha":385,"x_min":-90,"x_max":307,"o":"m 307 950 l 174 0 l 167 0 q 19 -83 65 -43 q -28 -172 -28 -122 q 53 -239 -28 -239 q 132 -231 86 -239 l 121 -287 q 44 -296 79 -296 q -56 -266 -21 -296 q -90 -189 -90 -236 q -44 -74 -90 -122 q 108 14 3 -26 l 242 950 l 307 950 z "},"Ɩ":{"ha":451,"x_min":114,"x_max":394,"o":"m 394 29 q 256 -15 331 -15 q 152 21 190 -15 q 114 126 114 57 q 117 165 114 138 l 132 267 l 228 950 l 294 950 l 197 267 l 183 160 q 181 126 181 135 q 258 42 181 42 q 317 50 292 42 q 369 75 342 58 l 394 29 z "},"Ɨ":{"ha":440,"x_min":57,"x_max":424,"o":"m 424 529 l 415 471 l 274 471 l 207 0 l 140 0 l 207 471 l 57 471 l 65 529 l 215 529 l 275 950 l 340 950 l 281 529 l 424 529 z "},"Ĩ":{"ha":385,"x_min":101,"x_max":510,"o":"m 307 950 l 174 0 l 107 0 l 242 950 l 307 950 m 385 1106 q 338 1115 358 1106 q 290 1140 318 1124 q 256 1160 271 1154 q 226 1167 242 1167 q 183 1155 200 1167 q 139 1111 165 1143 l 101 1138 q 226 1221 163 1221 q 269 1213 250 1221 q 314 1188 288 1204 q 351 1166 335 1174 q 383 1158 367 1158 q 426 1173 406 1158 q 471 1219 446 1188 l 510 1196 q 385 1106 453 1106 z "},"J":{"ha":396,"x_min":-46,"x_max":326,"o":"m 211 124 q 174 -6 199 43 q 101 -90 149 -56 q -31 -157 54 -124 l -46 -107 q 60 -47 22 -76 q 117 24 97 -18 q 144 132 136 65 l 260 950 l 326 950 l 211 124 z "},"Ĵ":{"ha":396,"x_min":-46,"x_max":497,"o":"m 211 124 q 174 -6 199 43 q 101 -90 149 -56 q -31 -157 54 -124 l -46 -107 q 60 -47 22 -76 q 117 24 97 -18 q 144 132 136 65 l 260 950 l 326 950 l 211 124 m 135 1060 l 108 1096 l 303 1232 l 340 1232 l 497 1094 l 467 1060 l 317 1171 l 135 1060 z "},"Ʝ":{"ha":419,"x_min":-179,"x_max":343,"o":"m 206 -29 q 342 -79 272 -44 l 319 -119 q 197 -76 260 -93 q -28 -282 157 -282 q -140 -247 -100 -282 q -179 -156 -179 -212 q -123 -48 -179 -89 q 22 -7 -67 -7 q 140 -17 89 -7 l 278 950 l 343 950 l 206 -29 m -25 -231 q 82 -190 46 -231 q 133 -64 118 -149 q 22 -56 86 -56 q -84 -82 -47 -56 q -121 -154 -121 -108 q -97 -210 -121 -190 q -25 -231 -72 -231 z "},"Ɉ":{"ha":414,"x_min":-43,"x_max":411,"o":"m 403 447 l 260 447 l 214 124 q 176 -6 201 43 q 104 -90 151 -56 q -28 -157 57 -124 l -43 -107 q 63 -47 25 -76 q 119 24 100 -18 q 147 132 139 65 l 192 447 l 44 447 l 53 506 l 200 506 l 263 950 l 329 950 l 267 506 l 411 506 l 403 447 z "},"K":{"ha":738,"x_min":107,"x_max":797,"o":"m 107 0 l 242 950 l 308 950 l 174 0 l 107 0 m 608 0 l 251 510 l 717 950 l 797 950 l 328 507 l 686 0 l 608 0 z "},"Ǩ":{"ha":738,"x_min":107,"x_max":797,"o":"m 107 0 l 242 950 l 308 950 l 174 0 l 107 0 m 608 0 l 251 510 l 717 950 l 797 950 l 328 507 l 686 0 l 608 0 m 697 1222 l 725 1188 l 531 1051 l 492 1051 l 333 1188 l 365 1221 l 518 1113 l 697 1222 z "},"Ķ":{"ha":738,"x_min":107,"x_max":797,"o":"m 107 0 l 242 950 l 308 950 l 174 0 l 107 0 m 608 0 l 251 510 l 717 950 l 797 950 l 328 507 l 686 0 l 608 0 m 358 -121 q 394 -135 381 -121 q 408 -169 408 -149 q 401 -205 408 -187 q 368 -262 393 -222 l 297 -379 l 256 -379 l 325 -221 q 306 -202 313 -214 q 300 -178 300 -190 q 316 -137 300 -154 q 358 -121 332 -121 z "},"Ƙ":{"ha":788,"x_min":107,"x_max":864,"o":"m 251 510 l 564 860 q 655 942 617 919 q 743 964 693 964 q 810 949 782 964 q 864 908 839 935 l 826 871 q 787 899 804 890 q 743 908 769 908 q 684 892 711 908 q 607 819 657 875 l 328 510 l 686 0 l 606 0 l 251 510 m 107 0 l 242 950 l 308 950 l 174 0 l 107 0 z "},"L":{"ha":646,"x_min":107,"x_max":581,"o":"m 307 950 l 183 61 l 581 61 l 563 0 l 107 0 l 242 950 l 307 950 z "},"Ǉ":{"ha":1019,"x_min":107,"x_max":950,"o":"m 307 950 l 183 61 l 581 61 l 563 0 l 107 0 l 242 950 l 307 950 m 835 124 q 797 -6 822 43 q 725 -90 772 -56 q 593 -157 678 -124 l 578 -107 q 683 -47 646 -76 q 740 24 721 -18 q 768 132 760 65 l 883 950 l 950 950 l 835 124 z "},"Ĺ":{"ha":646,"x_min":107,"x_max":581,"o":"m 307 950 l 183 61 l 581 61 l 563 0 l 107 0 l 242 950 l 307 950 m 410 1219 l 432 1158 l 153 1054 l 138 1093 l 410 1219 z "},"Ƚ":{"ha":672,"x_min":58,"x_max":607,"o":"m 210 61 l 607 61 l 589 0 l 133 0 l 201 475 l 58 475 l 67 533 l 208 533 l 268 950 l 333 950 l 275 533 l 425 533 l 417 475 l 267 475 l 210 61 z "},"Ɬ":{"ha":694,"x_min":50,"x_max":629,"o":"m 629 61 l 611 0 l 156 0 l 210 378 q 92 410 133 379 q 50 501 50 442 q 92 598 50 563 q 200 633 135 633 q 244 631 222 633 l 290 950 l 356 950 l 283 429 q 446 447 353 431 l 446 397 q 276 378 361 382 l 232 61 l 629 61 m 108 501 q 135 447 108 464 q 217 429 161 429 l 238 581 q 200 583 218 583 q 133 562 157 583 q 108 501 108 540 z "},"Ľ":{"ha":646,"x_min":107,"x_max":581,"o":"m 307 950 l 183 61 l 581 61 l 563 0 l 107 0 l 242 950 l 307 950 m 435 957 l 499 949 l 421 731 l 381 738 l 435 957 z "},"Ḽ":{"ha":646,"x_min":106,"x_max":581,"o":"m 307 950 l 183 61 l 581 61 l 563 0 l 107 0 l 242 950 l 307 950 m 135 -276 l 106 -242 l 301 -97 l 340 -97 l 496 -242 l 465 -276 l 314 -158 l 135 -276 z "},"Ļ":{"ha":646,"x_min":107,"x_max":581,"o":"m 307 950 l 183 61 l 581 61 l 563 0 l 107 0 l 242 950 l 307 950 m 324 -121 q 360 -135 346 -121 q 374 -169 374 -149 q 366 -205 374 -187 q 333 -262 358 -222 l 263 -379 l 221 -379 l 290 -221 q 272 -202 278 -214 q 265 -178 265 -190 q 281 -137 265 -154 q 324 -121 297 -121 z "},"Ŀ":{"ha":646,"x_min":107,"x_max":581,"o":"m 307 950 l 183 61 l 581 61 l 563 0 l 107 0 l 242 950 l 307 950 m 515 454 q 482 466 494 454 q 469 497 469 478 q 485 536 469 521 q 524 551 500 551 q 556 540 544 551 q 568 508 568 528 q 553 469 568 485 q 515 454 538 454 z "},"Ḷ":{"ha":646,"x_min":107,"x_max":581,"o":"m 307 950 l 183 61 l 581 61 l 563 0 l 107 0 l 242 950 l 307 950 m 317 -125 q 350 -137 338 -125 q 363 -168 363 -149 q 347 -207 363 -192 q 308 -222 332 -222 q 276 -210 288 -222 q 264 -179 264 -199 q 279 -140 264 -156 q 317 -125 294 -125 z "},"ǈ":{"ha":994,"x_min":107,"x_max":947,"o":"m 307 950 l 183 61 l 581 61 l 563 0 l 107 0 l 242 950 l 307 950 m 554 -231 q 644 -176 611 -203 q 698 -103 676 -149 q 731 21 719 -57 l 829 725 l 893 725 l 793 18 q 754 -128 781 -75 q 687 -214 728 -182 q 572 -278 646 -246 l 554 -231 m 894 936 q 861 948 874 936 q 849 979 849 960 q 864 1018 849 1003 q 903 1033 879 1033 q 935 1022 924 1033 q 947 990 947 1010 q 932 951 947 967 q 894 936 917 936 z "},"Ł":{"ha":661,"x_min":56,"x_max":596,"o":"m 199 61 l 596 61 l 578 0 l 122 0 l 179 401 l 82 344 l 56 390 l 189 467 l 257 950 l 322 950 l 261 510 l 540 671 l 565 624 l 251 443 l 199 61 z "},"M":{"ha":1064,"x_min":49,"x_max":951,"o":"m 914 0 l 850 0 l 868 465 q 889 889 879 785 l 529 114 l 465 114 l 317 888 q 222 468 300 800 l 111 0 l 49 0 l 275 950 l 365 950 l 507 192 l 854 950 l 951 950 l 914 0 z "},"Ḿ":{"ha":1064,"x_min":49,"x_max":951,"o":"m 914 0 l 850 0 l 868 465 q 889 889 879 785 l 529 114 l 465 114 l 317 888 q 222 468 300 800 l 111 0 l 49 0 l 275 950 l 365 950 l 507 192 l 854 950 l 951 950 l 914 0 m 744 1219 l 767 1158 l 488 1054 l 472 1093 l 744 1219 z "},"Ṁ":{"ha":1064,"x_min":49,"x_max":951,"o":"m 914 0 l 850 0 l 868 465 q 889 889 879 785 l 529 114 l 465 114 l 317 888 q 222 468 300 800 l 111 0 l 49 0 l 275 950 l 365 950 l 507 192 l 854 950 l 951 950 l 914 0 m 638 1111 q 604 1123 617 1111 q 592 1154 592 1135 q 607 1193 592 1178 q 646 1208 622 1208 q 678 1197 667 1208 q 690 1165 690 1185 q 675 1126 690 1142 q 638 1111 660 1111 z "},"Ɯ":{"ha":1283,"x_min":126,"x_max":1207,"o":"m 1207 950 l 1074 0 l 1017 0 l 1029 133 q 910 24 976 64 q 769 -15 844 -15 q 644 26 692 -15 q 586 144 597 68 q 458 27 528 69 q 313 -15 389 -15 q 174 39 222 -15 q 126 192 126 93 q 131 256 126 222 l 228 950 l 293 950 l 194 247 q 190 193 190 218 q 223 81 190 119 q 319 43 256 43 q 461 88 397 43 q 583 215 525 133 l 588 256 l 685 950 l 750 950 l 651 247 q 647 193 647 218 q 681 81 647 119 q 778 43 714 43 q 1038 213 919 43 l 1142 950 l 1207 950 z "},"N":{"ha":926,"x_min":107,"x_max":850,"o":"m 717 0 l 633 0 l 286 888 q 250 561 282 779 l 171 0 l 107 0 l 242 950 l 326 950 l 674 64 q 703 354 681 185 l 788 950 l 850 950 l 717 0 z "},"Ǌ":{"ha":1322,"x_min":107,"x_max":1253,"o":"m 717 0 l 633 0 l 286 888 q 250 561 282 779 l 171 0 l 107 0 l 242 950 l 326 950 l 674 64 q 703 354 681 185 l 788 950 l 850 950 l 717 0 m 1138 124 q 1100 -6 1125 43 q 1028 -90 1075 -56 q 896 -157 981 -124 l 881 -107 q 986 -47 949 -76 q 1043 24 1024 -18 q 1071 132 1063 65 l 1186 950 l 1253 950 l 1138 124 z "},"Ń":{"ha":926,"x_min":107,"x_max":850,"o":"m 717 0 l 633 0 l 286 888 q 250 561 282 779 l 171 0 l 107 0 l 242 950 l 326 950 l 674 64 q 703 354 681 185 l 788 950 l 850 950 l 717 0 m 692 1219 l 714 1158 l 435 1054 l 419 1093 l 692 1219 z "},"Ň":{"ha":926,"x_min":107,"x_max":850,"o":"m 717 0 l 633 0 l 286 888 q 250 561 282 779 l 171 0 l 107 0 l 242 950 l 326 950 l 674 64 q 703 354 681 185 l 788 950 l 850 950 l 717 0 m 757 1222 l 785 1188 l 590 1051 l 551 1051 l 393 1188 l 425 1221 l 578 1113 l 757 1222 z "},"Ṋ":{"ha":926,"x_min":107,"x_max":850,"o":"m 717 0 l 633 0 l 286 888 q 250 561 282 779 l 171 0 l 107 0 l 242 950 l 326 950 l 674 64 q 703 354 681 185 l 788 950 l 850 950 l 717 0 m 213 -276 l 183 -242 l 379 -97 l 418 -97 l 574 -242 l 543 -276 l 392 -158 l 213 -276 z "},"Ņ":{"ha":926,"x_min":107,"x_max":850,"o":"m 717 0 l 633 0 l 286 888 q 250 561 282 779 l 171 0 l 107 0 l 242 950 l 326 950 l 674 64 q 703 354 681 185 l 788 950 l 850 950 l 717 0 m 401 -121 q 438 -135 424 -121 q 451 -169 451 -149 q 444 -205 451 -187 q 411 -262 436 -222 l 340 -379 l 299 -379 l 368 -221 q 349 -202 356 -214 q 343 -178 343 -190 q 359 -137 343 -154 q 401 -121 375 -121 z "},"Ṅ":{"ha":926,"x_min":107,"x_max":850,"o":"m 717 0 l 633 0 l 286 888 q 250 561 282 779 l 171 0 l 107 0 l 242 950 l 326 950 l 674 64 q 703 354 681 185 l 788 950 l 850 950 l 717 0 m 585 1111 q 551 1123 564 1111 q 539 1154 539 1135 q 554 1193 539 1178 q 593 1208 569 1208 q 626 1197 614 1208 q 638 1165 638 1185 q 622 1126 638 1142 q 585 1111 607 1111 z "},"Ṇ":{"ha":926,"x_min":107,"x_max":850,"o":"m 717 0 l 633 0 l 286 888 q 250 561 282 779 l 171 0 l 107 0 l 242 950 l 326 950 l 674 64 q 703 354 681 185 l 788 950 l 850 950 l 717 0 m 394 -125 q 428 -137 415 -125 q 440 -168 440 -149 q 425 -207 440 -192 q 386 -222 410 -222 q 353 -210 365 -222 q 342 -179 342 -199 q 357 -140 342 -156 q 394 -125 372 -125 z "},"Ǹ":{"ha":926,"x_min":107,"x_max":850,"o":"m 717 0 l 633 0 l 286 888 q 250 561 282 779 l 171 0 l 107 0 l 242 950 l 326 950 l 674 64 q 703 354 681 185 l 788 950 l 850 950 l 717 0 m 483 1218 l 721 1093 l 697 1054 l 451 1158 l 483 1218 z "},"Ŋ":{"ha":926,"x_min":107,"x_max":850,"o":"m 850 950 l 717 0 l 701 -107 q 640 -238 689 -194 q 518 -282 590 -282 q 388 -235 447 -282 l 419 -193 q 463 -217 442 -208 q 517 -225 485 -225 q 594 -196 563 -225 q 635 -103 626 -167 l 650 0 l 633 0 l 286 888 q 250 561 282 779 l 171 0 l 107 0 l 242 950 l 326 950 l 674 64 q 703 354 681 185 l 788 950 l 850 950 z "},"Ɲ":{"ha":926,"x_min":-156,"x_max":850,"o":"m 850 950 l 717 0 l 633 0 l 286 888 q 250 561 282 779 l 171 0 l 156 -107 q 95 -238 143 -194 q -25 -282 47 -282 q -156 -235 -97 -282 l -124 -194 q -78 -219 -100 -211 q -25 -226 -57 -226 q 93 -103 75 -226 l 107 0 l 242 950 l 326 950 l 674 64 q 703 354 681 185 l 788 950 l 850 950 z "},"ǋ":{"ha":1296,"x_min":107,"x_max":1249,"o":"m 717 0 l 633 0 l 286 888 q 250 561 282 779 l 171 0 l 107 0 l 242 950 l 326 950 l 674 64 q 703 354 681 185 l 788 950 l 850 950 l 717 0 m 856 -231 q 945 -176 913 -203 q 999 -103 978 -149 q 1032 21 1021 -57 l 1131 725 l 1194 725 l 1094 18 q 1056 -128 1082 -75 q 988 -214 1029 -182 q 874 -278 947 -246 l 856 -231 m 1196 936 q 1163 948 1175 936 q 1150 979 1150 960 q 1165 1018 1150 1003 q 1204 1033 1181 1033 q 1237 1022 1225 1033 q 1249 990 1249 1010 q 1233 951 1249 967 q 1196 936 1218 936 z "},"Ƞ":{"ha":913,"x_min":107,"x_max":814,"o":"m 601 964 q 760 908 706 964 q 814 750 814 853 q 810 686 814 719 l 675 -271 l 610 -271 l 743 679 q 749 743 749 726 q 593 907 749 907 q 426 862 503 907 q 278 739 350 817 l 174 0 l 107 0 l 242 950 l 299 950 l 286 811 q 601 964 426 964 z "},"Ñ":{"ha":926,"x_min":107,"x_max":850,"o":"m 717 0 l 633 0 l 286 888 q 250 561 282 779 l 171 0 l 107 0 l 242 950 l 326 950 l 674 64 q 703 354 681 185 l 788 950 l 850 950 l 717 0 m 667 1106 q 620 1115 640 1106 q 572 1140 600 1124 q 538 1160 553 1154 q 508 1167 524 1167 q 465 1155 482 1167 q 421 1111 447 1143 l 383 1138 q 508 1221 444 1221 q 551 1213 532 1221 q 596 1188 569 1204 q 633 1166 617 1174 q 665 1158 649 1158 q 708 1173 688 1158 q 753 1219 728 1188 l 792 1196 q 667 1106 735 1106 z "},"O":{"ha":957,"x_min":104,"x_max":885,"o":"m 561 964 q 799 867 713 964 q 885 590 885 771 q 840 313 885 451 q 692 79 794 174 q 429 -15 589 -15 q 191 83 278 -15 q 104 363 104 182 q 151 635 104 497 q 300 869 197 774 q 561 964 403 964 m 558 907 q 335 820 422 907 q 210 607 249 733 q 172 360 172 481 q 241 123 172 203 q 431 43 310 43 q 658 131 571 43 q 781 344 744 218 q 817 593 817 471 q 749 828 817 750 q 558 907 682 907 z "},"Ȣ":{"ha":879,"x_min":82,"x_max":806,"o":"m 779 764 q 723 614 767 672 q 597 528 679 556 q 728 448 683 504 q 774 310 774 392 q 726 141 774 215 q 590 26 678 67 q 390 -15 503 -15 q 161 52 240 -15 q 82 232 82 119 q 149 422 82 344 q 333 529 217 500 q 244 597 274 553 q 215 713 215 642 q 219 768 215 739 l 244 950 l 311 950 l 285 767 q 281 713 281 738 q 326 593 281 632 q 465 554 371 554 q 642 612 585 554 q 714 771 700 669 l 739 950 l 806 950 l 779 764 m 704 308 q 463 497 704 497 q 235 425 319 497 q 150 232 150 353 q 210 92 150 142 q 392 43 269 43 q 621 114 538 43 q 704 308 704 185 z "},"Ó":{"ha":957,"x_min":104,"x_max":885,"o":"m 561 964 q 799 867 713 964 q 885 590 885 771 q 840 313 885 451 q 692 79 794 174 q 429 -15 589 -15 q 191 83 278 -15 q 104 363 104 182 q 151 635 104 497 q 300 869 197 774 q 561 964 403 964 m 558 907 q 335 820 422 907 q 210 607 249 733 q 172 360 172 481 q 241 123 172 203 q 431 43 310 43 q 658 131 571 43 q 781 344 744 218 q 817 593 817 471 q 749 828 817 750 q 558 907 682 907 m 697 1219 l 719 1158 l 440 1054 l 425 1093 l 697 1219 z "},"Ŏ":{"ha":957,"x_min":104,"x_max":885,"o":"m 561 964 q 799 867 713 964 q 885 590 885 771 q 840 313 885 451 q 692 79 794 174 q 429 -15 589 -15 q 191 83 278 -15 q 104 363 104 182 q 151 635 104 497 q 300 869 197 774 q 561 964 403 964 m 558 907 q 335 820 422 907 q 210 607 249 733 q 172 360 172 481 q 241 123 172 203 q 431 43 310 43 q 658 131 571 43 q 781 344 744 218 q 817 593 817 471 q 749 828 817 750 q 558 907 682 907 m 576 1065 q 467 1103 510 1065 q 421 1196 424 1140 l 465 1201 q 501 1142 472 1164 q 576 1121 531 1121 q 662 1144 625 1121 q 717 1206 699 1167 l 761 1192 q 693 1101 744 1136 q 576 1065 642 1065 z "},"Ǒ":{"ha":957,"x_min":104,"x_max":885,"o":"m 561 964 q 799 867 713 964 q 885 590 885 771 q 840 313 885 451 q 692 79 794 174 q 429 -15 589 -15 q 191 83 278 -15 q 104 363 104 182 q 151 635 104 497 q 300 869 197 774 q 561 964 403 964 m 558 907 q 335 820 422 907 q 210 607 249 733 q 172 360 172 481 q 241 123 172 203 q 431 43 310 43 q 658 131 571 43 q 781 344 744 218 q 817 593 817 471 q 749 828 817 750 q 558 907 682 907 m 763 1222 l 790 1188 l 596 1051 l 557 1051 l 399 1188 l 431 1221 l 583 1113 l 763 1222 z "},"Ɵ":{"ha":957,"x_min":104,"x_max":885,"o":"m 561 964 q 799 867 713 964 q 885 590 885 771 q 840 313 885 451 q 692 79 794 174 q 429 -15 589 -15 q 191 83 278 -15 q 104 363 104 182 q 151 635 104 497 q 300 869 197 774 q 561 964 403 964 m 558 907 q 309 793 400 907 q 186 513 218 679 l 813 513 q 817 593 817 554 q 749 828 817 750 q 558 907 682 907 m 431 43 q 689 164 599 43 q 807 458 779 285 l 178 458 q 172 360 172 413 q 240 123 172 203 q 431 43 308 43 z "},"Ô":{"ha":957,"x_min":104,"x_max":885,"o":"m 561 964 q 799 867 713 964 q 885 590 885 771 q 840 313 885 451 q 692 79 794 174 q 429 -15 589 -15 q 191 83 278 -15 q 104 363 104 182 q 151 635 104 497 q 300 869 197 774 q 561 964 403 964 m 558 907 q 335 820 422 907 q 210 607 249 733 q 172 360 172 481 q 241 123 172 203 q 431 43 310 43 q 658 131 571 43 q 781 344 744 218 q 817 593 817 471 q 749 828 817 750 q 558 907 682 907 m 407 1060 l 381 1096 l 575 1232 l 613 1232 l 769 1094 l 739 1060 l 589 1171 l 407 1060 z "},"Ố":{"ha":957,"x_min":104,"x_max":900,"o":"m 858 1360 l 900 1315 l 719 1154 l 690 1183 l 858 1360 m 406 1015 l 379 1051 l 574 1188 l 611 1188 l 768 1050 l 738 1015 l 588 1126 l 406 1015 m 561 964 q 799 867 713 964 q 885 590 885 771 q 840 313 885 451 q 692 79 794 174 q 429 -15 589 -15 q 191 83 278 -15 q 104 363 104 182 q 151 635 104 497 q 300 869 197 774 q 561 964 403 964 m 558 907 q 335 820 422 907 q 210 607 249 733 q 172 360 172 481 q 241 123 172 203 q 431 43 310 43 q 658 131 571 43 q 781 344 744 218 q 817 593 817 471 q 749 828 817 750 q 558 907 682 907 z "},"Ộ":{"ha":957,"x_min":104,"x_max":885,"o":"m 561 964 q 799 867 713 964 q 885 590 885 771 q 840 313 885 451 q 692 79 794 174 q 429 -15 589 -15 q 191 83 278 -15 q 104 363 104 182 q 151 635 104 497 q 300 869 197 774 q 561 964 403 964 m 558 907 q 335 820 422 907 q 210 607 249 733 q 172 360 172 481 q 241 123 172 203 q 431 43 310 43 q 658 131 571 43 q 781 344 744 218 q 817 593 817 471 q 749 828 817 750 q 558 907 682 907 m 407 1060 l 381 1096 l 575 1232 l 613 1232 l 769 1094 l 739 1060 l 589 1171 l 407 1060 m 408 -125 q 442 -137 429 -125 q 454 -168 454 -149 q 439 -207 454 -192 q 400 -222 424 -222 q 367 -210 379 -222 q 356 -179 356 -199 q 371 -140 356 -156 q 408 -125 386 -125 z "},"Ồ":{"ha":957,"x_min":104,"x_max":885,"o":"m 353 1360 l 472 1179 l 440 1154 l 303 1319 l 353 1360 m 401 1015 l 375 1051 l 569 1188 l 607 1188 l 764 1050 l 733 1015 l 583 1126 l 401 1015 m 561 964 q 799 867 713 964 q 885 590 885 771 q 840 313 885 451 q 692 79 794 174 q 429 -15 589 -15 q 191 83 278 -15 q 104 363 104 182 q 151 635 104 497 q 300 869 197 774 q 561 964 403 964 m 558 907 q 335 820 422 907 q 210 607 249 733 q 172 360 172 481 q 241 123 172 203 q 431 43 310 43 q 658 131 571 43 q 781 344 744 218 q 817 593 817 471 q 749 828 817 750 q 558 907 682 907 z "},"Ổ":{"ha":957,"x_min":104,"x_max":896,"o":"m 561 964 q 799 867 713 964 q 885 590 885 771 q 840 313 885 451 q 692 79 794 174 q 429 -15 589 -15 q 191 83 278 -15 q 104 363 104 182 q 151 635 104 497 q 300 869 197 774 q 561 964 403 964 m 558 907 q 335 820 422 907 q 210 607 249 733 q 172 360 172 481 q 241 123 172 203 q 431 43 310 43 q 658 131 571 43 q 781 344 744 218 q 817 593 817 471 q 749 828 817 750 q 558 907 682 907 m 403 1015 l 376 1051 l 571 1188 l 608 1188 l 765 1050 l 735 1015 l 585 1126 l 403 1015 m 726 1224 q 804 1244 774 1226 q 835 1299 835 1261 q 776 1349 835 1349 q 735 1344 751 1349 q 693 1328 718 1339 l 676 1371 q 783 1399 725 1399 q 866 1372 836 1399 q 896 1300 896 1346 q 865 1226 896 1254 q 779 1190 833 1197 l 771 1128 l 715 1128 l 726 1224 z "},"Ỗ":{"ha":957,"x_min":104,"x_max":885,"o":"m 681 1233 q 634 1242 654 1233 q 586 1268 614 1251 q 552 1288 567 1282 q 522 1294 538 1294 q 478 1283 496 1294 q 435 1239 461 1271 l 397 1265 q 522 1349 458 1349 q 565 1340 546 1349 q 610 1315 583 1332 q 647 1294 631 1301 q 679 1286 663 1286 q 722 1301 701 1286 q 767 1347 742 1315 l 806 1324 q 681 1233 749 1233 m 400 1015 l 374 1051 l 568 1188 l 606 1188 l 763 1050 l 732 1015 l 582 1126 l 400 1015 m 561 964 q 799 867 713 964 q 885 590 885 771 q 840 313 885 451 q 692 79 794 174 q 429 -15 589 -15 q 191 83 278 -15 q 104 363 104 182 q 151 635 104 497 q 300 869 197 774 q 561 964 403 964 m 558 907 q 335 820 422 907 q 210 607 249 733 q 172 360 172 481 q 241 123 172 203 q 431 43 310 43 q 658 131 571 43 q 781 344 744 218 q 817 593 817 471 q 749 828 817 750 q 558 907 682 907 z "},"Ȍ":{"ha":957,"x_min":104,"x_max":885,"o":"m 561 964 q 799 867 713 964 q 885 590 885 771 q 840 313 885 451 q 692 79 794 174 q 429 -15 589 -15 q 191 83 278 -15 q 104 363 104 182 q 151 635 104 497 q 300 869 197 774 q 561 964 403 964 m 558 907 q 335 820 422 907 q 210 607 249 733 q 172 360 172 481 q 241 123 172 203 q 431 43 310 43 q 658 131 571 43 q 781 344 744 218 q 817 593 817 471 q 749 828 817 750 q 558 907 682 907 m 450 1292 l 528 1092 l 482 1071 l 386 1260 l 450 1292 m 618 1290 l 686 1097 l 640 1076 l 554 1260 l 618 1290 z "},"Ö":{"ha":957,"x_min":104,"x_max":885,"o":"m 561 964 q 799 867 713 964 q 885 590 885 771 q 840 313 885 451 q 692 79 794 174 q 429 -15 589 -15 q 191 83 278 -15 q 104 363 104 182 q 151 635 104 497 q 300 869 197 774 q 561 964 403 964 m 558 907 q 335 820 422 907 q 210 607 249 733 q 172 360 172 481 q 241 123 172 203 q 431 43 310 43 q 658 131 571 43 q 781 344 744 218 q 817 593 817 471 q 749 828 817 750 q 558 907 682 907 m 460 1100 q 430 1111 442 1100 q 418 1140 418 1122 q 433 1177 418 1163 q 469 1192 447 1192 q 501 1181 489 1192 q 513 1151 513 1169 q 497 1115 513 1129 q 460 1100 482 1100 m 713 1100 q 681 1111 693 1100 q 669 1140 669 1122 q 684 1177 669 1163 q 721 1192 699 1192 q 752 1181 740 1192 q 764 1151 764 1169 q 749 1115 764 1129 q 713 1100 735 1100 z "},"Ȫ":{"ha":957,"x_min":104,"x_max":885,"o":"m 561 964 q 799 867 713 964 q 885 590 885 771 q 840 313 885 451 q 692 79 794 174 q 429 -15 589 -15 q 191 83 278 -15 q 104 363 104 182 q 151 635 104 497 q 300 869 197 774 q 561 964 403 964 m 558 907 q 335 820 422 907 q 210 607 249 733 q 172 360 172 481 q 241 123 172 203 q 431 43 310 43 q 658 131 571 43 q 781 344 744 218 q 817 593 817 471 q 749 828 817 750 q 558 907 682 907 m 444 1032 q 415 1043 426 1032 q 403 1072 403 1054 q 417 1109 403 1094 q 454 1124 432 1124 q 485 1113 474 1124 q 497 1083 497 1101 q 482 1047 497 1061 q 444 1032 467 1032 m 697 1032 q 666 1043 678 1032 q 654 1072 654 1054 q 669 1109 654 1094 q 706 1124 683 1124 q 737 1113 725 1124 q 749 1083 749 1101 q 734 1047 749 1061 q 697 1032 719 1032 m 747 1207 l 429 1207 l 439 1261 l 756 1261 l 747 1207 z "},"Ȯ":{"ha":957,"x_min":104,"x_max":885,"o":"m 561 964 q 799 867 713 964 q 885 590 885 771 q 840 313 885 451 q 692 79 794 174 q 429 -15 589 -15 q 191 83 278 -15 q 104 363 104 182 q 151 635 104 497 q 300 869 197 774 q 561 964 403 964 m 558 907 q 335 820 422 907 q 210 607 249 733 q 172 360 172 481 q 241 123 172 203 q 431 43 310 43 q 658 131 571 43 q 781 344 744 218 q 817 593 817 471 q 749 828 817 750 q 558 907 682 907 m 590 1111 q 557 1123 569 1111 q 544 1154 544 1135 q 560 1193 544 1178 q 599 1208 575 1208 q 631 1197 619 1208 q 643 1165 643 1185 q 628 1126 643 1142 q 590 1111 613 1111 z "},"Ȱ":{"ha":957,"x_min":104,"x_max":885,"o":"m 561 964 q 799 867 713 964 q 885 590 885 771 q 840 313 885 451 q 692 79 794 174 q 429 -15 589 -15 q 191 83 278 -15 q 104 363 104 182 q 151 635 104 497 q 300 869 197 774 q 561 964 403 964 m 558 907 q 335 820 422 907 q 210 607 249 733 q 172 360 172 481 q 241 123 172 203 q 431 43 310 43 q 658 131 571 43 q 781 344 744 218 q 817 593 817 471 q 749 828 817 750 q 558 907 682 907 m 572 1032 q 539 1044 551 1032 q 526 1075 526 1056 q 542 1114 526 1099 q 581 1129 557 1129 q 613 1117 601 1129 q 625 1086 625 1106 q 610 1047 625 1063 q 572 1032 594 1032 m 749 1207 l 431 1207 l 440 1261 l 757 1261 l 749 1207 z "},"Ọ":{"ha":957,"x_min":104,"x_max":885,"o":"m 561 964 q 799 867 713 964 q 885 590 885 771 q 840 313 885 451 q 692 79 794 174 q 429 -15 589 -15 q 191 83 278 -15 q 104 363 104 182 q 151 635 104 497 q 300 869 197 774 q 561 964 403 964 m 558 907 q 335 820 422 907 q 210 607 249 733 q 172 360 172 481 q 241 123 172 203 q 431 43 310 43 q 658 131 571 43 q 781 344 744 218 q 817 593 817 471 q 749 828 817 750 q 558 907 682 907 m 408 -125 q 442 -137 429 -125 q 454 -168 454 -149 q 439 -207 454 -192 q 400 -222 424 -222 q 367 -210 379 -222 q 356 -179 356 -199 q 371 -140 356 -156 q 408 -125 386 -125 z "},"Ò":{"ha":957,"x_min":104,"x_max":885,"o":"m 561 964 q 799 867 713 964 q 885 590 885 771 q 840 313 885 451 q 692 79 794 174 q 429 -15 589 -15 q 191 83 278 -15 q 104 363 104 182 q 151 635 104 497 q 300 869 197 774 q 561 964 403 964 m 558 907 q 335 820 422 907 q 210 607 249 733 q 172 360 172 481 q 241 123 172 203 q 431 43 310 43 q 658 131 571 43 q 781 344 744 218 q 817 593 817 471 q 749 828 817 750 q 558 907 682 907 m 489 1218 l 726 1093 l 703 1054 l 457 1158 l 489 1218 z "},"Ỏ":{"ha":957,"x_min":104,"x_max":885,"o":"m 561 964 q 799 867 713 964 q 885 590 885 771 q 840 313 885 451 q 692 79 794 174 q 429 -15 589 -15 q 191 83 278 -15 q 104 363 104 182 q 151 635 104 497 q 300 869 197 774 q 561 964 403 964 m 558 907 q 335 820 422 907 q 210 607 249 733 q 172 360 172 481 q 241 123 172 203 q 431 43 310 43 q 658 131 571 43 q 781 344 744 218 q 817 593 817 471 q 749 828 817 750 q 558 907 682 907 m 564 1176 q 642 1197 611 1179 q 672 1251 672 1214 q 614 1301 672 1301 q 572 1297 589 1301 q 531 1281 556 1292 l 514 1324 q 621 1351 563 1351 q 703 1325 674 1351 q 733 1253 733 1299 q 702 1178 733 1207 q 617 1143 671 1150 l 608 1081 l 553 1081 l 564 1176 z "},"Ơ":{"ha":957,"x_min":104,"x_max":949,"o":"m 949 985 q 918 885 949 922 q 824 833 888 847 q 885 590 885 743 q 840 313 885 451 q 692 79 794 174 q 429 -15 589 -15 q 191 83 278 -15 q 104 363 104 182 q 151 635 104 497 q 300 869 197 774 q 561 964 403 964 q 793 874 710 964 q 872 910 849 882 q 894 986 894 938 q 883 1054 894 1025 l 935 1065 q 949 985 949 1029 m 431 43 q 658 131 571 43 q 781 344 744 218 q 817 593 817 471 q 749 828 817 750 q 558 907 682 907 q 335 820 422 907 q 210 607 249 733 q 172 360 172 481 q 241 123 172 203 q 431 43 310 43 z "},"Ớ":{"ha":957,"x_min":104,"x_max":949,"o":"m 719 1158 l 440 1054 l 425 1093 l 697 1219 l 719 1158 m 949 985 q 918 885 949 922 q 824 833 888 847 q 885 590 885 743 q 840 313 885 451 q 692 79 794 174 q 429 -15 589 -15 q 191 83 278 -15 q 104 363 104 182 q 151 635 104 497 q 300 869 197 774 q 561 964 403 964 q 793 874 710 964 q 872 910 849 882 q 894 986 894 938 q 883 1054 894 1025 l 935 1065 q 949 985 949 1029 m 431 43 q 658 131 571 43 q 781 344 744 218 q 817 593 817 471 q 749 828 817 750 q 558 907 682 907 q 335 820 422 907 q 210 607 249 733 q 172 360 172 481 q 241 123 172 203 q 431 43 310 43 z "},"Ợ":{"ha":957,"x_min":104,"x_max":949,"o":"m 949 985 q 918 885 949 922 q 824 833 888 847 q 885 590 885 743 q 840 313 885 451 q 692 79 794 174 q 429 -15 589 -15 q 191 83 278 -15 q 104 363 104 182 q 151 635 104 497 q 300 869 197 774 q 561 964 403 964 q 793 874 710 964 q 872 910 849 882 q 894 986 894 938 q 883 1054 894 1025 l 935 1065 q 949 985 949 1029 m 431 43 q 658 131 571 43 q 781 344 744 218 q 817 593 817 471 q 749 828 817 750 q 558 907 682 907 q 335 820 422 907 q 210 607 249 733 q 172 360 172 481 q 241 123 172 203 q 431 43 310 43 m 408 -125 q 442 -137 429 -125 q 454 -168 454 -149 q 439 -207 454 -192 q 400 -222 424 -222 q 367 -210 379 -222 q 356 -179 356 -199 q 371 -140 356 -156 q 408 -125 386 -125 z "},"Ờ":{"ha":957,"x_min":104,"x_max":949,"o":"m 726 1093 l 703 1054 l 457 1158 l 489 1218 l 726 1093 m 949 985 q 918 885 949 922 q 824 833 888 847 q 885 590 885 743 q 840 313 885 451 q 692 79 794 174 q 429 -15 589 -15 q 191 83 278 -15 q 104 363 104 182 q 151 635 104 497 q 300 869 197 774 q 561 964 403 964 q 793 874 710 964 q 872 910 849 882 q 894 986 894 938 q 883 1054 894 1025 l 935 1065 q 949 985 949 1029 m 431 43 q 658 131 571 43 q 781 344 744 218 q 817 593 817 471 q 749 828 817 750 q 558 907 682 907 q 335 820 422 907 q 210 607 249 733 q 172 360 172 481 q 241 123 172 203 q 431 43 310 43 z "},"Ở":{"ha":957,"x_min":104,"x_max":949,"o":"m 614 1301 q 572 1297 589 1301 q 531 1281 556 1292 l 514 1324 q 621 1351 563 1351 q 703 1325 674 1351 q 733 1253 733 1299 q 702 1178 733 1207 q 617 1143 671 1150 l 608 1081 l 553 1081 l 564 1176 q 642 1197 611 1179 q 672 1251 672 1214 q 614 1301 672 1301 m 949 985 q 918 885 949 922 q 824 833 888 847 q 885 590 885 743 q 840 313 885 451 q 692 79 794 174 q 429 -15 589 -15 q 191 83 278 -15 q 104 363 104 182 q 151 635 104 497 q 300 869 197 774 q 561 964 403 964 q 793 874 710 964 q 872 910 849 882 q 894 986 894 938 q 883 1054 894 1025 l 935 1065 q 949 985 949 1029 m 431 43 q 658 131 571 43 q 781 344 744 218 q 817 593 817 471 q 749 828 817 750 q 558 907 682 907 q 335 820 422 907 q 210 607 249 733 q 172 360 172 481 q 241 123 172 203 q 431 43 310 43 z "},"Ỡ":{"ha":957,"x_min":104,"x_max":949,"o":"m 514 1167 q 470 1155 488 1167 q 426 1111 453 1143 l 389 1138 q 514 1221 450 1221 q 556 1213 538 1221 q 601 1188 575 1204 q 638 1166 622 1174 q 671 1158 654 1158 q 713 1173 693 1158 q 758 1219 733 1188 l 797 1196 q 672 1106 740 1106 q 626 1115 646 1106 q 578 1140 606 1124 q 544 1160 558 1154 q 514 1167 529 1167 m 949 985 q 918 885 949 922 q 824 833 888 847 q 885 590 885 743 q 840 313 885 451 q 692 79 794 174 q 429 -15 589 -15 q 191 83 278 -15 q 104 363 104 182 q 151 635 104 497 q 300 869 197 774 q 561 964 403 964 q 793 874 710 964 q 872 910 849 882 q 894 986 894 938 q 883 1054 894 1025 l 935 1065 q 949 985 949 1029 m 431 43 q 658 131 571 43 q 781 344 744 218 q 817 593 817 471 q 749 828 817 750 q 558 907 682 907 q 335 820 422 907 q 210 607 249 733 q 172 360 172 481 q 241 123 172 203 q 431 43 310 43 z "},"Ő":{"ha":957,"x_min":104,"x_max":885,"o":"m 561 964 q 799 867 713 964 q 885 590 885 771 q 840 313 885 451 q 692 79 794 174 q 429 -15 589 -15 q 191 83 278 -15 q 104 363 104 182 q 151 635 104 497 q 300 869 197 774 q 561 964 403 964 m 558 907 q 335 820 422 907 q 210 607 249 733 q 172 360 172 481 q 241 123 172 203 q 431 43 310 43 q 658 131 571 43 q 781 344 744 218 q 817 593 817 471 q 749 828 817 750 q 558 907 682 907 m 763 1292 l 818 1260 l 671 1071 l 629 1092 l 763 1292 m 594 1290 l 650 1260 l 513 1076 l 472 1097 l 594 1290 z "},"Ƣ":{"ha":1240,"x_min":104,"x_max":1142,"o":"m 975 965 q 1100 925 1058 965 q 1142 813 1142 885 q 1139 771 1142 799 l 993 -271 l 926 -271 l 1072 771 q 1075 814 1075 786 q 1051 888 1075 864 q 972 911 1026 911 q 888 899 928 911 q 803 863 847 886 q 885 590 885 765 q 840 313 885 451 q 692 79 794 174 q 429 -15 589 -15 q 191 83 278 -15 q 104 363 104 182 q 151 635 104 497 q 300 869 197 774 q 561 964 403 964 q 765 899 685 964 q 975 965 876 965 m 431 43 q 658 131 571 43 q 781 344 744 218 q 817 593 817 471 q 749 828 817 750 q 558 907 682 907 q 335 820 422 907 q 210 607 249 733 q 172 360 172 481 q 241 123 172 203 q 431 43 310 43 z "},"Ȏ":{"ha":957,"x_min":104,"x_max":885,"o":"m 561 964 q 799 867 713 964 q 885 590 885 771 q 840 313 885 451 q 692 79 794 174 q 429 -15 589 -15 q 191 83 278 -15 q 104 363 104 182 q 151 635 104 497 q 300 869 197 774 q 561 964 403 964 m 558 907 q 335 820 422 907 q 210 607 249 733 q 172 360 172 481 q 241 123 172 203 q 431 43 310 43 q 658 131 571 43 q 781 344 744 218 q 817 593 817 471 q 749 828 817 750 q 558 907 682 907 m 410 1107 q 479 1209 428 1171 q 599 1247 531 1247 q 708 1208 667 1247 q 751 1103 750 1168 l 706 1097 q 596 1193 690 1193 q 509 1167 546 1193 q 453 1093 472 1142 l 410 1107 z "},"Ō":{"ha":957,"x_min":104,"x_max":885,"o":"m 561 964 q 799 867 713 964 q 885 590 885 771 q 840 313 885 451 q 692 79 794 174 q 429 -15 589 -15 q 191 83 278 -15 q 104 363 104 182 q 151 635 104 497 q 300 869 197 774 q 561 964 403 964 m 558 907 q 335 820 422 907 q 210 607 249 733 q 172 360 172 481 q 241 123 172 203 q 431 43 310 43 q 658 131 571 43 q 781 344 744 218 q 817 593 817 471 q 749 828 817 750 q 558 907 682 907 m 744 1118 l 426 1118 l 436 1172 l 753 1172 l 744 1118 z "},"Ṓ":{"ha":957,"x_min":104,"x_max":885,"o":"m 561 964 q 799 867 713 964 q 885 590 885 771 q 840 313 885 451 q 692 79 794 174 q 429 -15 589 -15 q 191 83 278 -15 q 104 363 104 182 q 151 635 104 497 q 300 869 197 774 q 561 964 403 964 m 558 907 q 335 820 422 907 q 210 607 249 733 q 172 360 172 481 q 241 123 172 203 q 431 43 310 43 q 658 131 571 43 q 781 344 744 218 q 817 593 817 471 q 749 828 817 750 q 558 907 682 907 m 738 1061 l 419 1061 l 429 1115 l 746 1115 l 738 1061 m 726 1347 l 749 1286 l 469 1182 l 454 1221 l 726 1347 z "},"Ṑ":{"ha":957,"x_min":104,"x_max":885,"o":"m 561 964 q 799 867 713 964 q 885 590 885 771 q 840 313 885 451 q 692 79 794 174 q 429 -15 589 -15 q 191 83 278 -15 q 104 363 104 182 q 151 635 104 497 q 300 869 197 774 q 561 964 403 964 m 558 907 q 335 820 422 907 q 210 607 249 733 q 172 360 172 481 q 241 123 172 203 q 431 43 310 43 q 658 131 571 43 q 781 344 744 218 q 817 593 817 471 q 749 828 817 750 q 558 907 682 907 m 738 1061 l 419 1061 l 429 1115 l 746 1115 l 738 1061 m 503 1346 l 740 1221 l 717 1182 l 471 1286 l 503 1346 z "},"Ꞷ":{"ha":1165,"x_min":100,"x_max":1083,"o":"m 324 -15 q 157 52 214 -15 q 100 265 100 119 q 150 601 100 433 q 292 950 200 768 l 360 950 q 167 263 167 575 q 208 92 167 142 q 326 43 249 43 q 463 97 408 43 q 536 281 518 150 l 574 551 l 642 551 l 603 275 q 597 197 597 238 q 630 83 597 122 q 738 43 663 43 q 955 213 893 43 q 1017 624 1017 382 q 1006 777 1017 701 q 975 950 996 853 l 1040 950 q 1073 778 1063 850 q 1083 622 1083 706 q 1006 167 1083 349 q 739 -15 928 -15 q 606 26 651 -15 q 553 154 561 68 q 462 26 517 67 q 324 -15 407 -15 z "},"Ǫ":{"ha":957,"x_min":104,"x_max":885,"o":"m 533 -3 q 390 -83 435 -44 q 346 -172 346 -122 q 426 -239 346 -239 q 506 -231 460 -239 l 494 -287 q 418 -296 453 -296 q 318 -266 353 -296 q 283 -189 283 -236 q 315 -92 283 -133 q 417 -15 347 -50 q 188 88 271 -11 q 104 363 104 186 q 151 635 104 497 q 300 869 197 774 q 561 964 403 964 q 799 867 713 964 q 885 590 885 771 q 849 344 885 468 q 735 124 814 219 q 533 -3 657 28 m 172 360 q 241 123 172 203 q 431 43 310 43 q 658 131 571 43 q 781 344 744 218 q 817 593 817 471 q 749 828 817 750 q 558 907 682 907 q 335 820 422 907 q 210 607 249 733 q 172 360 172 481 z "},"Ǭ":{"ha":957,"x_min":104,"x_max":885,"o":"m 753 1172 l 744 1118 l 426 1118 l 436 1172 l 753 1172 m 533 -3 q 390 -83 435 -44 q 346 -172 346 -122 q 426 -239 346 -239 q 506 -231 460 -239 l 494 -287 q 418 -296 453 -296 q 318 -266 353 -296 q 283 -189 283 -236 q 315 -92 283 -133 q 417 -15 347 -50 q 188 88 271 -11 q 104 363 104 186 q 151 635 104 497 q 300 869 197 774 q 561 964 403 964 q 799 867 713 964 q 885 590 885 771 q 849 344 885 468 q 735 124 814 219 q 533 -3 657 28 m 172 360 q 241 123 172 203 q 431 43 310 43 q 658 131 571 43 q 781 344 744 218 q 817 593 817 471 q 749 828 817 750 q 558 907 682 907 q 335 820 422 907 q 210 607 249 733 q 172 360 172 481 z "},"Ɔ":{"ha":756,"x_min":-8,"x_max":683,"o":"m 383 964 q 601 869 519 964 q 682 593 682 774 q 631 297 683 436 q 476 71 578 157 q 238 -15 375 -15 q 101 10 157 -15 q -8 82 44 36 l 31 125 q 124 65 81 85 q 236 46 168 46 q 442 125 356 46 q 572 330 528 204 q 615 593 615 456 q 551 830 615 753 q 378 907 486 907 q 257 890 310 907 q 146 835 204 872 l 113 881 q 237 943 174 922 q 383 964 300 964 z "},"Ø":{"ha":957,"x_min":104,"x_max":885,"o":"m 722 928 q 842 801 800 886 q 885 590 885 715 q 840 313 885 451 q 692 79 794 174 q 429 -15 589 -15 q 315 1 368 -15 l 244 -162 l 189 -146 l 264 24 q 146 153 188 67 q 104 363 104 239 q 151 635 104 497 q 300 869 197 774 q 561 964 403 964 q 671 949 618 964 l 743 1121 l 800 1104 l 722 928 m 172 356 q 293 76 172 149 l 651 894 q 558 907 610 907 q 335 819 421 907 q 210 606 249 732 q 172 356 172 479 m 431 43 q 658 131 571 43 q 781 346 744 219 q 817 597 817 472 q 692 876 817 810 l 335 58 q 431 43 381 43 z "},"Ǿ":{"ha":957,"x_min":104,"x_max":885,"o":"m 722 928 q 842 801 800 886 q 885 590 885 715 q 840 313 885 451 q 692 79 794 174 q 429 -15 589 -15 q 315 1 368 -15 l 244 -162 l 189 -146 l 264 24 q 146 153 188 67 q 104 363 104 239 q 151 635 104 497 q 300 869 197 774 q 561 964 403 964 q 671 949 618 964 l 743 1121 l 800 1104 l 722 928 m 172 356 q 293 76 172 149 l 651 894 q 558 907 610 907 q 335 819 421 907 q 210 606 249 732 q 172 356 172 479 m 431 43 q 658 131 571 43 q 781 346 744 219 q 817 597 817 472 q 692 876 817 810 l 335 58 q 431 43 381 43 m 697 1225 l 719 1164 l 440 1060 l 425 1099 l 697 1225 z "},"Õ":{"ha":957,"x_min":104,"x_max":885,"o":"m 561 964 q 799 867 713 964 q 885 590 885 771 q 840 313 885 451 q 692 79 794 174 q 429 -15 589 -15 q 191 83 278 -15 q 104 363 104 182 q 151 635 104 497 q 300 869 197 774 q 561 964 403 964 m 558 907 q 335 820 422 907 q 210 607 249 733 q 172 360 172 481 q 241 123 172 203 q 431 43 310 43 q 658 131 571 43 q 781 344 744 218 q 817 593 817 471 q 749 828 817 750 q 558 907 682 907 m 672 1106 q 626 1115 646 1106 q 578 1140 606 1124 q 544 1160 558 1154 q 514 1167 529 1167 q 470 1155 488 1167 q 426 1111 453 1143 l 389 1138 q 514 1221 450 1221 q 556 1213 538 1221 q 601 1188 575 1204 q 638 1166 622 1174 q 671 1158 654 1158 q 713 1173 693 1158 q 758 1219 733 1188 l 797 1196 q 672 1106 740 1106 z "},"Ṍ":{"ha":957,"x_min":104,"x_max":885,"o":"m 561 964 q 799 867 713 964 q 885 590 885 771 q 840 313 885 451 q 692 79 794 174 q 429 -15 589 -15 q 191 83 278 -15 q 104 363 104 182 q 151 635 104 497 q 300 869 197 774 q 561 964 403 964 m 558 907 q 335 820 422 907 q 210 607 249 733 q 172 360 172 481 q 241 123 172 203 q 431 43 310 43 q 658 131 571 43 q 781 344 744 218 q 817 593 817 471 q 749 828 817 750 q 558 907 682 907 m 667 1051 q 620 1060 640 1051 q 572 1086 600 1069 q 538 1106 553 1100 q 508 1113 524 1113 q 465 1101 482 1113 q 421 1057 447 1089 l 383 1083 q 508 1167 444 1167 q 551 1158 532 1167 q 596 1133 569 1150 q 633 1112 617 1119 q 665 1104 649 1104 q 708 1119 688 1104 q 753 1165 728 1133 l 792 1142 q 667 1051 735 1051 m 722 1371 l 744 1310 l 465 1206 l 450 1244 l 722 1371 z "},"Ȭ":{"ha":957,"x_min":104,"x_max":885,"o":"m 757 1233 l 439 1233 l 449 1288 l 765 1288 l 757 1233 m 665 1051 q 619 1060 639 1051 q 571 1086 599 1069 q 537 1106 551 1100 q 507 1113 522 1113 q 463 1101 481 1113 q 419 1057 446 1089 l 382 1083 q 507 1167 443 1167 q 549 1158 531 1167 q 594 1133 568 1150 q 631 1112 615 1119 q 664 1104 647 1104 q 706 1119 686 1104 q 751 1165 726 1133 l 790 1142 q 665 1051 733 1051 m 561 964 q 799 867 713 964 q 885 590 885 771 q 840 313 885 451 q 692 79 794 174 q 429 -15 589 -15 q 191 83 278 -15 q 104 363 104 182 q 151 635 104 497 q 300 869 197 774 q 561 964 403 964 m 558 907 q 335 820 422 907 q 210 607 249 733 q 172 360 172 481 q 241 123 172 203 q 431 43 310 43 q 658 131 571 43 q 781 344 744 218 q 817 593 817 471 q 749 828 817 750 q 558 907 682 907 z "},"Œ":{"ha":1192,"x_min":103,"x_max":1204,"o":"m 1189 893 l 735 893 q 856 592 856 800 q 853 524 856 571 l 1083 524 l 1075 467 l 846 467 q 773 229 828 339 q 624 57 718 119 l 1089 57 l 1079 0 l 510 0 q 413 -15 460 -15 q 187 83 271 -15 q 103 361 103 182 q 149 631 103 492 q 295 867 196 771 q 543 964 394 964 q 638 950 592 964 l 1204 950 l 1189 893 m 789 601 q 724 829 789 751 q 544 907 658 907 q 331 819 415 907 q 210 603 247 731 q 172 354 172 475 q 238 123 172 203 q 415 43 304 43 q 633 133 549 43 q 753 352 717 224 q 789 601 789 481 z "},"P":{"ha":785,"x_min":107,"x_max":763,"o":"m 453 950 q 683 892 604 950 q 763 714 763 833 q 672 472 763 568 q 371 376 581 376 l 226 376 l 174 0 l 107 0 l 242 950 l 453 950 m 376 435 q 622 513 550 435 q 694 714 694 592 q 632 851 694 810 q 447 893 569 893 l 299 893 l 235 435 l 376 435 z "},"Ṕ":{"ha":785,"x_min":107,"x_max":763,"o":"m 453 950 q 683 892 604 950 q 763 714 763 833 q 672 472 763 568 q 371 376 581 376 l 226 376 l 174 0 l 107 0 l 242 950 l 453 950 m 376 435 q 622 513 550 435 q 694 714 694 592 q 632 851 694 810 q 447 893 569 893 l 299 893 l 235 435 l 376 435 m 610 1219 l 632 1158 l 353 1054 l 338 1093 l 610 1219 z "},"Ṗ":{"ha":785,"x_min":107,"x_max":763,"o":"m 453 950 q 683 892 604 950 q 763 714 763 833 q 672 472 763 568 q 371 376 581 376 l 226 376 l 174 0 l 107 0 l 242 950 l 453 950 m 376 435 q 622 513 550 435 q 694 714 694 592 q 632 851 694 810 q 447 893 569 893 l 299 893 l 235 435 l 376 435 m 503 1111 q 469 1123 482 1111 q 457 1154 457 1135 q 472 1193 457 1178 q 511 1208 488 1208 q 544 1197 532 1208 q 556 1165 556 1185 q 540 1126 556 1142 q 503 1111 525 1111 z "},"Ƥ":{"ha":857,"x_min":85,"x_max":835,"o":"m 525 950 q 756 892 676 950 q 835 714 835 833 q 744 472 835 568 q 443 376 653 376 l 299 376 l 246 0 l 179 0 l 306 894 l 269 894 q 178 862 208 894 q 149 775 149 829 q 153 735 149 753 q 165 694 157 718 l 114 671 q 92 722 100 697 q 85 778 85 747 q 135 902 85 854 q 278 950 186 950 l 525 950 m 449 435 q 694 513 622 435 q 767 714 767 592 q 704 851 767 810 q 519 893 642 893 l 371 893 l 307 435 l 449 435 z "},"Þ":{"ha":785,"x_min":107,"x_max":739,"o":"m 429 778 q 660 719 581 778 q 739 535 739 661 q 702 370 739 447 q 578 244 665 293 q 346 194 490 194 l 201 194 l 174 0 l 107 0 l 242 950 l 307 950 l 283 778 l 429 778 m 351 251 q 596 333 521 251 q 671 533 671 414 q 609 678 671 635 q 425 721 547 721 l 275 721 l 208 251 l 351 251 z "},"Q":{"ha":939,"x_min":104,"x_max":885,"o":"m 885 590 q 854 360 885 476 q 754 150 824 243 q 578 22 685 57 q 832 -72 740 15 l 783 -125 q 640 -38 719 -61 q 429 -15 561 -15 q 191 83 278 -15 q 104 363 104 182 q 151 635 104 497 q 300 869 197 774 q 561 964 403 964 q 799 867 713 964 q 885 590 885 771 m 172 356 q 241 122 172 201 q 431 43 310 43 q 658 131 571 43 q 781 346 744 219 q 817 597 817 472 q 749 829 817 751 q 558 907 682 907 q 335 819 421 907 q 210 606 249 732 q 172 356 172 479 z "},"Ɋ":{"ha":914,"x_min":103,"x_max":897,"o":"m 897 -237 q 758 -282 833 -282 q 655 -246 693 -282 q 617 -140 617 -210 q 619 -101 617 -129 l 635 0 l 633 0 l 646 88 q 535 12 597 39 q 403 -15 474 -15 q 185 80 267 -15 q 103 351 103 175 q 156 643 103 501 q 306 874 208 785 q 532 964 403 964 q 756 857 672 964 l 775 950 l 832 950 l 700 0 l 686 -107 q 683 -140 683 -132 q 761 -225 683 -225 q 819 -217 794 -225 q 872 -192 844 -208 l 897 -237 m 408 43 q 656 154 553 43 l 746 799 q 532 907 663 907 q 338 823 419 907 q 213 609 256 739 q 171 346 171 479 q 235 119 171 196 q 408 43 300 43 z "},"R":{"ha":810,"x_min":107,"x_max":760,"o":"m 760 732 q 698 551 760 631 q 507 443 636 471 l 708 0 l 635 0 l 440 435 l 235 435 l 174 0 l 107 0 l 242 950 l 471 950 q 760 732 760 950 m 415 490 q 626 562 561 490 q 690 732 690 633 q 637 853 690 814 q 465 893 583 893 l 299 893 l 242 490 l 415 490 z "},"Ŕ":{"ha":810,"x_min":107,"x_max":760,"o":"m 760 732 q 698 551 760 631 q 507 443 636 471 l 708 0 l 635 0 l 440 435 l 235 435 l 174 0 l 107 0 l 242 950 l 471 950 q 760 732 760 950 m 415 490 q 626 562 561 490 q 690 732 690 633 q 637 853 690 814 q 465 893 583 893 l 299 893 l 242 490 l 415 490 m 622 1219 l 644 1158 l 365 1054 l 350 1093 l 622 1219 z "},"Ř":{"ha":810,"x_min":107,"x_max":760,"o":"m 760 732 q 698 551 760 631 q 507 443 636 471 l 708 0 l 635 0 l 440 435 l 235 435 l 174 0 l 107 0 l 242 950 l 471 950 q 760 732 760 950 m 415 490 q 626 562 561 490 q 690 732 690 633 q 637 853 690 814 q 465 893 583 893 l 299 893 l 242 490 l 415 490 m 688 1222 l 715 1188 l 521 1051 l 482 1051 l 324 1188 l 356 1221 l 508 1113 l 688 1222 z "},"Ŗ":{"ha":810,"x_min":107,"x_max":760,"o":"m 760 732 q 698 551 760 631 q 507 443 636 471 l 708 0 l 635 0 l 440 435 l 235 435 l 174 0 l 107 0 l 242 950 l 471 950 q 760 732 760 950 m 415 490 q 626 562 561 490 q 690 732 690 633 q 637 853 690 814 q 465 893 583 893 l 299 893 l 242 490 l 415 490 m 361 -121 q 397 -135 383 -121 q 411 -169 411 -149 q 403 -205 411 -187 q 371 -262 396 -222 l 300 -379 l 258 -379 l 328 -221 q 309 -202 315 -214 q 303 -178 303 -190 q 319 -137 303 -154 q 361 -121 335 -121 z "},"Ȑ":{"ha":810,"x_min":107,"x_max":760,"o":"m 760 732 q 698 551 760 631 q 507 443 636 471 l 708 0 l 635 0 l 440 435 l 235 435 l 174 0 l 107 0 l 242 950 l 471 950 q 760 732 760 950 m 415 490 q 626 562 561 490 q 690 732 690 633 q 637 853 690 814 q 465 893 583 893 l 299 893 l 242 490 l 415 490 m 375 1292 l 453 1092 l 407 1071 l 311 1260 l 375 1292 m 543 1290 l 611 1097 l 565 1076 l 479 1260 l 543 1290 z "},"Ṛ":{"ha":810,"x_min":107,"x_max":760,"o":"m 760 732 q 698 551 760 631 q 507 443 636 471 l 708 0 l 635 0 l 440 435 l 235 435 l 174 0 l 107 0 l 242 950 l 471 950 q 760 732 760 950 m 415 490 q 626 562 561 490 q 690 732 690 633 q 637 853 690 814 q 465 893 583 893 l 299 893 l 242 490 l 415 490 m 354 -125 q 388 -137 375 -125 q 400 -168 400 -149 q 385 -207 400 -192 q 346 -222 369 -222 q 313 -210 325 -222 q 301 -179 301 -199 q 317 -140 301 -156 q 354 -125 332 -125 z "},"Ȓ":{"ha":810,"x_min":107,"x_max":760,"o":"m 760 732 q 698 551 760 631 q 507 443 636 471 l 708 0 l 635 0 l 440 435 l 235 435 l 174 0 l 107 0 l 242 950 l 471 950 q 760 732 760 950 m 415 490 q 626 562 561 490 q 690 732 690 633 q 637 853 690 814 q 465 893 583 893 l 299 893 l 242 490 l 415 490 m 335 1107 q 404 1209 353 1171 q 524 1247 456 1247 q 633 1208 592 1247 q 676 1103 675 1168 l 631 1097 q 521 1193 615 1193 q 434 1167 471 1193 q 378 1093 397 1142 l 335 1107 z "},"Ɍ":{"ha":821,"x_min":54,"x_max":771,"o":"m 771 732 q 709 551 771 631 q 518 443 647 471 l 719 0 l 646 0 l 451 435 l 246 435 l 185 0 l 118 0 l 179 435 l 54 435 l 63 490 l 188 490 l 253 950 l 482 950 q 771 732 771 950 m 426 490 q 637 562 572 490 q 701 732 701 633 q 648 853 701 814 q 476 893 594 893 l 310 893 l 253 490 l 426 490 z "},"Ɽ":{"ha":810,"x_min":90,"x_max":760,"o":"m 760 732 q 698 551 760 631 q 507 443 636 471 l 708 0 l 635 0 l 440 435 l 235 435 l 174 0 l 160 -107 q 157 -140 157 -132 q 235 -225 157 -225 q 293 -217 268 -225 q 346 -192 318 -208 l 371 -237 q 232 -282 307 -282 q 128 -246 167 -282 q 90 -140 90 -210 q 93 -101 90 -129 l 108 0 l 107 0 l 242 950 l 471 950 q 760 732 760 950 m 415 490 q 626 562 561 490 q 690 732 690 633 q 637 853 690 814 q 465 893 583 893 l 299 893 l 242 490 l 415 490 z "},"S":{"ha":743,"x_min":24,"x_max":703,"o":"m 450 964 q 592 938 531 964 q 703 860 653 911 l 660 819 q 565 886 614 865 q 450 907 515 907 q 280 855 344 907 q 215 719 215 803 q 259 610 215 650 q 413 536 303 571 q 593 440 535 497 q 651 282 651 382 q 615 140 651 208 q 500 28 578 72 q 307 -15 422 -15 q 147 16 215 -15 q 24 106 78 47 l 68 146 q 172 69 115 96 q 307 43 229 43 q 464 78 401 43 q 555 167 526 113 q 583 281 583 221 q 538 401 583 356 q 385 483 493 446 q 203 576 257 525 q 149 717 149 628 q 184 838 149 782 q 288 929 219 894 q 450 964 357 964 z "},"Ś":{"ha":743,"x_min":24,"x_max":703,"o":"m 450 964 q 592 938 531 964 q 703 860 653 911 l 660 819 q 565 886 614 865 q 450 907 515 907 q 280 855 344 907 q 215 719 215 803 q 259 610 215 650 q 413 536 303 571 q 593 440 535 497 q 651 282 651 382 q 615 140 651 208 q 500 28 578 72 q 307 -15 422 -15 q 147 16 215 -15 q 24 106 78 47 l 68 146 q 172 69 115 96 q 307 43 229 43 q 464 78 401 43 q 555 167 526 113 q 583 281 583 221 q 538 401 583 356 q 385 483 493 446 q 203 576 257 525 q 149 717 149 628 q 184 838 149 782 q 288 929 219 894 q 450 964 357 964 m 592 1219 l 614 1158 l 335 1054 l 319 1093 l 592 1219 z "},"Ꞌ":{"ha":276,"x_min":132,"x_max":257,"o":"m 132 494 l 185 950 l 257 950 l 182 494 l 132 494 z "},"Š":{"ha":743,"x_min":24,"x_max":703,"o":"m 450 964 q 592 938 531 964 q 703 860 653 911 l 660 819 q 565 886 614 865 q 450 907 515 907 q 280 855 344 907 q 215 719 215 803 q 259 610 215 650 q 413 536 303 571 q 593 440 535 497 q 651 282 651 382 q 615 140 651 208 q 500 28 578 72 q 307 -15 422 -15 q 147 16 215 -15 q 24 106 78 47 l 68 146 q 172 69 115 96 q 307 43 229 43 q 464 78 401 43 q 555 167 526 113 q 583 281 583 221 q 538 401 583 356 q 385 483 493 446 q 203 576 257 525 q 149 717 149 628 q 184 838 149 782 q 288 929 219 894 q 450 964 357 964 m 657 1222 l 685 1188 l 490 1051 l 451 1051 l 293 1188 l 325 1221 l 478 1113 l 657 1222 z "},"Ş":{"ha":743,"x_min":24,"x_max":703,"o":"m 450 964 q 592 938 531 964 q 703 860 653 911 l 660 819 q 565 886 614 865 q 450 907 515 907 q 280 855 344 907 q 215 719 215 803 q 259 610 215 650 q 413 536 303 571 q 593 440 535 497 q 651 282 651 382 q 617 145 651 211 q 511 35 583 79 q 332 -15 439 -10 l 318 -93 q 435 -190 435 -101 q 392 -277 435 -244 q 285 -310 350 -310 q 179 -279 222 -310 l 206 -239 q 285 -260 239 -260 q 350 -242 325 -260 q 375 -192 375 -225 q 350 -146 375 -160 q 261 -132 325 -132 l 285 -15 q 138 20 201 -11 q 24 106 75 51 l 68 146 q 172 69 115 96 q 307 43 229 43 q 464 78 401 43 q 555 167 526 113 q 583 281 583 221 q 538 401 583 356 q 385 483 493 446 q 203 576 257 525 q 149 717 149 628 q 184 838 149 782 q 288 929 219 894 q 450 964 357 964 z "},"Ŝ":{"ha":743,"x_min":24,"x_max":703,"o":"m 450 964 q 592 938 531 964 q 703 860 653 911 l 660 819 q 565 886 614 865 q 450 907 515 907 q 280 855 344 907 q 215 719 215 803 q 259 610 215 650 q 413 536 303 571 q 593 440 535 497 q 651 282 651 382 q 615 140 651 208 q 500 28 578 72 q 307 -15 422 -15 q 147 16 215 -15 q 24 106 78 47 l 68 146 q 172 69 115 96 q 307 43 229 43 q 464 78 401 43 q 555 167 526 113 q 583 281 583 221 q 538 401 583 356 q 385 483 493 446 q 203 576 257 525 q 149 717 149 628 q 184 838 149 782 q 288 929 219 894 q 450 964 357 964 m 301 1060 l 275 1096 l 469 1232 l 507 1232 l 664 1094 l 633 1060 l 483 1171 l 301 1060 z "},"Ș":{"ha":743,"x_min":24,"x_max":703,"o":"m 450 964 q 592 938 531 964 q 703 860 653 911 l 660 819 q 565 886 614 865 q 450 907 515 907 q 280 855 344 907 q 215 719 215 803 q 259 610 215 650 q 413 536 303 571 q 593 440 535 497 q 651 282 651 382 q 615 140 651 208 q 500 28 578 72 q 307 -15 422 -15 q 147 16 215 -15 q 24 106 78 47 l 68 146 q 172 69 115 96 q 307 43 229 43 q 464 78 401 43 q 555 167 526 113 q 583 281 583 221 q 538 401 583 356 q 385 483 493 446 q 203 576 257 525 q 149 717 149 628 q 184 838 149 782 q 288 929 219 894 q 450 964 357 964 m 301 -121 q 338 -135 324 -121 q 351 -169 351 -149 q 344 -205 351 -187 q 311 -262 336 -222 l 240 -379 l 199 -379 l 268 -221 q 249 -202 256 -214 q 243 -178 243 -190 q 259 -137 243 -154 q 301 -121 275 -121 z "},"Ṡ":{"ha":743,"x_min":24,"x_max":703,"o":"m 450 964 q 592 938 531 964 q 703 860 653 911 l 660 819 q 565 886 614 865 q 450 907 515 907 q 280 855 344 907 q 215 719 215 803 q 259 610 215 650 q 413 536 303 571 q 593 440 535 497 q 651 282 651 382 q 615 140 651 208 q 500 28 578 72 q 307 -15 422 -15 q 147 16 215 -15 q 24 106 78 47 l 68 146 q 172 69 115 96 q 307 43 229 43 q 464 78 401 43 q 555 167 526 113 q 583 281 583 221 q 538 401 583 356 q 385 483 493 446 q 203 576 257 525 q 149 717 149 628 q 184 838 149 782 q 288 929 219 894 q 450 964 357 964 m 485 1111 q 451 1123 464 1111 q 439 1154 439 1135 q 454 1193 439 1178 q 493 1208 469 1208 q 526 1197 514 1208 q 538 1165 538 1185 q 522 1126 538 1142 q 485 1111 507 1111 z "},"Ṣ":{"ha":743,"x_min":24,"x_max":703,"o":"m 450 964 q 592 938 531 964 q 703 860 653 911 l 660 819 q 565 886 614 865 q 450 907 515 907 q 280 855 344 907 q 215 719 215 803 q 259 610 215 650 q 413 536 303 571 q 593 440 535 497 q 651 282 651 382 q 615 140 651 208 q 500 28 578 72 q 307 -15 422 -15 q 147 16 215 -15 q 24 106 78 47 l 68 146 q 172 69 115 96 q 307 43 229 43 q 464 78 401 43 q 555 167 526 113 q 583 281 583 221 q 538 401 583 356 q 385 483 493 446 q 203 576 257 525 q 149 717 149 628 q 184 838 149 782 q 288 929 219 894 q 450 964 357 964 m 294 -125 q 328 -137 315 -125 q 340 -168 340 -149 q 325 -207 340 -192 q 286 -222 310 -222 q 253 -210 265 -222 q 242 -179 242 -199 q 257 -140 242 -156 q 294 -125 272 -125 z "},"ẞ":{"ha":894,"x_min":107,"x_max":832,"o":"m 526 964 q 832 871 682 964 l 828 824 l 518 533 q 804 292 804 501 q 765 134 804 204 q 653 24 725 64 q 489 -15 581 -15 q 332 17 396 -15 l 360 65 q 488 43 417 43 q 620 76 564 43 q 706 165 676 108 q 736 292 736 221 q 665 428 736 383 q 444 485 594 474 l 450 542 l 764 843 q 651 890 707 874 q 526 907 594 907 q 352 851 418 907 q 269 679 286 794 l 174 0 l 107 0 l 204 688 q 307 893 222 822 q 526 964 392 964 z "},"Ə":{"ha":896,"x_min":86,"x_max":825,"o":"m 522 964 q 746 878 667 964 q 825 613 825 792 q 776 303 825 446 q 630 72 728 160 q 389 -15 532 -15 q 167 76 247 -15 q 86 339 86 168 q 92 431 86 376 q 106 515 99 485 l 751 515 q 757 614 757 561 q 696 837 757 767 q 518 907 635 907 q 378 883 443 907 q 240 807 313 858 l 208 853 q 358 937 282 910 q 522 964 433 964 m 390 43 q 615 144 522 43 q 742 454 708 244 l 163 454 q 153 336 153 394 q 215 115 153 188 q 390 43 276 43 z "},"T":{"ha":675,"x_min":94,"x_max":743,"o":"m 743 950 l 726 889 l 444 889 l 319 0 l 253 0 l 378 889 l 94 889 l 103 950 l 743 950 z "},"Ŧ":{"ha":675,"x_min":94,"x_max":743,"o":"m 726 889 l 444 889 l 394 533 l 563 533 l 556 479 l 388 479 l 319 0 l 253 0 l 321 479 l 151 479 l 158 533 l 328 533 l 378 889 l 94 889 l 103 950 l 743 950 l 726 889 z "},"Ť":{"ha":675,"x_min":94,"x_max":743,"o":"m 743 950 l 726 889 l 444 889 l 319 0 l 253 0 l 378 889 l 94 889 l 103 950 l 743 950 m 619 1222 l 647 1188 l 453 1051 l 414 1051 l 256 1188 l 288 1221 l 440 1113 l 619 1222 z "},"Ţ":{"ha":675,"x_min":94,"x_max":743,"o":"m 743 950 l 726 889 l 444 889 l 319 0 l 318 0 l 304 -93 q 419 -185 419 -101 q 376 -274 419 -237 q 268 -310 332 -310 q 164 -279 207 -310 l 190 -239 q 267 -260 224 -260 q 331 -241 304 -260 q 358 -189 358 -222 q 333 -145 358 -158 q 244 -132 308 -132 l 274 0 l 253 0 l 378 889 l 94 889 l 103 950 l 743 950 z "},"Ṱ":{"ha":675,"x_min":57,"x_max":743,"o":"m 743 950 l 726 889 l 444 889 l 319 0 l 253 0 l 378 889 l 94 889 l 103 950 l 743 950 m 86 -276 l 57 -242 l 253 -97 l 292 -97 l 447 -242 l 417 -276 l 265 -158 l 86 -276 z "},"Ț":{"ha":675,"x_min":94,"x_max":743,"o":"m 743 950 l 726 889 l 444 889 l 319 0 l 253 0 l 378 889 l 94 889 l 103 950 l 743 950 m 275 -121 q 311 -135 297 -121 q 325 -169 325 -149 q 317 -205 325 -187 q 285 -262 310 -222 l 214 -379 l 172 -379 l 242 -221 q 223 -202 229 -214 q 217 -178 217 -190 q 233 -137 217 -154 q 275 -121 249 -121 z "},"Ⱦ":{"ha":675,"x_min":94,"x_max":743,"o":"m 726 889 l 560 889 l 386 483 l 318 0 l 253 0 l 289 257 l 138 -97 l 100 -85 l 310 406 l 378 889 l 94 889 l 103 950 l 543 950 l 578 1032 l 615 1019 l 586 950 l 743 950 l 726 889 m 407 633 l 517 889 l 443 889 l 407 633 z "},"Ṫ":{"ha":675,"x_min":94,"x_max":743,"o":"m 743 950 l 726 889 l 444 889 l 319 0 l 253 0 l 378 889 l 94 889 l 103 950 l 743 950 m 447 1111 q 414 1123 426 1111 q 401 1154 401 1135 q 417 1193 401 1178 q 456 1208 432 1208 q 488 1197 476 1208 q 500 1165 500 1185 q 485 1126 500 1142 q 447 1111 469 1111 z "},"Ṭ":{"ha":675,"x_min":94,"x_max":743,"o":"m 743 950 l 726 889 l 444 889 l 319 0 l 253 0 l 378 889 l 94 889 l 103 950 l 743 950 m 268 -125 q 301 -137 289 -125 q 314 -168 314 -149 q 299 -207 314 -192 q 260 -222 283 -222 q 227 -210 239 -222 q 215 -179 215 -199 q 231 -140 215 -156 q 268 -125 246 -125 z "},"Ƭ":{"ha":710,"x_min":85,"x_max":779,"o":"m 761 889 l 479 889 l 356 0 l 289 0 l 414 889 l 269 889 q 178 858 208 889 q 149 775 149 826 q 153 735 149 753 q 165 694 157 718 l 114 671 q 92 722 100 697 q 85 778 85 747 q 135 902 85 854 q 274 950 185 950 l 779 950 l 761 889 z "},"Ṯ":{"ha":675,"x_min":94,"x_max":743,"o":"m 743 950 l 726 889 l 444 889 l 319 0 l 253 0 l 378 889 l 94 889 l 103 950 l 743 950 m 113 -160 l 431 -160 l 421 -214 l 104 -214 l 113 -160 z "},"Ƽ":{"ha":679,"x_min":14,"x_max":660,"o":"m 264 -15 q 119 15 181 -15 q 14 101 58 44 l 60 136 q 146 65 97 88 q 265 42 194 42 q 422 92 361 42 q 509 213 482 142 q 536 356 536 285 q 490 496 536 449 q 361 543 443 543 q 271 531 310 543 q 183 494 232 519 l 131 494 l 194 950 l 660 950 l 640 894 l 249 894 l 200 549 q 372 596 281 596 q 542 533 482 596 q 603 354 603 469 q 569 188 603 272 q 458 44 535 103 q 264 -15 382 -15 z "},"Ƅ":{"ha":771,"x_min":107,"x_max":711,"o":"m 414 581 q 634 519 557 581 q 711 333 711 458 q 674 172 711 247 q 553 49 638 97 q 335 0 468 0 l 107 0 l 218 775 l 158 819 q 251 950 218 872 l 307 950 l 256 581 l 414 581 m 351 57 q 523 99 458 57 q 615 204 588 142 q 642 333 642 267 q 584 478 642 432 q 414 524 526 524 l 249 524 l 183 57 l 351 57 z "},"Ƨ":{"ha":732,"x_min":61,"x_max":700,"o":"m 468 964 q 638 910 576 964 q 700 765 700 856 q 666 635 700 688 q 567 548 632 583 q 397 481 501 513 q 242 417 300 451 q 157 335 185 383 q 129 215 129 288 q 183 88 129 133 q 324 43 236 43 q 469 69 404 43 q 600 146 535 96 l 635 101 q 489 15 565 44 q 321 -15 413 -15 q 133 48 204 -15 q 61 215 61 111 q 137 416 61 342 q 374 536 213 490 q 523 590 468 563 q 606 660 578 618 q 633 765 633 701 q 590 869 633 832 q 467 907 546 907 q 335 886 393 907 q 213 818 278 865 l 178 864 q 315 940 247 915 q 468 964 382 964 z "},"Ʈ":{"ha":675,"x_min":94,"x_max":743,"o":"m 304 -107 q 301 -140 301 -132 q 379 -225 301 -225 q 438 -217 413 -225 q 490 -192 463 -208 l 515 -237 q 376 -282 451 -282 q 273 -246 311 -282 q 235 -140 235 -210 q 238 -101 235 -129 l 253 0 l 378 889 l 94 889 l 103 950 l 743 950 l 726 889 l 444 889 l 319 0 l 318 0 l 304 -107 z "},"U":{"ha":899,"x_min":131,"x_max":835,"o":"m 743 292 q 636 68 724 151 q 400 -15 549 -15 q 198 51 265 -15 q 131 232 131 117 q 136 296 131 251 l 228 950 l 293 950 l 203 297 q 199 236 199 264 q 249 94 199 144 q 401 44 299 44 q 592 113 524 44 q 678 301 661 182 l 769 950 l 835 950 l 743 292 z "},"Ú":{"ha":899,"x_min":131,"x_max":835,"o":"m 743 292 q 636 68 724 151 q 400 -15 549 -15 q 198 51 265 -15 q 131 232 131 117 q 136 296 131 251 l 228 950 l 293 950 l 203 297 q 199 236 199 264 q 249 94 199 144 q 401 44 299 44 q 592 113 524 44 q 678 301 661 182 l 769 950 l 835 950 l 743 292 m 667 1219 l 689 1158 l 410 1054 l 394 1093 l 667 1219 z "},"Ʉ":{"ha":924,"x_min":121,"x_max":915,"o":"m 907 715 l 818 715 l 760 292 q 653 68 740 151 q 417 -15 565 -15 q 215 51 282 -15 q 147 232 147 117 q 153 296 147 251 l 211 715 l 121 715 l 129 765 l 218 765 l 244 950 l 310 950 l 285 765 l 760 765 l 786 950 l 851 950 l 825 765 l 915 765 l 907 715 m 753 715 l 278 715 l 219 297 q 215 236 215 264 q 265 94 215 144 q 418 44 315 44 q 609 113 540 44 q 694 301 678 182 l 753 715 z "},"Ŭ":{"ha":899,"x_min":131,"x_max":835,"o":"m 743 292 q 636 68 724 151 q 400 -15 549 -15 q 198 51 265 -15 q 131 232 131 117 q 136 296 131 251 l 228 950 l 293 950 l 203 297 q 199 236 199 264 q 249 94 199 144 q 401 44 299 44 q 592 113 524 44 q 678 301 661 182 l 769 950 l 835 950 l 743 292 m 546 1065 q 436 1103 479 1065 q 390 1196 393 1140 l 435 1201 q 471 1142 442 1164 q 546 1121 500 1121 q 631 1144 594 1121 q 686 1206 668 1167 l 731 1192 q 663 1101 714 1136 q 546 1065 611 1065 z "},"Ǔ":{"ha":899,"x_min":131,"x_max":835,"o":"m 743 292 q 636 68 724 151 q 400 -15 549 -15 q 198 51 265 -15 q 131 232 131 117 q 136 296 131 251 l 228 950 l 293 950 l 203 297 q 199 236 199 264 q 249 94 199 144 q 401 44 299 44 q 592 113 524 44 q 678 301 661 182 l 769 950 l 835 950 l 743 292 m 732 1222 l 760 1188 l 565 1051 l 526 1051 l 368 1188 l 400 1221 l 553 1113 l 732 1222 z "},"Û":{"ha":899,"x_min":131,"x_max":835,"o":"m 743 292 q 636 68 724 151 q 400 -15 549 -15 q 198 51 265 -15 q 131 232 131 117 q 136 296 131 251 l 228 950 l 293 950 l 203 297 q 199 236 199 264 q 249 94 199 144 q 401 44 299 44 q 592 113 524 44 q 678 301 661 182 l 769 950 l 835 950 l 743 292 m 376 1060 l 350 1096 l 544 1232 l 582 1232 l 739 1094 l 708 1060 l 558 1171 l 376 1060 z "},"Ȕ":{"ha":899,"x_min":131,"x_max":835,"o":"m 743 292 q 636 68 724 151 q 400 -15 549 -15 q 198 51 265 -15 q 131 232 131 117 q 136 296 131 251 l 228 950 l 293 950 l 203 297 q 199 236 199 264 q 249 94 199 144 q 401 44 299 44 q 592 113 524 44 q 678 301 661 182 l 769 950 l 835 950 l 743 292 m 419 1292 l 497 1092 l 451 1071 l 356 1260 l 419 1292 m 588 1290 l 656 1097 l 610 1076 l 524 1260 l 588 1290 z "},"Ü":{"ha":899,"x_min":131,"x_max":835,"o":"m 743 292 q 636 68 724 151 q 400 -15 549 -15 q 198 51 265 -15 q 131 232 131 117 q 136 296 131 251 l 228 950 l 293 950 l 203 297 q 199 236 199 264 q 249 94 199 144 q 401 44 299 44 q 592 113 524 44 q 678 301 661 182 l 769 950 l 835 950 l 743 292 m 429 1100 q 399 1111 411 1100 q 388 1140 388 1122 q 402 1177 388 1163 q 439 1192 417 1192 q 470 1181 458 1192 q 482 1151 482 1169 q 467 1115 482 1129 q 429 1100 451 1100 m 682 1100 q 651 1111 663 1100 q 639 1140 639 1122 q 653 1177 639 1163 q 690 1192 668 1192 q 722 1181 710 1192 q 733 1151 733 1169 q 719 1115 733 1129 q 682 1100 704 1100 z "},"Ǘ":{"ha":899,"x_min":131,"x_max":835,"o":"m 743 292 q 636 68 724 151 q 400 -15 549 -15 q 198 51 265 -15 q 131 232 131 117 q 136 296 131 251 l 228 950 l 293 950 l 203 297 q 199 236 199 264 q 249 94 199 144 q 401 44 299 44 q 592 113 524 44 q 678 301 661 182 l 769 950 l 835 950 l 743 292 m 686 1328 l 728 1283 l 547 1122 l 518 1151 l 686 1328 m 413 1032 q 382 1044 394 1032 q 369 1074 369 1056 q 384 1110 369 1094 q 421 1125 399 1125 q 452 1113 440 1125 q 464 1083 464 1101 q 449 1047 464 1063 q 413 1032 435 1032 m 665 1032 q 634 1044 646 1032 q 622 1074 622 1056 q 637 1110 622 1094 q 674 1125 651 1125 q 704 1113 692 1125 q 717 1083 717 1101 q 702 1047 717 1063 q 665 1032 688 1032 z "},"Ǚ":{"ha":899,"x_min":131,"x_max":835,"o":"m 743 292 q 636 68 724 151 q 400 -15 549 -15 q 198 51 265 -15 q 131 232 131 117 q 136 296 131 251 l 228 950 l 293 950 l 203 297 q 199 236 199 264 q 249 94 199 144 q 401 44 299 44 q 592 113 524 44 q 678 301 661 182 l 769 950 l 835 950 l 743 292 m 735 1306 l 763 1271 l 568 1135 l 529 1135 l 371 1271 l 403 1304 l 556 1196 l 735 1306 m 415 1032 q 384 1044 396 1032 q 372 1074 372 1056 q 387 1110 372 1094 q 424 1125 401 1125 q 454 1113 442 1125 q 467 1083 467 1101 q 452 1047 467 1063 q 415 1032 438 1032 m 667 1032 q 636 1044 649 1032 q 624 1074 624 1056 q 638 1110 624 1094 q 675 1125 653 1125 q 706 1113 694 1125 q 718 1083 718 1101 q 703 1047 718 1063 q 667 1032 689 1032 z "},"Ǜ":{"ha":899,"x_min":131,"x_max":835,"o":"m 743 292 q 636 68 724 151 q 400 -15 549 -15 q 198 51 265 -15 q 131 232 131 117 q 136 296 131 251 l 228 950 l 293 950 l 203 297 q 199 236 199 264 q 249 94 199 144 q 401 44 299 44 q 592 113 524 44 q 678 301 661 182 l 769 950 l 835 950 l 743 292 m 456 1328 l 575 1147 l 543 1122 l 406 1288 l 456 1328 m 414 1032 q 383 1044 396 1032 q 371 1074 371 1056 q 385 1110 371 1094 q 422 1125 400 1125 q 453 1113 442 1125 q 465 1083 465 1101 q 451 1047 465 1063 q 414 1032 436 1032 m 667 1032 q 635 1044 647 1032 q 624 1074 624 1056 q 638 1110 624 1094 q 675 1125 653 1125 q 706 1113 693 1125 q 718 1083 718 1101 q 703 1047 718 1063 q 667 1032 689 1032 z "},"Ǖ":{"ha":899,"x_min":131,"x_max":835,"o":"m 743 292 q 636 68 724 151 q 400 -15 549 -15 q 198 51 265 -15 q 131 232 131 117 q 136 296 131 251 l 228 950 l 293 950 l 203 297 q 199 236 199 264 q 249 94 199 144 q 401 44 299 44 q 592 113 524 44 q 678 301 661 182 l 769 950 l 835 950 l 743 292 m 414 1032 q 384 1043 396 1032 q 372 1072 372 1054 q 387 1109 372 1094 q 424 1124 401 1124 q 455 1113 443 1124 q 467 1083 467 1101 q 451 1047 467 1061 q 414 1032 436 1032 m 667 1032 q 635 1043 647 1032 q 624 1072 624 1054 q 638 1109 624 1094 q 675 1124 653 1124 q 706 1113 694 1124 q 718 1083 718 1101 q 703 1047 718 1061 q 667 1032 689 1032 m 717 1207 l 399 1207 l 408 1261 l 725 1261 l 717 1207 z "},"Ụ":{"ha":899,"x_min":131,"x_max":835,"o":"m 743 292 q 636 68 724 151 q 400 -15 549 -15 q 198 51 265 -15 q 131 232 131 117 q 136 296 131 251 l 228 950 l 293 950 l 203 297 q 199 236 199 264 q 249 94 199 144 q 401 44 299 44 q 592 113 524 44 q 678 301 661 182 l 769 950 l 835 950 l 743 292 m 381 -125 q 414 -137 401 -125 q 426 -168 426 -149 q 411 -207 426 -192 q 372 -222 396 -222 q 340 -210 351 -222 q 328 -179 328 -199 q 343 -140 328 -156 q 381 -125 358 -125 z "},"Ù":{"ha":899,"x_min":131,"x_max":835,"o":"m 743 292 q 636 68 724 151 q 400 -15 549 -15 q 198 51 265 -15 q 131 232 131 117 q 136 296 131 251 l 228 950 l 293 950 l 203 297 q 199 236 199 264 q 249 94 199 144 q 401 44 299 44 q 592 113 524 44 q 678 301 661 182 l 769 950 l 835 950 l 743 292 m 458 1218 l 696 1093 l 672 1054 l 426 1158 l 458 1218 z "},"Ủ":{"ha":899,"x_min":131,"x_max":835,"o":"m 743 292 q 636 68 724 151 q 400 -15 549 -15 q 198 51 265 -15 q 131 232 131 117 q 136 296 131 251 l 228 950 l 293 950 l 203 297 q 199 236 199 264 q 249 94 199 144 q 401 44 299 44 q 592 113 524 44 q 678 301 661 182 l 769 950 l 835 950 l 743 292 m 533 1176 q 611 1197 581 1179 q 642 1251 642 1214 q 583 1301 642 1301 q 542 1297 558 1301 q 500 1281 525 1292 l 483 1324 q 590 1351 532 1351 q 673 1325 643 1351 q 703 1253 703 1299 q 672 1178 703 1207 q 586 1143 640 1150 l 578 1081 l 522 1081 l 533 1176 z "},"Ư":{"ha":899,"x_min":131,"x_max":967,"o":"m 967 985 q 930 878 967 917 q 818 829 893 839 l 743 292 q 636 68 724 151 q 400 -15 549 -15 q 198 51 265 -15 q 131 232 131 117 q 136 296 131 251 l 228 950 l 293 950 l 203 297 q 199 236 199 264 q 249 94 199 144 q 401 44 299 44 q 592 113 524 44 q 678 301 661 182 l 769 950 l 835 950 l 825 875 q 892 913 872 885 q 913 986 913 940 q 901 1054 913 1025 l 953 1065 q 967 985 967 1029 z "},"Ứ":{"ha":899,"x_min":131,"x_max":967,"o":"m 689 1158 l 410 1054 l 394 1093 l 667 1219 l 689 1158 m 967 985 q 930 878 967 917 q 818 829 893 839 l 743 292 q 636 68 724 151 q 400 -15 549 -15 q 198 51 265 -15 q 131 232 131 117 q 136 296 131 251 l 228 950 l 293 950 l 203 297 q 199 236 199 264 q 249 94 199 144 q 401 44 299 44 q 592 113 524 44 q 678 301 661 182 l 769 950 l 835 950 l 825 875 q 892 913 872 885 q 913 986 913 940 q 901 1054 913 1025 l 953 1065 q 967 985 967 1029 z "},"Ự":{"ha":899,"x_min":131,"x_max":967,"o":"m 967 985 q 930 878 967 917 q 818 829 893 839 l 743 292 q 636 68 724 151 q 400 -15 549 -15 q 198 51 265 -15 q 131 232 131 117 q 136 296 131 251 l 228 950 l 293 950 l 203 297 q 199 236 199 264 q 249 94 199 144 q 401 44 299 44 q 592 113 524 44 q 678 301 661 182 l 769 950 l 835 950 l 825 875 q 892 913 872 885 q 913 986 913 940 q 901 1054 913 1025 l 953 1065 q 967 985 967 1029 m 381 -125 q 414 -137 401 -125 q 426 -168 426 -149 q 411 -207 426 -192 q 372 -222 396 -222 q 340 -210 351 -222 q 328 -179 328 -199 q 343 -140 328 -156 q 381 -125 358 -125 z "},"Ừ":{"ha":899,"x_min":131,"x_max":967,"o":"m 696 1093 l 672 1054 l 426 1158 l 458 1218 l 696 1093 m 967 985 q 930 878 967 917 q 818 829 893 839 l 743 292 q 636 68 724 151 q 400 -15 549 -15 q 198 51 265 -15 q 131 232 131 117 q 136 296 131 251 l 228 950 l 293 950 l 203 297 q 199 236 199 264 q 249 94 199 144 q 401 44 299 44 q 592 113 524 44 q 678 301 661 182 l 769 950 l 835 950 l 825 875 q 892 913 872 885 q 913 986 913 940 q 901 1054 913 1025 l 953 1065 q 967 985 967 1029 z "},"Ử":{"ha":899,"x_min":131,"x_max":967,"o":"m 583 1301 q 542 1297 558 1301 q 500 1281 525 1292 l 483 1324 q 590 1351 532 1351 q 673 1325 643 1351 q 703 1253 703 1299 q 672 1178 703 1207 q 586 1143 640 1150 l 578 1081 l 522 1081 l 533 1176 q 611 1197 581 1179 q 642 1251 642 1214 q 583 1301 642 1301 m 967 985 q 930 878 967 917 q 818 829 893 839 l 743 292 q 636 68 724 151 q 400 -15 549 -15 q 198 51 265 -15 q 131 232 131 117 q 136 296 131 251 l 228 950 l 293 950 l 203 297 q 199 236 199 264 q 249 94 199 144 q 401 44 299 44 q 592 113 524 44 q 678 301 661 182 l 769 950 l 835 950 l 825 875 q 892 913 872 885 q 913 986 913 940 q 901 1054 913 1025 l 953 1065 q 967 985 967 1029 z "},"Ữ":{"ha":899,"x_min":131,"x_max":967,"o":"m 483 1167 q 440 1155 457 1167 q 396 1111 422 1143 l 358 1138 q 483 1221 419 1221 q 526 1213 507 1221 q 571 1188 544 1204 q 608 1166 592 1174 q 640 1158 624 1158 q 683 1173 663 1158 q 728 1219 703 1188 l 767 1196 q 642 1106 710 1106 q 595 1115 615 1106 q 547 1140 575 1124 q 513 1160 528 1154 q 483 1167 499 1167 m 967 985 q 930 878 967 917 q 818 829 893 839 l 743 292 q 636 68 724 151 q 400 -15 549 -15 q 198 51 265 -15 q 131 232 131 117 q 136 296 131 251 l 228 950 l 293 950 l 203 297 q 199 236 199 264 q 249 94 199 144 q 401 44 299 44 q 592 113 524 44 q 678 301 661 182 l 769 950 l 835 950 l 825 875 q 892 913 872 885 q 913 986 913 940 q 901 1054 913 1025 l 953 1065 q 967 985 967 1029 z "},"Ű":{"ha":899,"x_min":131,"x_max":835,"o":"m 743 292 q 636 68 724 151 q 400 -15 549 -15 q 198 51 265 -15 q 131 232 131 117 q 136 296 131 251 l 228 950 l 293 950 l 203 297 q 199 236 199 264 q 249 94 199 144 q 401 44 299 44 q 592 113 524 44 q 678 301 661 182 l 769 950 l 835 950 l 743 292 m 732 1292 l 788 1260 l 640 1071 l 599 1092 l 732 1292 m 564 1290 l 619 1260 l 482 1076 l 442 1097 l 564 1290 z "},"Ȗ":{"ha":899,"x_min":131,"x_max":835,"o":"m 743 292 q 636 68 724 151 q 400 -15 549 -15 q 198 51 265 -15 q 131 232 131 117 q 136 296 131 251 l 228 950 l 293 950 l 203 297 q 199 236 199 264 q 249 94 199 144 q 401 44 299 44 q 592 113 524 44 q 678 301 661 182 l 769 950 l 835 950 l 743 292 m 379 1107 q 449 1209 397 1171 q 568 1247 500 1247 q 678 1208 636 1247 q 721 1103 719 1168 l 675 1097 q 565 1193 660 1193 q 478 1167 515 1193 q 422 1093 442 1142 l 379 1107 z "},"Ū":{"ha":899,"x_min":131,"x_max":835,"o":"m 743 292 q 636 68 724 151 q 400 -15 549 -15 q 198 51 265 -15 q 131 232 131 117 q 136 296 131 251 l 228 950 l 293 950 l 203 297 q 199 236 199 264 q 249 94 199 144 q 401 44 299 44 q 592 113 524 44 q 678 301 661 182 l 769 950 l 835 950 l 743 292 m 714 1118 l 396 1118 l 406 1172 l 722 1172 l 714 1118 z "},"Ų":{"ha":899,"x_min":131,"x_max":835,"o":"m 835 950 l 743 292 q 664 97 726 175 q 494 -6 601 19 q 374 -81 411 -44 q 338 -165 338 -117 q 360 -219 338 -200 q 431 -239 383 -239 q 507 -231 461 -239 l 500 -287 q 422 -296 458 -296 q 312 -261 350 -296 q 274 -172 274 -226 q 305 -84 274 -122 q 400 -15 336 -46 q 198 51 265 -15 q 131 232 131 117 q 136 296 131 251 l 228 950 l 293 950 l 203 297 q 199 236 199 264 q 249 94 199 144 q 401 44 299 44 q 592 113 524 44 q 678 301 661 182 l 769 950 l 835 950 z "},"Ʊ":{"ha":957,"x_min":103,"x_max":914,"o":"m 431 -15 q 190 82 278 -15 q 103 350 103 179 q 172 663 103 522 q 371 893 242 804 l 204 893 l 211 950 l 458 950 l 453 892 q 242 661 314 806 q 171 346 171 517 q 240 122 171 200 q 432 43 310 43 q 639 114 553 43 q 769 303 725 185 q 813 560 813 421 q 661 893 813 776 l 667 950 l 914 950 l 906 890 l 740 890 q 843 759 806 838 q 881 563 881 681 q 826 272 881 404 q 670 63 772 140 q 431 -15 568 -15 z "},"Ů":{"ha":899,"x_min":131,"x_max":835,"o":"m 743 292 q 636 68 724 151 q 400 -15 549 -15 q 198 51 265 -15 q 131 232 131 117 q 136 296 131 251 l 228 950 l 293 950 l 203 297 q 199 236 199 264 q 249 94 199 144 q 401 44 299 44 q 592 113 524 44 q 678 301 661 182 l 769 950 l 835 950 l 743 292 m 581 1307 q 665 1276 633 1307 q 697 1199 697 1246 q 656 1098 697 1138 q 553 1058 614 1058 q 468 1090 500 1058 q 436 1168 436 1121 q 478 1268 436 1229 q 581 1307 519 1307 m 579 1265 q 513 1238 538 1265 q 488 1168 488 1210 q 505 1119 488 1138 q 554 1101 522 1101 q 622 1130 597 1101 q 646 1197 646 1158 q 628 1247 646 1229 q 579 1265 611 1265 z "},"Ũ":{"ha":899,"x_min":131,"x_max":835,"o":"m 743 292 q 636 68 724 151 q 400 -15 549 -15 q 198 51 265 -15 q 131 232 131 117 q 136 296 131 251 l 228 950 l 293 950 l 203 297 q 199 236 199 264 q 249 94 199 144 q 401 44 299 44 q 592 113 524 44 q 678 301 661 182 l 769 950 l 835 950 l 743 292 m 642 1106 q 595 1115 615 1106 q 547 1140 575 1124 q 513 1160 528 1154 q 483 1167 499 1167 q 440 1155 457 1167 q 396 1111 422 1143 l 358 1138 q 483 1221 419 1221 q 526 1213 507 1221 q 571 1188 544 1204 q 608 1166 592 1174 q 640 1158 624 1158 q 683 1173 663 1158 q 728 1219 703 1188 l 767 1196 q 642 1106 710 1106 z "},"Ṹ":{"ha":899,"x_min":131,"x_max":835,"o":"m 743 292 q 636 68 724 151 q 400 -15 549 -15 q 198 51 265 -15 q 131 232 131 117 q 136 296 131 251 l 228 950 l 293 950 l 203 297 q 199 236 199 264 q 249 94 199 144 q 401 44 299 44 q 592 113 524 44 q 678 301 661 182 l 769 950 l 835 950 l 743 292 m 636 1051 q 590 1060 610 1051 q 542 1086 569 1069 q 508 1106 522 1100 q 478 1113 493 1113 q 434 1101 451 1113 q 390 1057 417 1089 l 353 1083 q 478 1167 414 1167 q 520 1158 501 1167 q 565 1133 539 1150 q 602 1112 586 1119 q 635 1104 618 1104 q 677 1119 657 1104 q 722 1165 697 1133 l 761 1142 q 636 1051 704 1051 m 692 1371 l 714 1310 l 435 1206 l 419 1244 l 692 1371 z "},"V":{"ha":751,"x_min":110,"x_max":806,"o":"m 806 950 l 363 0 l 286 0 l 110 950 l 178 950 l 332 67 l 736 950 l 806 950 z "},"Ʋ":{"ha":882,"x_min":128,"x_max":821,"o":"m 710 964 q 792 935 763 964 q 821 851 821 907 q 818 821 821 843 l 758 403 q 683 175 739 269 q 545 33 628 81 q 365 -15 463 -15 q 192 46 256 -15 q 128 210 128 107 q 132 261 128 235 l 228 950 l 293 950 l 197 263 q 194 215 194 246 q 239 88 194 132 q 367 44 283 44 q 581 139 493 44 q 693 413 668 233 l 751 825 q 754 850 754 844 q 700 908 754 908 q 639 894 665 908 l 619 942 q 710 964 660 964 z "},"Ʌ":{"ha":778,"x_min":-24,"x_max":699,"o":"m 513 950 l 699 0 l 631 0 l 464 896 l 44 0 l -24 0 l 431 950 l 513 950 z "},"W":{"ha":1114,"x_min":128,"x_max":1151,"o":"m 1151 950 l 804 0 l 724 0 l 629 878 l 288 0 l 207 0 l 128 950 l 193 950 l 258 67 l 600 950 l 676 950 l 771 64 l 1088 950 l 1151 950 z "},"Ẃ":{"ha":1114,"x_min":128,"x_max":1151,"o":"m 1151 950 l 804 0 l 724 0 l 629 878 l 288 0 l 207 0 l 128 950 l 193 950 l 258 67 l 600 950 l 676 950 l 771 64 l 1088 950 l 1151 950 m 774 1219 l 796 1158 l 517 1054 l 501 1093 l 774 1219 z "},"Ŵ":{"ha":1114,"x_min":128,"x_max":1151,"o":"m 1151 950 l 804 0 l 724 0 l 629 878 l 288 0 l 207 0 l 128 950 l 193 950 l 258 67 l 600 950 l 676 950 l 771 64 l 1088 950 l 1151 950 m 483 1060 l 457 1096 l 651 1232 l 689 1232 l 846 1094 l 815 1060 l 665 1171 l 483 1060 z "},"Ẅ":{"ha":1114,"x_min":128,"x_max":1151,"o":"m 1151 950 l 804 0 l 724 0 l 629 878 l 288 0 l 207 0 l 128 950 l 193 950 l 258 67 l 600 950 l 676 950 l 771 64 l 1088 950 l 1151 950 m 536 1100 q 506 1111 518 1100 q 494 1140 494 1122 q 509 1177 494 1163 q 546 1192 524 1192 q 577 1181 565 1192 q 589 1151 589 1169 q 574 1115 589 1129 q 536 1100 558 1100 m 789 1100 q 758 1111 769 1100 q 746 1140 746 1122 q 760 1177 746 1163 q 797 1192 775 1192 q 828 1181 817 1192 q 840 1151 840 1169 q 826 1115 840 1129 q 789 1100 811 1100 z "},"Ẁ":{"ha":1114,"x_min":128,"x_max":1151,"o":"m 1151 950 l 804 0 l 724 0 l 629 878 l 288 0 l 207 0 l 128 950 l 193 950 l 258 67 l 600 950 l 676 950 l 771 64 l 1088 950 l 1151 950 m 565 1218 l 803 1093 l 779 1054 l 533 1158 l 565 1218 z "},"Ⱳ":{"ha":1168,"x_min":128,"x_max":1324,"o":"m 288 0 l 629 878 l 724 0 l 804 0 l 1101 829 q 1140 892 1117 874 q 1199 910 1163 910 q 1247 899 1225 910 q 1290 868 1268 888 l 1324 906 q 1197 964 1268 964 q 1105 938 1142 964 q 1046 846 1068 911 l 771 64 l 676 950 l 600 950 l 258 67 l 193 950 l 128 950 l 207 0 l 288 0 z "},"Ƿ":{"ha":785,"x_min":107,"x_max":768,"o":"m 549 964 q 708 908 649 964 q 768 751 768 851 q 663 506 768 597 q 368 350 558 415 l 215 299 l 174 0 l 107 0 l 242 950 l 307 950 l 296 872 q 549 964 410 964 m 369 408 q 614 542 528 463 q 700 750 700 622 q 658 867 700 826 q 542 907 617 907 q 405 881 467 907 q 288 810 343 854 l 224 358 l 369 408 z "},"X":{"ha":700,"x_min":-35,"x_max":724,"o":"m 724 950 l 406 514 l 631 0 l 560 0 l 363 467 l 39 0 l -35 0 l 326 513 l 129 950 l 201 950 l 371 558 l 650 950 l 724 950 z "},"Y":{"ha":711,"x_min":104,"x_max":771,"o":"m 771 950 l 392 374 l 339 0 l 272 0 l 325 372 l 104 950 l 175 950 l 364 435 l 696 950 l 771 950 z "},"Ý":{"ha":711,"x_min":104,"x_max":771,"o":"m 771 950 l 392 374 l 339 0 l 272 0 l 325 372 l 104 950 l 175 950 l 364 435 l 696 950 l 771 950 m 569 1219 l 592 1158 l 313 1054 l 297 1093 l 569 1219 z "},"Ŷ":{"ha":711,"x_min":104,"x_max":771,"o":"m 771 950 l 392 374 l 339 0 l 272 0 l 325 372 l 104 950 l 175 950 l 364 435 l 696 950 l 771 950 m 279 1060 l 253 1096 l 447 1232 l 485 1232 l 642 1094 l 611 1060 l 461 1171 l 279 1060 z "},"Ÿ":{"ha":711,"x_min":104,"x_max":771,"o":"m 771 950 l 392 374 l 339 0 l 272 0 l 325 372 l 104 950 l 175 950 l 364 435 l 696 950 l 771 950 m 332 1100 q 302 1111 314 1100 q 290 1140 290 1122 q 305 1177 290 1163 q 342 1192 319 1192 q 373 1181 361 1192 q 385 1151 385 1169 q 369 1115 385 1129 q 332 1100 354 1100 m 585 1100 q 553 1111 565 1100 q 542 1140 542 1122 q 556 1177 542 1163 q 593 1192 571 1192 q 624 1181 613 1192 q 636 1151 636 1169 q 622 1115 636 1129 q 585 1100 607 1100 z "},"Ỵ":{"ha":711,"x_min":104,"x_max":771,"o":"m 771 950 l 392 374 l 339 0 l 272 0 l 325 372 l 104 950 l 175 950 l 364 435 l 696 950 l 771 950 m 288 -125 q 321 -137 308 -125 q 333 -168 333 -149 q 318 -207 333 -192 q 279 -222 303 -222 q 247 -210 258 -222 q 235 -179 235 -199 q 250 -140 235 -156 q 288 -125 265 -125 z "},"Ỳ":{"ha":711,"x_min":104,"x_max":771,"o":"m 771 950 l 392 374 l 339 0 l 272 0 l 325 372 l 104 950 l 175 950 l 364 435 l 696 950 l 771 950 m 361 1218 l 599 1093 l 575 1054 l 329 1158 l 361 1218 z "},"Ƴ":{"ha":751,"x_min":104,"x_max":908,"o":"m 325 372 l 104 950 l 176 950 l 365 435 l 617 853 q 691 939 654 914 q 781 964 728 964 q 908 906 853 964 l 875 868 q 782 910 828 910 q 723 892 747 910 q 671 829 699 875 l 392 374 l 339 0 l 272 0 l 325 372 z "},"Ỷ":{"ha":711,"x_min":104,"x_max":771,"o":"m 771 950 l 392 374 l 339 0 l 272 0 l 325 372 l 104 950 l 175 950 l 364 435 l 696 950 l 771 950 m 436 1176 q 514 1197 483 1179 q 544 1251 544 1214 q 486 1301 544 1301 q 444 1297 461 1301 q 403 1281 428 1292 l 386 1324 q 493 1351 435 1351 q 576 1325 546 1351 q 606 1253 606 1299 q 574 1178 606 1207 q 489 1143 543 1150 l 481 1081 l 425 1081 l 436 1176 z "},"Ȳ":{"ha":711,"x_min":104,"x_max":771,"o":"m 771 950 l 392 374 l 339 0 l 272 0 l 325 372 l 104 950 l 175 950 l 364 435 l 696 950 l 771 950 m 617 1118 l 299 1118 l 308 1172 l 625 1172 l 617 1118 z "},"Ʀ":{"ha":810,"x_min":107,"x_max":735,"o":"m 735 556 q 676 376 735 454 q 482 267 617 297 l 683 -178 l 611 -178 l 417 257 l 210 257 l 174 0 l 107 0 l 242 950 l 307 950 l 282 772 l 438 772 q 662 718 589 772 q 735 556 735 664 m 390 313 q 552 349 490 313 q 640 440 614 385 q 667 557 667 496 q 613 677 667 639 q 440 715 560 715 l 274 715 l 218 313 l 390 313 z "},"Ɏ":{"ha":715,"x_min":82,"x_max":774,"o":"m 689 821 l 758 821 l 750 772 l 657 772 l 396 374 l 342 0 l 275 0 l 328 372 l 176 772 l 82 772 l 89 821 l 157 821 l 108 950 l 179 950 l 226 821 l 617 821 l 700 950 l 774 950 l 689 821 m 367 435 l 585 772 l 244 772 l 367 435 z "},"Ỹ":{"ha":711,"x_min":104,"x_max":771,"o":"m 771 950 l 392 374 l 339 0 l 272 0 l 325 372 l 104 950 l 175 950 l 364 435 l 696 950 l 771 950 m 544 1106 q 498 1115 518 1106 q 450 1140 478 1124 q 416 1160 431 1154 q 386 1167 401 1167 q 342 1155 360 1167 q 299 1111 325 1143 l 261 1138 q 386 1221 322 1221 q 428 1213 410 1221 q 474 1188 447 1204 q 510 1166 494 1174 q 543 1158 526 1158 q 585 1173 565 1158 q 631 1219 606 1188 l 669 1196 q 544 1106 613 1106 z "},"Z":{"ha":711,"x_min":0,"x_max":726,"o":"m 0 0 l 8 57 l 642 890 l 178 890 l 186 950 l 726 950 l 719 894 l 88 60 l 590 60 l 572 0 l 0 0 z "},"Ź":{"ha":711,"x_min":0,"x_max":726,"o":"m 0 0 l 8 57 l 642 890 l 178 890 l 186 950 l 726 950 l 719 894 l 88 60 l 590 60 l 572 0 l 0 0 m 578 1219 l 600 1158 l 321 1054 l 306 1093 l 578 1219 z "},"Ž":{"ha":711,"x_min":0,"x_max":726,"o":"m 0 0 l 8 57 l 642 890 l 178 890 l 186 950 l 726 950 l 719 894 l 88 60 l 590 60 l 572 0 l 0 0 m 643 1222 l 671 1188 l 476 1051 l 438 1051 l 279 1188 l 311 1221 l 464 1113 l 643 1222 z "},"Ż":{"ha":711,"x_min":0,"x_max":726,"o":"m 0 0 l 8 57 l 642 890 l 178 890 l 186 950 l 726 950 l 719 894 l 88 60 l 590 60 l 572 0 l 0 0 m 471 1111 q 438 1123 450 1111 q 425 1154 425 1135 q 440 1193 425 1178 q 479 1208 456 1208 q 512 1197 500 1208 q 524 1165 524 1185 q 508 1126 524 1142 q 471 1111 493 1111 z "},"Ẓ":{"ha":711,"x_min":0,"x_max":726,"o":"m 0 0 l 8 57 l 642 890 l 178 890 l 186 950 l 726 950 l 719 894 l 88 60 l 590 60 l 572 0 l 0 0 m 269 -125 q 303 -137 290 -125 q 315 -168 315 -149 q 300 -207 315 -192 q 261 -222 285 -222 q 228 -210 240 -222 q 217 -179 217 -199 q 232 -140 217 -156 q 269 -125 247 -125 z "},"Ȥ":{"ha":711,"x_min":0,"x_max":726,"o":"m 719 894 l 88 60 l 586 60 l 578 0 l 563 -107 q 500 -238 549 -194 q 379 -282 451 -282 q 249 -235 308 -282 l 282 -193 q 326 -217 304 -208 q 379 -225 347 -225 q 497 -103 479 -225 l 513 0 l 0 0 l 8 57 l 642 890 l 178 890 l 186 950 l 726 950 l 719 894 z "},"Ƶ":{"ha":711,"x_min":0,"x_max":726,"o":"m 726 950 l 719 894 l 425 506 l 569 506 l 560 450 l 383 450 l 88 60 l 590 60 l 572 0 l 0 0 l 8 57 l 307 450 l 157 450 l 165 506 l 349 506 l 642 890 l 178 890 l 186 950 l 726 950 z "},"ʙ":{"ha":719,"x_min":101,"x_max":651,"o":"m 490 393 q 604 349 564 386 q 644 246 644 313 q 556 62 644 124 q 325 0 468 0 l 101 0 l 201 718 q 419 739 329 739 q 592 694 532 739 q 651 572 651 649 q 607 454 650 500 q 490 393 564 408 m 419 685 q 263 671 332 685 l 225 414 l 404 414 q 536 458 488 414 q 585 572 585 501 q 419 685 585 685 m 324 56 q 508 101 438 56 q 578 246 578 147 q 536 334 578 307 q 411 361 494 361 l 218 361 l 174 56 l 324 56 z "},"ɢ":{"ha":767,"x_min":86,"x_max":672,"o":"m 461 742 q 576 722 526 742 q 672 664 626 703 l 632 624 q 552 670 593 656 q 461 685 511 685 q 295 628 365 685 q 189 478 225 572 q 153 278 153 385 q 365 43 153 43 q 542 82 460 43 l 576 338 l 418 338 l 418 392 l 649 392 l 603 50 q 485 3 547 19 q 363 -12 424 -12 q 159 61 232 -12 q 86 279 86 135 q 133 510 86 404 q 265 678 179 615 q 461 742 350 742 z "},"ʛ":{"ha":767,"x_min":86,"x_max":949,"o":"m 815 1029 q 949 982 890 1029 l 917 942 q 872 967 894 958 q 817 975 849 975 q 739 946 771 975 q 699 853 707 917 l 672 664 l 639 631 q 460 685 556 685 q 294 628 364 685 q 188 479 225 572 q 151 278 151 386 q 207 100 151 157 q 365 43 263 43 q 542 82 460 43 l 576 338 l 417 338 l 417 392 l 649 392 l 603 50 q 363 -12 486 -12 q 158 62 231 -12 q 86 282 86 136 q 133 511 86 406 q 265 679 181 617 q 458 742 350 742 q 613 703 549 742 l 635 854 q 695 985 647 942 q 815 1029 743 1029 z "},"ʜ":{"ha":813,"x_min":100,"x_max":711,"o":"m 544 0 l 594 349 l 214 349 l 164 0 l 100 0 l 203 725 l 267 725 l 222 404 l 603 404 l 647 725 l 711 725 l 608 0 l 544 0 z "},"ɪ":{"ha":425,"x_min":-18,"x_max":442,"o":"m 435 674 l 288 674 l 200 51 l 347 51 l 340 0 l -18 0 l -11 51 l 135 51 l 224 674 l 76 674 l 85 725 l 442 725 l 435 674 z "},"ʟ":{"ha":568,"x_min":100,"x_max":508,"o":"m 267 725 l 172 57 l 508 57 l 490 0 l 100 0 l 203 725 l 267 725 z "},"ɴ":{"ha":814,"x_min":100,"x_max":714,"o":"m 611 0 l 529 0 l 247 660 q 215 379 240 560 l 161 0 l 100 0 l 203 725 l 285 725 l 567 64 q 592 300 576 182 l 653 725 l 714 725 l 611 0 z "},"ɶ":{"ha":999,"x_min":86,"x_max":986,"o":"m 969 671 l 617 671 q 680 576 657 639 q 701 435 703 514 q 700 406 701 415 l 888 406 l 879 351 l 694 351 q 638 178 681 257 q 526 54 594 99 l 897 54 l 890 0 l 438 0 q 342 -15 385 -15 q 153 62 221 -15 q 86 276 86 139 q 122 487 86 381 q 239 666 158 593 q 444 739 319 739 q 539 725 490 739 l 986 725 l 969 671 m 635 454 q 585 626 635 567 q 443 685 535 685 q 274 618 339 685 q 181 457 210 551 q 153 272 153 363 q 203 101 153 160 q 344 42 253 42 q 513 107 447 42 q 606 267 578 172 q 635 454 635 363 z "},"ʀ":{"ha":708,"x_min":100,"x_max":636,"o":"m 636 540 q 580 394 636 449 q 426 315 524 339 l 594 0 l 524 0 l 365 307 l 208 307 l 164 0 l 100 0 l 203 725 l 378 725 q 636 540 636 725 m 336 360 q 508 407 446 360 q 569 540 569 454 q 523 640 569 608 q 371 671 476 671 l 260 671 l 215 360 l 336 360 z "},"ʁ":{"ha":710,"x_min":100,"x_max":697,"o":"m 442 408 q 552 348 513 392 q 592 238 592 304 q 508 60 592 119 q 279 0 424 0 l 100 0 l 203 725 l 267 725 l 224 418 l 383 418 l 626 725 l 697 725 l 442 408 m 279 54 q 460 99 396 54 q 525 238 525 143 q 350 364 525 364 l 215 364 l 172 54 l 279 54 z "},"ʏ":{"ha":603,"x_min":75,"x_max":631,"o":"m 631 725 l 325 289 l 283 0 l 219 0 l 261 288 l 75 725 l 142 725 l 297 340 l 557 725 l 631 725 z "},"a":{"ha":772,"x_min":85,"x_max":676,"o":"m 453 739 q 570 724 519 739 q 676 681 621 710 l 600 156 q 596 108 596 129 q 606 60 596 79 q 643 32 617 42 l 625 -15 q 560 22 582 -3 q 538 99 538 47 l 539 119 q 438 21 496 57 q 313 -15 381 -15 q 145 60 206 -15 q 85 267 85 135 q 123 484 85 375 q 244 666 161 593 q 453 739 326 739 m 454 686 q 283 621 350 686 q 184 459 215 556 q 153 268 153 363 q 197 99 153 157 q 319 40 240 40 q 441 81 386 40 q 544 201 496 122 l 608 649 q 454 686 542 686 z "},"á":{"ha":772,"x_min":85,"x_max":676,"o":"m 453 739 q 570 724 519 739 q 676 681 621 710 l 600 156 q 596 108 596 129 q 606 60 596 79 q 643 32 617 42 l 625 -15 q 560 22 582 -3 q 538 99 538 47 l 539 119 q 438 21 496 57 q 313 -15 381 -15 q 145 60 206 -15 q 85 267 85 135 q 123 484 85 375 q 244 666 161 593 q 453 739 326 739 m 454 686 q 283 621 350 686 q 184 459 215 556 q 153 268 153 363 q 197 99 153 157 q 319 40 240 40 q 441 81 386 40 q 544 201 496 122 l 608 649 q 454 686 542 686 m 631 1078 l 654 1017 l 375 900 l 357 938 l 631 1078 z "},"ă":{"ha":772,"x_min":85,"x_max":682,"o":"m 453 739 q 570 724 519 739 q 676 681 621 710 l 600 156 q 596 108 596 129 q 606 60 596 79 q 643 32 617 42 l 625 -15 q 560 22 582 -3 q 538 99 538 47 l 539 119 q 438 21 496 57 q 313 -15 381 -15 q 145 60 206 -15 q 85 267 85 135 q 123 484 85 375 q 244 666 161 593 q 453 739 326 739 m 454 686 q 283 621 350 686 q 184 459 215 556 q 153 268 153 363 q 197 99 153 157 q 319 40 240 40 q 441 81 386 40 q 544 201 496 122 l 608 649 q 454 686 542 686 m 494 911 q 384 951 426 911 q 342 1057 342 992 l 388 1063 q 494 967 400 967 q 582 992 544 967 q 639 1065 619 1018 l 682 1053 q 613 950 664 989 q 494 911 561 911 z "},"ắ":{"ha":772,"x_min":85,"x_max":676,"o":"m 626 1178 l 668 1133 l 488 972 l 458 1001 l 626 1178 m 485 828 q 375 865 418 828 q 329 958 332 903 l 374 964 q 410 905 381 926 q 485 883 439 883 q 570 906 533 883 q 625 968 607 929 l 669 954 q 601 863 653 899 q 485 828 550 828 m 453 739 q 570 724 519 739 q 676 681 621 710 l 600 156 q 596 108 596 129 q 606 60 596 79 q 643 32 617 42 l 625 -15 q 560 22 582 -3 q 538 99 538 47 l 539 119 q 438 21 496 57 q 313 -15 381 -15 q 145 60 206 -15 q 85 267 85 135 q 123 484 85 375 q 244 666 161 593 q 453 739 326 739 m 454 686 q 283 621 350 686 q 184 459 215 556 q 153 268 153 363 q 197 99 153 157 q 319 40 240 40 q 441 81 386 40 q 544 201 496 122 l 608 649 q 454 686 542 686 z "},"ặ":{"ha":772,"x_min":85,"x_max":682,"o":"m 453 739 q 570 724 519 739 q 676 681 621 710 l 600 156 q 596 108 596 129 q 606 60 596 79 q 643 32 617 42 l 625 -15 q 560 22 582 -3 q 538 99 538 47 l 539 119 q 438 21 496 57 q 313 -15 381 -15 q 145 60 206 -15 q 85 267 85 135 q 123 484 85 375 q 244 666 161 593 q 453 739 326 739 m 454 686 q 283 621 350 686 q 184 459 215 556 q 153 268 153 363 q 197 99 153 157 q 319 40 240 40 q 441 81 386 40 q 544 201 496 122 l 608 649 q 454 686 542 686 m 494 911 q 384 951 426 911 q 342 1057 342 992 l 388 1063 q 494 967 400 967 q 582 992 544 967 q 639 1065 619 1018 l 682 1053 q 613 950 664 989 q 494 911 561 911 m 356 -125 q 389 -137 376 -125 q 401 -168 401 -149 q 386 -207 401 -192 q 347 -222 371 -222 q 315 -210 326 -222 q 303 -179 303 -199 q 318 -140 303 -156 q 356 -125 333 -125 z "},"ằ":{"ha":772,"x_min":85,"x_max":676,"o":"m 400 1178 l 519 997 l 488 972 l 350 1138 l 400 1178 m 483 828 q 374 865 417 828 q 328 958 331 903 l 372 964 q 408 905 379 926 q 483 883 438 883 q 569 906 532 883 q 624 968 606 929 l 668 954 q 600 863 651 899 q 483 828 549 828 m 453 739 q 570 724 519 739 q 676 681 621 710 l 600 156 q 596 108 596 129 q 606 60 596 79 q 643 32 617 42 l 625 -15 q 560 22 582 -3 q 538 99 538 47 l 539 119 q 438 21 496 57 q 313 -15 381 -15 q 145 60 206 -15 q 85 267 85 135 q 123 484 85 375 q 244 666 161 593 q 453 739 326 739 m 454 686 q 283 621 350 686 q 184 459 215 556 q 153 268 153 363 q 197 99 153 157 q 319 40 240 40 q 441 81 386 40 q 544 201 496 122 l 608 649 q 454 686 542 686 z "},"ẳ":{"ha":772,"x_min":85,"x_max":676,"o":"m 453 739 q 570 724 519 739 q 676 681 621 710 l 600 156 q 596 108 596 129 q 606 60 596 79 q 643 32 617 42 l 625 -15 q 560 22 582 -3 q 538 99 538 47 l 539 119 q 438 21 496 57 q 313 -15 381 -15 q 145 60 206 -15 q 85 267 85 135 q 123 484 85 375 q 244 666 161 593 q 453 739 326 739 m 454 686 q 283 621 350 686 q 184 459 215 556 q 153 268 153 363 q 197 99 153 157 q 319 40 240 40 q 441 81 386 40 q 544 201 496 122 l 608 649 q 454 686 542 686 m 485 828 q 375 865 418 828 q 329 958 332 903 l 374 964 q 410 905 381 926 q 485 883 439 883 q 570 906 533 883 q 625 968 607 929 l 669 954 q 601 863 653 899 q 485 828 550 828 m 479 1053 q 588 1128 588 1058 q 531 1178 588 1178 q 488 1172 506 1178 q 447 1156 469 1167 l 429 1200 q 481 1221 456 1214 q 538 1228 506 1228 q 619 1201 589 1228 q 649 1128 649 1174 q 617 1053 649 1082 q 532 1018 586 1025 l 522 942 l 467 942 l 479 1053 z "},"ẵ":{"ha":772,"x_min":85,"x_max":718,"o":"m 593 1025 q 547 1034 567 1025 q 499 1060 526 1043 q 465 1080 479 1074 q 435 1086 450 1086 q 391 1074 408 1086 q 347 1031 374 1063 l 310 1057 q 435 1140 371 1140 q 477 1132 458 1140 q 522 1107 496 1124 q 559 1085 543 1093 q 592 1078 575 1078 q 634 1092 614 1078 q 679 1139 654 1107 l 718 1115 q 593 1025 661 1025 m 486 828 q 376 865 419 828 q 331 958 333 903 l 375 964 q 411 905 382 926 q 486 883 440 883 q 572 906 535 883 q 626 968 608 929 l 671 954 q 603 863 654 899 q 486 828 551 828 m 453 739 q 570 724 519 739 q 676 681 621 710 l 600 156 q 596 108 596 129 q 606 60 596 79 q 643 32 617 42 l 625 -15 q 560 22 582 -3 q 538 99 538 47 l 539 119 q 438 21 496 57 q 313 -15 381 -15 q 145 60 206 -15 q 85 267 85 135 q 123 484 85 375 q 244 666 161 593 q 453 739 326 739 m 454 686 q 283 621 350 686 q 184 459 215 556 q 153 268 153 363 q 197 99 153 157 q 319 40 240 40 q 441 81 386 40 q 544 201 496 122 l 608 649 q 454 686 542 686 z "},"ǎ":{"ha":772,"x_min":85,"x_max":706,"o":"m 453 739 q 570 724 519 739 q 676 681 621 710 l 600 156 q 596 108 596 129 q 606 60 596 79 q 643 32 617 42 l 625 -15 q 560 22 582 -3 q 538 99 538 47 l 539 119 q 438 21 496 57 q 313 -15 381 -15 q 145 60 206 -15 q 85 267 85 135 q 123 484 85 375 q 244 666 161 593 q 453 739 326 739 m 454 686 q 283 621 350 686 q 184 459 215 556 q 153 268 153 363 q 197 99 153 157 q 319 40 240 40 q 441 81 386 40 q 544 201 496 122 l 608 649 q 454 686 542 686 m 678 1061 l 706 1026 l 510 882 l 471 882 l 314 1026 l 346 1061 l 496 943 l 678 1061 z "},"â":{"ha":772,"x_min":85,"x_max":692,"o":"m 453 739 q 570 724 519 739 q 676 681 621 710 l 600 156 q 596 108 596 129 q 606 60 596 79 q 643 32 617 42 l 625 -15 q 560 22 582 -3 q 538 99 538 47 l 539 119 q 438 21 496 57 q 313 -15 381 -15 q 145 60 206 -15 q 85 267 85 135 q 123 484 85 375 q 244 666 161 593 q 453 739 326 739 m 454 686 q 283 621 350 686 q 184 459 215 556 q 153 268 153 363 q 197 99 153 157 q 319 40 240 40 q 441 81 386 40 q 544 201 496 122 l 608 649 q 454 686 542 686 m 329 899 l 300 933 l 497 1076 l 535 1076 l 692 933 l 660 899 l 510 1015 l 329 899 z "},"ấ":{"ha":772,"x_min":85,"x_max":807,"o":"m 765 1158 l 807 1114 l 626 953 l 597 982 l 765 1158 m 313 814 l 286 850 l 481 986 l 518 986 l 675 849 l 644 814 l 494 925 l 313 814 m 453 739 q 570 724 519 739 q 676 681 621 710 l 600 156 q 596 108 596 129 q 606 60 596 79 q 643 32 617 42 l 625 -15 q 560 22 582 -3 q 538 99 538 47 l 539 119 q 438 21 496 57 q 313 -15 381 -15 q 145 60 206 -15 q 85 267 85 135 q 123 484 85 375 q 244 666 161 593 q 453 739 326 739 m 454 686 q 283 621 350 686 q 184 459 215 556 q 153 268 153 363 q 197 99 153 157 q 319 40 240 40 q 441 81 386 40 q 544 201 496 122 l 608 649 q 454 686 542 686 z "},"ậ":{"ha":772,"x_min":85,"x_max":692,"o":"m 453 739 q 570 724 519 739 q 676 681 621 710 l 600 156 q 596 108 596 129 q 606 60 596 79 q 643 32 617 42 l 625 -15 q 560 22 582 -3 q 538 99 538 47 l 539 119 q 438 21 496 57 q 313 -15 381 -15 q 145 60 206 -15 q 85 267 85 135 q 123 484 85 375 q 244 666 161 593 q 453 739 326 739 m 454 686 q 283 621 350 686 q 184 459 215 556 q 153 268 153 363 q 197 99 153 157 q 319 40 240 40 q 441 81 386 40 q 544 201 496 122 l 608 649 q 454 686 542 686 m 329 899 l 300 933 l 497 1076 l 535 1076 l 692 933 l 660 899 l 510 1015 l 329 899 m 356 -125 q 389 -137 376 -125 q 401 -168 401 -149 q 386 -207 401 -192 q 347 -222 371 -222 q 315 -210 326 -222 q 303 -179 303 -199 q 318 -140 303 -156 q 356 -125 333 -125 z "},"ầ":{"ha":772,"x_min":85,"x_max":676,"o":"m 264 1158 l 383 978 l 351 953 l 214 1118 l 264 1158 m 313 814 l 286 850 l 481 986 l 518 986 l 675 849 l 644 814 l 494 925 l 313 814 m 453 739 q 570 724 519 739 q 676 681 621 710 l 600 156 q 596 108 596 129 q 606 60 596 79 q 643 32 617 42 l 625 -15 q 560 22 582 -3 q 538 99 538 47 l 539 119 q 438 21 496 57 q 313 -15 381 -15 q 145 60 206 -15 q 85 267 85 135 q 123 484 85 375 q 244 666 161 593 q 453 739 326 739 m 454 686 q 283 621 350 686 q 184 459 215 556 q 153 268 153 363 q 197 99 153 157 q 319 40 240 40 q 441 81 386 40 q 544 201 496 122 l 608 649 q 454 686 542 686 z "},"ẩ":{"ha":772,"x_min":85,"x_max":821,"o":"m 453 739 q 570 724 519 739 q 676 681 621 710 l 600 156 q 596 108 596 129 q 606 60 596 79 q 643 32 617 42 l 625 -15 q 560 22 582 -3 q 538 99 538 47 l 539 119 q 438 21 496 57 q 313 -15 381 -15 q 145 60 206 -15 q 85 267 85 135 q 123 484 85 375 q 244 666 161 593 q 453 739 326 739 m 454 686 q 283 621 350 686 q 184 459 215 556 q 153 268 153 363 q 197 99 153 157 q 319 40 240 40 q 441 81 386 40 q 544 201 496 122 l 608 649 q 454 686 542 686 m 308 814 l 282 850 l 476 986 l 514 986 l 671 849 l 640 814 l 490 925 l 308 814 m 651 1056 q 760 1131 760 1061 q 703 1181 760 1181 q 660 1175 678 1181 q 619 1158 642 1169 l 601 1203 q 653 1224 628 1217 q 710 1231 678 1231 q 791 1203 761 1231 q 821 1131 821 1176 q 790 1056 821 1085 q 704 1021 758 1028 l 694 944 l 639 944 l 651 1056 z "},"ẫ":{"ha":772,"x_min":85,"x_max":715,"o":"m 590 1018 q 544 1027 564 1018 q 496 1053 524 1036 q 462 1073 476 1067 q 432 1079 447 1079 q 388 1067 406 1079 q 344 1024 371 1056 l 307 1050 q 432 1133 368 1133 q 474 1125 456 1133 q 519 1100 493 1117 q 556 1078 540 1086 q 589 1071 572 1071 q 631 1085 611 1071 q 676 1132 651 1100 l 715 1108 q 590 1018 658 1018 m 310 800 l 283 836 l 478 972 l 515 972 l 672 835 l 642 800 l 492 911 l 310 800 m 453 739 q 570 724 519 739 q 676 681 621 710 l 600 156 q 596 108 596 129 q 606 60 596 79 q 643 32 617 42 l 625 -15 q 560 22 582 -3 q 538 99 538 47 l 539 119 q 438 21 496 57 q 313 -15 381 -15 q 145 60 206 -15 q 85 267 85 135 q 123 484 85 375 q 244 666 161 593 q 453 739 326 739 m 454 686 q 283 621 350 686 q 184 459 215 556 q 153 268 153 363 q 197 99 153 157 q 319 40 240 40 q 441 81 386 40 q 544 201 496 122 l 608 649 q 454 686 542 686 z "},"ȁ":{"ha":772,"x_min":85,"x_max":676,"o":"m 453 739 q 570 724 519 739 q 676 681 621 710 l 600 156 q 596 108 596 129 q 606 60 596 79 q 643 32 617 42 l 625 -15 q 560 22 582 -3 q 538 99 538 47 l 539 119 q 438 21 496 57 q 313 -15 381 -15 q 145 60 206 -15 q 85 267 85 135 q 123 484 85 375 q 244 666 161 593 q 453 739 326 739 m 454 686 q 283 621 350 686 q 184 459 215 556 q 153 268 153 363 q 197 99 153 157 q 319 40 240 40 q 441 81 386 40 q 544 201 496 122 l 608 649 q 454 686 542 686 m 365 1117 l 443 917 l 397 896 l 301 1085 l 365 1117 m 533 1115 l 601 922 l 556 901 l 469 1085 l 533 1115 z "},"ä":{"ha":772,"x_min":85,"x_max":676,"o":"m 453 739 q 570 724 519 739 q 676 681 621 710 l 600 156 q 596 108 596 129 q 606 60 596 79 q 643 32 617 42 l 625 -15 q 560 22 582 -3 q 538 99 538 47 l 539 119 q 438 21 496 57 q 313 -15 381 -15 q 145 60 206 -15 q 85 267 85 135 q 123 484 85 375 q 244 666 161 593 q 453 739 326 739 m 454 686 q 283 621 350 686 q 184 459 215 556 q 153 268 153 363 q 197 99 153 157 q 319 40 240 40 q 441 81 386 40 q 544 201 496 122 l 608 649 q 454 686 542 686 m 372 925 q 342 936 354 925 q 331 965 331 947 q 345 1002 331 988 q 382 1017 360 1017 q 413 1006 401 1017 q 425 976 425 994 q 410 940 425 954 q 372 925 394 925 m 625 925 q 594 936 606 925 q 582 965 582 947 q 597 1002 582 988 q 633 1017 611 1017 q 665 1006 653 1017 q 676 976 676 994 q 662 940 676 954 q 625 925 647 925 z "},"ǟ":{"ha":772,"x_min":85,"x_max":676,"o":"m 453 739 q 570 724 519 739 q 676 681 621 710 l 600 156 q 596 108 596 129 q 606 60 596 79 q 643 32 617 42 l 625 -15 q 560 22 582 -3 q 538 99 538 47 l 539 119 q 438 21 496 57 q 313 -15 381 -15 q 145 60 206 -15 q 85 267 85 135 q 123 484 85 375 q 244 666 161 593 q 453 739 326 739 m 454 686 q 283 621 350 686 q 184 459 215 556 q 153 268 153 363 q 197 99 153 157 q 319 40 240 40 q 441 81 386 40 q 544 201 496 122 l 608 649 q 454 686 542 686 m 364 883 q 334 894 346 883 q 322 924 322 906 q 337 960 322 946 q 374 975 351 975 q 405 964 393 975 q 417 935 417 953 q 401 898 417 913 q 364 883 386 883 m 617 883 q 585 894 597 883 q 574 924 574 906 q 588 960 574 946 q 625 975 603 975 q 656 964 644 975 q 668 935 668 953 q 653 898 668 913 q 617 883 639 883 m 668 1064 l 350 1064 l 360 1118 l 676 1118 l 668 1064 z "},"ȧ":{"ha":772,"x_min":85,"x_max":676,"o":"m 453 739 q 570 724 519 739 q 676 681 621 710 l 600 156 q 596 108 596 129 q 606 60 596 79 q 643 32 617 42 l 625 -15 q 560 22 582 -3 q 538 99 538 47 l 539 119 q 438 21 496 57 q 313 -15 381 -15 q 145 60 206 -15 q 85 267 85 135 q 123 484 85 375 q 244 666 161 593 q 453 739 326 739 m 454 686 q 283 621 350 686 q 184 459 215 556 q 153 268 153 363 q 197 99 153 157 q 319 40 240 40 q 441 81 386 40 q 544 201 496 122 l 608 649 q 454 686 542 686 m 503 936 q 469 948 482 936 q 457 979 457 960 q 472 1018 457 1003 q 511 1033 488 1033 q 544 1022 532 1033 q 556 990 556 1010 q 540 951 556 967 q 503 936 525 936 z "},"ạ":{"ha":772,"x_min":85,"x_max":676,"o":"m 453 739 q 570 724 519 739 q 676 681 621 710 l 600 156 q 596 108 596 129 q 606 60 596 79 q 643 32 617 42 l 625 -15 q 560 22 582 -3 q 538 99 538 47 l 539 119 q 438 21 496 57 q 313 -15 381 -15 q 145 60 206 -15 q 85 267 85 135 q 123 484 85 375 q 244 666 161 593 q 453 739 326 739 m 454 686 q 283 621 350 686 q 184 459 215 556 q 153 268 153 363 q 197 99 153 157 q 319 40 240 40 q 441 81 386 40 q 544 201 496 122 l 608 649 q 454 686 542 686 m 356 -125 q 389 -137 376 -125 q 401 -168 401 -149 q 386 -207 401 -192 q 347 -222 371 -222 q 315 -210 326 -222 q 303 -179 303 -199 q 318 -140 303 -156 q 356 -125 333 -125 z "},"ǡ":{"ha":772,"x_min":85,"x_max":676,"o":"m 453 739 q 570 724 519 739 q 676 681 621 710 l 600 156 q 596 108 596 129 q 606 60 596 79 q 643 32 617 42 l 625 -15 q 560 22 582 -3 q 538 99 538 47 l 539 119 q 438 21 496 57 q 313 -15 381 -15 q 145 60 206 -15 q 85 267 85 135 q 123 484 85 375 q 244 666 161 593 q 453 739 326 739 m 454 686 q 283 621 350 686 q 184 459 215 556 q 153 268 153 363 q 197 99 153 157 q 319 40 240 40 q 441 81 386 40 q 544 201 496 122 l 608 649 q 454 686 542 686 m 490 867 q 457 878 469 867 q 444 910 444 890 q 460 949 444 933 q 499 964 475 964 q 531 952 519 964 q 543 921 543 940 q 528 882 543 897 q 490 867 513 867 m 668 1046 l 350 1046 l 360 1100 l 676 1100 l 668 1046 z "},"à":{"ha":772,"x_min":85,"x_max":676,"o":"m 453 739 q 570 724 519 739 q 676 681 621 710 l 600 156 q 596 108 596 129 q 606 60 596 79 q 643 32 617 42 l 625 -15 q 560 22 582 -3 q 538 99 538 47 l 539 119 q 438 21 496 57 q 313 -15 381 -15 q 145 60 206 -15 q 85 267 85 135 q 123 484 85 375 q 244 666 161 593 q 453 739 326 739 m 454 686 q 283 621 350 686 q 184 459 215 556 q 153 268 153 363 q 197 99 153 157 q 319 40 240 40 q 441 81 386 40 q 544 201 496 122 l 608 649 q 454 686 542 686 m 421 1078 l 656 938 l 632 900 l 385 1017 l 421 1078 z "},"ả":{"ha":772,"x_min":85,"x_max":676,"o":"m 453 739 q 570 724 519 739 q 676 681 621 710 l 600 156 q 596 108 596 129 q 606 60 596 79 q 643 32 617 42 l 625 -15 q 560 22 582 -3 q 538 99 538 47 l 539 119 q 438 21 496 57 q 313 -15 381 -15 q 145 60 206 -15 q 85 267 85 135 q 123 484 85 375 q 244 666 161 593 q 453 739 326 739 m 454 686 q 283 621 350 686 q 184 459 215 556 q 153 268 153 363 q 197 99 153 157 q 319 40 240 40 q 441 81 386 40 q 544 201 496 122 l 608 649 q 454 686 542 686 m 472 969 q 581 1044 581 975 q 524 1094 581 1094 q 481 1089 499 1094 q 440 1072 463 1083 l 422 1117 q 474 1138 449 1131 q 531 1144 499 1144 q 612 1117 582 1144 q 642 1044 642 1090 q 610 970 642 999 q 525 935 579 942 l 515 858 l 460 858 l 472 969 z "},"ȃ":{"ha":772,"x_min":85,"x_max":676,"o":"m 453 739 q 570 724 519 739 q 676 681 621 710 l 600 156 q 596 108 596 129 q 606 60 596 79 q 643 32 617 42 l 625 -15 q 560 22 582 -3 q 538 99 538 47 l 539 119 q 438 21 496 57 q 313 -15 381 -15 q 145 60 206 -15 q 85 267 85 135 q 123 484 85 375 q 244 666 161 593 q 453 739 326 739 m 454 686 q 283 621 350 686 q 184 459 215 556 q 153 268 153 363 q 197 99 153 157 q 319 40 240 40 q 441 81 386 40 q 544 201 496 122 l 608 649 q 454 686 542 686 m 317 882 q 386 984 335 946 q 506 1022 438 1022 q 615 983 574 1022 q 658 878 657 943 l 613 872 q 503 968 597 968 q 416 942 453 968 q 360 868 379 917 l 317 882 z "},"ɑ":{"ha":772,"x_min":85,"x_max":685,"o":"m 600 156 q 596 108 596 129 q 606 60 596 79 q 643 32 617 42 l 625 -15 q 560 22 582 -3 q 538 99 538 47 l 539 119 q 438 21 496 57 q 313 -15 381 -15 q 144 60 204 -15 q 85 267 85 135 q 125 485 85 375 q 243 667 165 594 q 429 739 321 739 q 610 624 561 739 l 635 725 l 685 725 l 600 156 m 596 542 q 531 652 574 619 q 428 685 489 685 q 278 621 340 685 q 185 460 217 557 q 153 268 153 364 q 197 99 153 157 q 321 40 240 40 q 442 81 388 40 q 546 201 497 122 l 596 542 z "},"ɒ":{"ha":772,"x_min":88,"x_max":688,"o":"m 460 740 q 628 665 568 740 q 688 458 688 590 q 647 240 688 350 q 529 58 607 131 q 343 -14 451 -14 q 163 101 211 -14 l 138 0 l 88 0 l 172 569 q 176 617 176 597 q 166 665 176 646 q 129 693 156 683 l 147 740 q 213 703 190 728 q 235 626 235 678 l 233 606 q 334 704 276 668 q 460 740 392 740 m 344 40 q 494 104 432 40 q 588 265 556 168 q 619 457 619 361 q 576 626 619 568 q 451 685 532 685 q 330 644 385 685 q 226 524 275 603 l 176 183 q 241 73 199 106 q 344 40 283 40 z "},"ā":{"ha":772,"x_min":85,"x_max":676,"o":"m 453 739 q 570 724 519 739 q 676 681 621 710 l 600 156 q 596 108 596 129 q 606 60 596 79 q 643 32 617 42 l 625 -15 q 560 22 582 -3 q 538 99 538 47 l 539 119 q 438 21 496 57 q 313 -15 381 -15 q 145 60 206 -15 q 85 267 85 135 q 123 484 85 375 q 244 666 161 593 q 453 739 326 739 m 454 686 q 283 621 350 686 q 184 459 215 556 q 153 268 153 363 q 197 99 153 157 q 319 40 240 40 q 441 81 386 40 q 544 201 496 122 l 608 649 q 454 686 542 686 m 658 943 l 340 943 l 350 997 l 667 997 l 658 943 z "},"ą":{"ha":772,"x_min":85,"x_max":676,"o":"m 600 156 q 596 108 596 129 q 606 60 596 79 q 643 32 617 42 l 625 -15 l 624 -15 l 624 -15 q 476 -98 522 -58 q 429 -187 429 -137 q 510 -254 429 -254 q 589 -246 543 -254 l 578 -303 q 501 -311 536 -311 q 401 -281 436 -311 q 367 -204 367 -251 q 417 -86 367 -135 q 581 4 467 -37 q 538 97 538 33 q 539 119 538 111 q 438 21 496 57 q 313 -15 381 -15 q 145 60 206 -15 q 85 267 85 135 q 123 484 85 375 q 244 666 161 593 q 453 739 326 739 q 570 724 519 739 q 676 681 621 710 l 600 156 m 608 649 q 454 686 542 686 q 283 621 350 686 q 184 459 215 556 q 153 268 153 363 q 197 99 153 157 q 319 40 240 40 q 441 81 386 40 q 544 201 496 122 l 608 649 z "},"å":{"ha":772,"x_min":85,"x_max":676,"o":"m 453 739 q 570 724 519 739 q 676 681 621 710 l 600 156 q 596 108 596 129 q 606 60 596 79 q 643 32 617 42 l 625 -15 q 560 22 582 -3 q 538 99 538 47 l 539 119 q 438 21 496 57 q 313 -15 381 -15 q 145 60 206 -15 q 85 267 85 135 q 123 484 85 375 q 244 666 161 593 q 453 739 326 739 m 454 686 q 283 621 350 686 q 184 459 215 556 q 153 268 153 363 q 197 99 153 157 q 319 40 240 40 q 441 81 386 40 q 544 201 496 122 l 608 649 q 454 686 542 686 m 524 1132 q 608 1101 576 1132 q 640 1024 640 1071 q 599 923 640 963 q 496 883 557 883 q 411 915 443 883 q 379 993 379 946 q 421 1093 379 1054 q 524 1132 463 1132 m 522 1090 q 456 1063 481 1090 q 431 993 431 1035 q 448 944 431 963 q 497 926 465 926 q 565 955 540 926 q 589 1022 589 983 q 572 1072 589 1054 q 522 1090 554 1090 z "},"ǻ":{"ha":772,"x_min":85,"x_max":676,"o":"m 453 739 q 570 724 519 739 q 676 681 621 710 l 600 156 q 596 108 596 129 q 606 60 596 79 q 643 32 617 42 l 625 -15 q 560 22 582 -3 q 538 99 538 47 l 539 119 q 438 21 496 57 q 313 -15 381 -15 q 145 60 206 -15 q 85 267 85 135 q 123 484 85 375 q 244 666 161 593 q 453 739 326 739 m 454 686 q 283 621 350 686 q 184 459 215 556 q 153 268 153 363 q 197 99 153 157 q 319 40 240 40 q 441 81 386 40 q 544 201 496 122 l 608 649 q 454 686 542 686 m 511 1067 q 596 1036 564 1067 q 628 958 628 1006 q 586 858 628 897 q 483 818 544 818 q 399 849 431 818 q 367 928 367 881 q 408 1028 367 989 q 511 1067 450 1067 m 510 1025 q 443 997 468 1025 q 418 928 418 969 q 435 879 418 897 q 485 861 453 861 q 552 890 528 861 q 576 957 576 918 q 559 1007 576 989 q 510 1025 542 1025 m 638 1244 l 660 1183 l 381 1079 l 365 1118 l 638 1244 z "},"ⱥ":{"ha":772,"x_min":85,"x_max":676,"o":"m 600 156 q 596 108 596 129 q 606 60 596 78 q 643 32 617 42 l 625 -15 q 556 25 578 -4 q 539 119 535 54 q 438 21 496 57 q 313 -15 381 -15 q 243 -6 272 -15 l 206 -97 l 169 -87 l 208 8 q 117 105 149 39 q 85 267 85 171 q 123 484 85 375 q 244 666 161 593 q 453 739 326 739 q 510 736 474 739 l 544 821 l 581 810 l 547 729 q 676 681 604 718 l 600 156 m 153 268 q 232 64 153 118 l 489 685 q 454 686 478 686 q 283 621 350 686 q 184 459 215 556 q 153 268 153 363 m 608 649 q 526 679 572 669 l 265 49 q 319 40 290 40 q 441 81 386 40 q 544 201 496 122 l 608 649 z "},"ã":{"ha":772,"x_min":85,"x_max":711,"o":"m 453 739 q 570 724 519 739 q 676 681 621 710 l 600 156 q 596 108 596 129 q 606 60 596 79 q 643 32 617 42 l 625 -15 q 560 22 582 -3 q 538 99 538 47 l 539 119 q 438 21 496 57 q 313 -15 381 -15 q 145 60 206 -15 q 85 267 85 135 q 123 484 85 375 q 244 666 161 593 q 453 739 326 739 m 454 686 q 283 621 350 686 q 184 459 215 556 q 153 268 153 363 q 197 99 153 157 q 319 40 240 40 q 441 81 386 40 q 544 201 496 122 l 608 649 q 454 686 542 686 m 586 931 q 540 940 560 931 q 492 965 519 949 q 458 985 472 979 q 428 992 443 992 q 384 980 401 992 q 340 936 367 968 l 303 963 q 428 1046 364 1046 q 470 1038 451 1046 q 515 1013 489 1029 q 552 991 536 999 q 585 983 568 983 q 627 998 607 983 q 672 1044 647 1013 l 711 1021 q 586 931 654 931 z "},"ɐ":{"ha":724,"x_min":118,"x_max":674,"o":"m 186 214 q 183 167 183 197 q 217 72 183 101 q 329 42 251 42 q 427 53 379 42 q 532 85 475 64 l 549 33 q 431 -3 485 8 q 321 -15 378 -15 q 118 160 118 -15 q 122 213 118 186 l 172 569 q 176 618 176 597 q 166 665 176 647 q 129 693 156 683 l 149 740 q 215 699 193 726 q 235 615 238 671 q 343 709 285 679 q 475 739 401 739 q 622 689 569 739 q 674 554 674 639 q 583 360 674 429 q 347 290 492 290 l 197 290 l 186 214 m 204 342 l 343 342 q 535 397 464 342 q 607 553 607 453 q 570 652 607 618 q 467 686 533 686 q 232 544 329 686 l 204 342 z "},"æ":{"ha":1136,"x_min":50,"x_max":1089,"o":"m 394 739 q 540 698 488 739 q 608 589 593 657 q 713 693 639 647 q 876 739 786 739 q 1031 691 974 739 q 1089 567 1089 643 q 956 374 1089 439 q 575 292 822 308 q 772 42 575 42 q 878 60 831 42 q 981 117 925 78 l 1011 71 q 894 6 953 28 q 769 -15 836 -15 q 622 24 683 -15 q 535 136 561 63 q 401 19 469 54 q 256 -15 333 -15 q 106 36 161 -15 q 50 174 50 88 q 129 349 50 279 q 378 419 208 419 l 529 419 q 564 531 547 489 q 515 642 561 600 q 390 685 469 685 q 294 674 342 685 q 189 642 247 664 l 174 693 q 394 739 293 739 m 876 685 q 724 635 788 685 q 625 508 660 586 q 579 343 590 431 q 912 413 801 360 q 1022 564 1022 465 q 985 651 1022 617 q 876 685 947 685 m 382 369 q 181 317 244 369 q 118 174 118 264 q 156 74 118 108 q 261 39 194 39 q 395 76 332 39 q 519 192 458 113 q 513 279 513 233 q 519 369 513 325 l 382 369 z "},"ǽ":{"ha":1136,"x_min":50,"x_max":1089,"o":"m 394 739 q 540 698 488 739 q 608 589 593 657 q 713 693 639 647 q 876 739 786 739 q 1031 691 974 739 q 1089 567 1089 643 q 956 374 1089 439 q 575 292 822 308 q 772 42 575 42 q 878 60 831 42 q 981 117 925 78 l 1011 71 q 894 6 953 28 q 769 -15 836 -15 q 622 24 683 -15 q 535 136 561 63 q 401 19 469 54 q 256 -15 333 -15 q 106 36 161 -15 q 50 174 50 88 q 129 349 50 279 q 378 419 208 419 l 529 419 q 564 531 547 489 q 515 642 561 600 q 390 685 469 685 q 294 674 342 685 q 189 642 247 664 l 174 693 q 394 739 293 739 m 876 685 q 724 635 788 685 q 625 508 660 586 q 579 343 590 431 q 912 413 801 360 q 1022 564 1022 465 q 985 651 1022 617 q 876 685 947 685 m 382 369 q 181 317 244 369 q 118 174 118 264 q 156 74 118 108 q 261 39 194 39 q 395 76 332 39 q 519 192 458 113 q 513 279 513 233 q 519 369 513 325 l 382 369 m 781 1078 l 804 1017 l 525 900 l 507 938 l 781 1078 z "},"ǣ":{"ha":1136,"x_min":50,"x_max":1089,"o":"m 394 739 q 540 698 488 739 q 608 589 593 657 q 713 693 639 647 q 876 739 786 739 q 1031 691 974 739 q 1089 567 1089 643 q 956 374 1089 439 q 575 292 822 308 q 772 42 575 42 q 878 60 831 42 q 981 117 925 78 l 1011 71 q 894 6 953 28 q 769 -15 836 -15 q 622 24 683 -15 q 535 136 561 63 q 401 19 469 54 q 256 -15 333 -15 q 106 36 161 -15 q 50 174 50 88 q 129 349 50 279 q 378 419 208 419 l 529 419 q 564 531 547 489 q 515 642 561 600 q 390 685 469 685 q 294 674 342 685 q 189 642 247 664 l 174 693 q 394 739 293 739 m 876 685 q 724 635 788 685 q 625 508 660 586 q 579 343 590 431 q 912 413 801 360 q 1022 564 1022 465 q 985 651 1022 617 q 876 685 947 685 m 382 369 q 181 317 244 369 q 118 174 118 264 q 156 74 118 108 q 261 39 194 39 q 395 76 332 39 q 519 192 458 113 q 513 279 513 233 q 519 369 513 325 l 382 369 m 808 943 l 490 943 l 500 997 l 817 997 l 808 943 z "},"b":{"ha":790,"x_min":106,"x_max":707,"o":"m 489 739 q 650 669 593 739 q 707 468 707 600 q 670 247 707 357 q 551 60 633 136 q 338 -15 468 -15 q 226 -4 278 -15 q 106 32 175 7 l 246 1021 l 310 1029 l 254 626 q 489 739 360 739 m 479 685 q 356 651 410 685 q 244 556 301 618 l 178 72 q 252 48 215 56 q 339 40 289 40 q 515 109 447 40 q 613 276 583 178 q 642 471 642 375 q 599 631 642 578 q 479 685 557 685 z "},"ḃ":{"ha":790,"x_min":106,"x_max":707,"o":"m 489 739 q 650 669 593 739 q 707 468 707 600 q 670 247 707 357 q 551 60 633 136 q 338 -15 468 -15 q 226 -4 278 -15 q 106 32 175 7 l 246 1021 l 310 1029 l 254 626 q 489 739 360 739 m 479 685 q 356 651 410 685 q 244 556 301 618 l 178 72 q 252 48 215 56 q 339 40 289 40 q 515 109 447 40 q 613 276 583 178 q 642 471 642 375 q 599 631 642 578 q 479 685 557 685 m 529 1182 q 496 1194 508 1182 q 483 1225 483 1206 q 499 1264 483 1249 q 538 1279 514 1279 q 570 1267 558 1279 q 582 1236 582 1256 q 567 1197 582 1213 q 529 1182 551 1182 z "},"ḅ":{"ha":790,"x_min":106,"x_max":707,"o":"m 489 739 q 650 669 593 739 q 707 468 707 600 q 670 247 707 357 q 551 60 633 136 q 338 -15 468 -15 q 226 -4 278 -15 q 106 32 175 7 l 246 1021 l 310 1029 l 254 626 q 489 739 360 739 m 479 685 q 356 651 410 685 q 244 556 301 618 l 178 72 q 252 48 215 56 q 339 40 289 40 q 515 109 447 40 q 613 276 583 178 q 642 471 642 375 q 599 631 642 578 q 479 685 557 685 m 326 -125 q 360 -137 347 -125 q 372 -168 372 -149 q 357 -207 372 -192 q 318 -222 342 -222 q 285 -210 297 -222 q 274 -179 274 -199 q 289 -140 274 -156 q 326 -125 304 -125 z "},"ꞵ":{"ha":811,"x_min":61,"x_max":729,"o":"m 207 754 q 304 956 225 883 q 497 1029 383 1029 q 665 971 600 1029 q 729 811 729 913 q 663 638 729 710 q 472 553 597 567 q 655 486 583 550 q 726 307 726 422 q 691 156 726 231 q 583 33 656 82 q 401 -15 510 -15 q 178 85 264 -15 l 128 -274 l 61 -282 l 207 754 m 399 42 q 547 82 488 42 q 633 183 606 122 q 661 306 661 243 q 592 469 661 413 q 399 526 522 526 l 333 526 l 347 581 l 406 581 q 548 613 489 581 q 637 697 607 644 q 667 811 667 750 q 621 934 667 893 q 497 975 575 975 q 348 917 408 975 q 271 747 288 858 l 188 147 q 278 67 228 92 q 399 42 329 42 z "},"ɓ":{"ha":790,"x_min":106,"x_max":707,"o":"m 489 739 q 651 669 594 739 q 707 468 707 600 q 671 247 707 357 q 551 60 635 136 q 338 -15 468 -15 q 226 -4 278 -15 q 106 32 175 7 l 203 724 l 221 853 q 290 983 233 936 q 435 1029 347 1029 q 599 989 521 1029 l 571 942 q 438 974 503 974 q 285 844 303 974 l 267 724 l 268 724 l 254 626 q 489 739 360 739 m 339 40 q 515 109 447 40 q 613 277 583 178 q 642 472 642 376 q 478 685 642 685 q 356 651 410 685 q 244 556 301 618 l 178 72 q 252 48 215 56 q 339 40 289 40 z "},"ʭ":{"ha":444,"x_min":-10,"x_max":454,"o":"m 429 556 l 375 556 l 393 681 l 142 681 l 124 556 l 69 556 l 94 731 l 454 731 l 429 556 m 350 0 l 296 0 l 314 125 l 63 125 l 44 0 l -10 0 l 15 175 l 375 175 l 350 0 z "},"ʘ":{"ha":1096,"x_min":106,"x_max":1022,"o":"m 629 964 q 917 861 811 964 q 1022 571 1022 758 q 957 272 1021 406 q 774 62 893 139 q 499 -15 656 -15 q 211 89 317 -15 q 106 379 106 193 q 171 675 106 542 q 355 886 236 808 q 629 964 474 964 m 628 908 q 383 838 486 908 q 224 646 279 767 q 169 379 169 525 q 258 128 169 215 q 499 42 346 42 q 746 112 642 42 q 904 302 850 182 q 958 571 958 422 q 872 823 958 738 q 628 908 785 908 m 560 425 q 526 437 539 425 q 514 468 514 449 q 529 507 514 492 q 568 522 544 522 q 601 510 589 522 q 613 479 613 499 q 597 440 613 456 q 560 425 582 425 z "},"ʬ":{"ha":639,"x_min":63,"x_max":654,"o":"m 654 919 l 506 556 l 436 556 l 393 867 l 261 556 l 190 556 l 140 919 l 197 919 l 233 601 l 368 919 l 433 919 l 476 601 l 601 919 l 654 919 m 576 364 l 428 0 l 358 0 l 315 311 l 183 0 l 113 0 l 63 364 l 119 364 l 156 46 l 290 364 l 356 364 l 399 46 l 524 364 l 576 364 z "},"ƀ":{"ha":799,"x_min":113,"x_max":714,"o":"m 496 739 q 657 669 600 739 q 714 468 714 600 q 677 247 714 357 q 558 60 640 136 q 344 -15 475 -15 q 233 -4 285 -15 q 113 32 182 7 l 231 861 l 125 861 l 133 914 l 238 914 l 253 1021 l 317 1029 l 301 914 l 544 914 l 528 861 l 293 861 l 261 626 q 496 739 367 739 m 346 40 q 522 109 454 40 q 619 276 590 178 q 649 471 649 375 q 606 631 649 578 q 486 685 564 685 q 363 651 417 685 q 251 556 308 618 l 185 72 q 259 48 222 56 q 346 40 296 40 z "},"ƃ":{"ha":790,"x_min":106,"x_max":707,"o":"m 489 739 q 651 669 594 739 q 707 468 707 600 q 671 247 707 357 q 551 60 635 136 q 338 -15 468 -15 q 226 -4 278 -15 q 106 32 175 7 l 246 1021 l 642 1021 l 624 967 l 303 967 l 254 626 q 489 739 360 739 m 339 40 q 515 109 447 40 q 613 277 583 178 q 642 472 642 376 q 478 685 642 685 q 355 652 410 685 q 244 556 300 619 l 178 72 q 252 48 215 56 q 339 40 289 40 z "},"c":{"ha":646,"x_min":86,"x_max":635,"o":"m 444 739 q 635 667 561 739 l 597 626 q 528 670 565 656 q 443 685 492 685 q 276 620 342 685 q 182 460 211 556 q 153 274 153 365 q 204 101 153 158 q 347 43 256 43 q 529 106 439 43 l 558 60 q 344 -15 461 -15 q 156 61 225 -15 q 86 276 86 138 q 124 488 86 381 q 242 667 161 594 q 444 739 322 739 z "},"ć":{"ha":646,"x_min":86,"x_max":635,"o":"m 444 739 q 635 667 561 739 l 597 626 q 528 670 565 656 q 443 685 492 685 q 276 620 342 685 q 182 460 211 556 q 153 274 153 365 q 204 101 153 158 q 347 43 256 43 q 529 106 439 43 l 558 60 q 344 -15 461 -15 q 156 61 225 -15 q 86 276 86 138 q 124 488 86 381 q 242 667 161 594 q 444 739 322 739 m 611 1078 l 635 1017 l 356 900 l 338 938 l 611 1078 z "},"č":{"ha":646,"x_min":86,"x_max":686,"o":"m 444 739 q 635 667 561 739 l 597 626 q 528 670 565 656 q 443 685 492 685 q 276 620 342 685 q 182 460 211 556 q 153 274 153 365 q 204 101 153 158 q 347 43 256 43 q 529 106 439 43 l 558 60 q 344 -15 461 -15 q 156 61 225 -15 q 86 276 86 138 q 124 488 86 381 q 242 667 161 594 q 444 739 322 739 m 658 1061 l 686 1026 l 490 882 l 451 882 l 294 1026 l 326 1061 l 476 943 l 658 1061 z "},"ç":{"ha":646,"x_min":86,"x_max":635,"o":"m 443 685 q 276 620 342 685 q 182 460 211 556 q 153 274 153 365 q 204 101 153 158 q 347 43 256 43 q 529 106 439 43 l 558 60 q 356 -15 465 -11 l 342 -93 q 458 -190 458 -101 q 416 -277 458 -244 q 308 -310 374 -310 q 203 -279 246 -310 l 229 -239 q 308 -260 263 -260 q 374 -242 349 -260 q 399 -192 399 -225 q 374 -146 399 -160 q 285 -132 349 -132 l 310 -14 q 146 73 206 -3 q 86 276 86 149 q 124 488 86 381 q 242 667 161 594 q 444 739 322 739 q 635 667 561 739 l 597 626 q 528 670 565 656 q 443 685 492 685 z "},"ĉ":{"ha":646,"x_min":86,"x_max":672,"o":"m 444 739 q 635 667 561 739 l 597 626 q 528 670 565 656 q 443 685 492 685 q 276 620 342 685 q 182 460 211 556 q 153 274 153 365 q 204 101 153 158 q 347 43 256 43 q 529 106 439 43 l 558 60 q 344 -15 461 -15 q 156 61 225 -15 q 86 276 86 138 q 124 488 86 381 q 242 667 161 594 q 444 739 322 739 m 310 899 l 281 933 l 478 1076 l 515 1076 l 672 933 l 640 899 l 490 1015 l 310 899 z "},"ɕ":{"ha":661,"x_min":86,"x_max":635,"o":"m 446 685 q 277 619 343 685 q 182 459 211 554 q 153 271 153 364 q 210 94 153 151 q 330 249 272 204 q 456 294 388 294 q 556 260 521 294 q 592 169 592 226 q 526 34 592 83 q 351 -15 460 -15 q 221 13 279 -15 l 160 -87 l 115 -67 l 178 40 q 110 138 133 78 q 86 276 86 197 q 124 488 86 381 q 242 667 161 594 q 444 739 322 739 q 635 667 561 739 l 597 626 q 531 670 567 656 q 446 685 494 685 m 453 242 q 354 204 399 242 q 253 65 310 167 q 356 43 297 43 q 484 75 435 43 q 533 169 533 107 q 513 223 533 204 q 453 242 493 242 z "},"ċ":{"ha":646,"x_min":86,"x_max":635,"o":"m 444 739 q 635 667 561 739 l 597 626 q 528 670 565 656 q 443 685 492 685 q 276 620 342 685 q 182 460 211 556 q 153 274 153 365 q 204 101 153 158 q 347 43 256 43 q 529 106 439 43 l 558 60 q 344 -15 461 -15 q 156 61 225 -15 q 86 276 86 138 q 124 488 86 381 q 242 667 161 594 q 444 739 322 739 m 483 936 q 450 948 463 936 q 438 979 438 960 q 453 1018 438 1003 q 492 1033 468 1033 q 524 1022 513 1033 q 536 990 536 1010 q 521 951 536 967 q 483 936 506 936 z "},"ƈ":{"ha":646,"x_min":86,"x_max":911,"o":"m 778 1029 q 911 982 853 1029 l 879 942 q 834 967 857 958 q 779 975 811 975 q 701 946 733 975 q 660 853 668 917 l 635 667 l 606 633 q 530 672 568 658 q 443 685 492 685 q 276 620 342 685 q 182 460 211 556 q 153 274 153 365 q 204 101 153 158 q 347 43 256 43 q 529 106 439 43 l 558 60 q 344 -15 461 -15 q 156 61 225 -15 q 86 276 86 138 q 124 488 86 381 q 241 667 161 594 q 443 739 321 739 q 576 707 519 739 l 597 854 q 657 985 610 942 q 778 1029 704 1029 z "},"ʗ":{"ha":675,"x_min":90,"x_max":664,"o":"m 483 739 q 581 722 539 739 q 664 665 622 704 l 628 626 q 562 669 596 656 q 482 683 528 683 q 308 590 382 683 q 197 358 235 497 q 158 82 158 218 q 207 -150 158 -69 q 344 -231 256 -231 q 519 -167 428 -231 l 549 -214 q 343 -287 453 -287 q 158 -190 224 -287 q 90 82 92 -92 q 138 391 92 239 q 274 641 185 543 q 483 739 363 739 z "},"ȼ":{"ha":646,"x_min":86,"x_max":635,"o":"m 597 626 q 524 672 563 657 l 268 57 q 347 43 301 43 q 529 106 439 43 l 558 60 q 344 -15 461 -15 q 244 1 290 -15 l 204 -97 l 168 -87 l 211 17 q 119 117 151 50 q 86 276 86 183 q 124 488 86 381 q 242 667 161 594 q 444 739 322 739 q 507 733 481 739 l 543 821 l 581 810 l 544 724 q 635 667 597 704 l 597 626 m 486 682 q 443 685 458 685 q 276 620 342 685 q 182 460 211 556 q 153 274 153 365 q 235 74 153 128 l 486 682 z "},"d":{"ha":797,"x_min":85,"x_max":739,"o":"m 739 1021 l 594 0 l 540 0 l 553 157 q 306 -15 454 -15 q 144 60 203 -15 q 85 269 85 136 q 119 483 85 375 q 231 665 154 592 q 425 739 307 739 q 619 636 556 739 l 675 1029 l 739 1021 m 433 685 q 273 619 336 685 q 181 458 210 554 q 153 268 153 363 q 195 99 153 158 q 314 40 238 40 q 449 93 392 40 q 567 250 506 146 l 611 572 q 433 685 551 685 z "},"ð":{"ha":779,"x_min":82,"x_max":681,"o":"m 519 919 q 640 758 600 851 q 681 538 681 665 q 642 266 681 392 q 524 63 604 140 q 328 -15 444 -15 q 147 56 211 -15 q 82 250 82 126 q 115 438 82 347 q 219 588 149 529 q 397 647 290 647 q 617 533 535 647 q 585 728 618 643 q 478 882 553 814 l 351 772 l 306 793 l 438 913 q 275 978 356 960 l 292 1031 q 479 950 392 1010 l 590 1051 l 626 1017 l 519 919 m 328 40 q 527 162 456 40 q 613 464 599 283 q 404 593 532 593 q 257 542 314 593 q 174 414 200 492 q 149 250 149 336 q 195 94 149 149 q 328 40 242 40 z "},"ȸ":{"ha":1167,"x_min":85,"x_max":1081,"o":"m 876 739 q 1027 669 974 739 q 1081 469 1081 600 q 1044 235 1081 347 q 937 54 1008 124 q 765 -15 865 -15 q 656 22 701 -15 q 585 125 611 60 l 558 0 l 511 0 l 522 125 q 422 21 479 57 q 299 -15 365 -15 q 142 60 200 -15 q 85 268 85 136 q 124 496 85 388 q 238 672 164 604 q 411 739 313 739 q 592 621 531 739 l 647 1021 l 711 1029 l 654 621 q 758 708 701 678 q 876 739 814 739 m 583 561 q 510 654 547 624 q 418 685 472 685 q 276 623 336 685 q 184 465 215 561 q 153 268 153 369 q 194 99 153 158 q 307 40 235 40 q 429 81 375 40 q 533 210 483 122 l 583 561 m 761 40 q 901 105 843 40 q 987 269 958 169 q 1015 472 1015 368 q 976 632 1015 579 q 867 685 938 685 q 751 651 803 685 q 644 554 700 618 l 594 197 q 662 78 622 115 q 761 40 701 40 z "},"ď":{"ha":797,"x_min":85,"x_max":915,"o":"m 739 1021 l 594 0 l 540 0 l 553 157 q 306 -15 454 -15 q 144 60 203 -15 q 85 269 85 136 q 119 483 85 375 q 231 665 154 592 q 425 739 307 739 q 619 636 556 739 l 675 1029 l 739 1021 m 433 685 q 273 619 336 685 q 181 458 210 554 q 153 268 153 363 q 195 99 153 158 q 314 40 238 40 q 449 93 392 40 q 567 250 506 146 l 611 572 q 433 685 551 685 m 851 1028 l 915 1019 l 838 801 l 797 808 l 851 1028 z "},"ḓ":{"ha":797,"x_min":85,"x_max":739,"o":"m 739 1021 l 594 0 l 540 0 l 553 157 q 306 -15 454 -15 q 144 60 203 -15 q 85 269 85 136 q 119 483 85 375 q 231 665 154 592 q 425 739 307 739 q 619 636 556 739 l 675 1029 l 739 1021 m 433 685 q 273 619 336 685 q 181 458 210 554 q 153 268 153 363 q 195 99 153 158 q 314 40 238 40 q 449 93 392 40 q 567 250 506 146 l 611 572 q 433 685 551 685 m 151 -276 l 122 -242 l 318 -97 l 357 -97 l 513 -242 l 482 -276 l 331 -158 l 151 -276 z "},"đ":{"ha":807,"x_min":85,"x_max":829,"o":"m 821 861 l 717 861 l 594 0 l 540 0 l 553 157 q 306 -15 454 -15 q 144 60 203 -15 q 85 269 85 136 q 119 483 85 375 q 231 665 154 592 q 425 739 307 739 q 619 636 556 739 l 651 861 l 425 861 l 425 914 l 658 914 l 675 1029 l 739 1021 l 724 914 l 829 914 l 821 861 m 611 572 q 433 685 551 685 q 273 619 336 685 q 181 458 210 554 q 153 268 153 363 q 195 99 153 158 q 314 40 238 40 q 449 93 392 40 q 567 250 506 146 l 611 572 z "},"ȡ":{"ha":935,"x_min":85,"x_max":942,"o":"m 817 269 q 907 238 872 269 q 942 157 942 207 q 878 33 942 81 q 724 -15 815 -15 q 604 19 647 -15 l 531 -87 l 488 -67 l 572 57 q 553 154 550 97 q 306 -15 451 -15 q 144 60 203 -15 q 85 269 85 136 q 119 483 85 375 q 231 665 154 592 q 425 739 307 739 q 619 636 556 739 l 675 1029 l 739 1021 l 619 174 q 617 126 617 156 q 709 235 663 200 q 817 269 756 269 m 314 40 q 449 93 392 40 q 565 247 507 146 l 611 572 q 433 685 551 685 q 273 619 336 685 q 181 458 210 554 q 153 268 153 363 q 195 99 153 158 q 314 40 238 40 m 729 43 q 838 73 794 43 q 882 156 882 103 q 863 202 882 186 q 813 218 844 218 q 732 188 769 218 q 638 71 694 157 q 729 43 664 43 z "},"ḋ":{"ha":797,"x_min":85,"x_max":739,"o":"m 739 1021 l 594 0 l 540 0 l 553 157 q 306 -15 454 -15 q 144 60 203 -15 q 85 269 85 136 q 119 483 85 375 q 231 665 154 592 q 425 739 307 739 q 619 636 556 739 l 675 1029 l 739 1021 m 433 685 q 273 619 336 685 q 181 458 210 554 q 153 268 153 363 q 195 99 153 158 q 314 40 238 40 q 449 93 392 40 q 567 250 506 146 l 611 572 q 433 685 551 685 m 500 1182 q 467 1194 479 1182 q 454 1225 454 1206 q 469 1264 454 1249 q 508 1279 485 1279 q 541 1267 529 1279 q 553 1236 553 1256 q 538 1197 553 1213 q 500 1182 522 1182 z "},"ḍ":{"ha":797,"x_min":85,"x_max":739,"o":"m 739 1021 l 594 0 l 540 0 l 553 157 q 306 -15 454 -15 q 144 60 203 -15 q 85 269 85 136 q 119 483 85 375 q 231 665 154 592 q 425 739 307 739 q 619 636 556 739 l 675 1029 l 739 1021 m 433 685 q 273 619 336 685 q 181 458 210 554 q 153 268 153 363 q 195 99 153 158 q 314 40 238 40 q 449 93 392 40 q 567 250 506 146 l 611 572 q 433 685 551 685 m 333 -125 q 367 -137 354 -125 q 379 -168 379 -149 q 364 -207 379 -192 q 325 -222 349 -222 q 292 -210 304 -222 q 281 -179 281 -199 q 296 -140 281 -156 q 333 -125 311 -125 z "},"ƍ":{"ha":782,"x_min":81,"x_max":697,"o":"m 300 -282 q 81 -203 168 -282 l 119 -164 q 203 -212 160 -197 q 300 -228 246 -228 q 435 -192 390 -228 q 481 -106 481 -157 q 446 -30 481 -61 q 321 38 411 1 q 147 153 201 88 q 92 325 92 219 q 125 509 92 414 q 237 672 158 604 q 439 739 315 739 q 628 663 560 739 q 697 457 697 588 q 633 215 697 318 q 417 54 569 113 q 515 -17 485 19 q 546 -104 546 -53 q 517 -191 546 -150 q 433 -257 489 -232 q 300 -282 378 -282 m 367 78 q 574 234 515 139 q 632 461 632 329 q 581 624 632 564 q 436 683 529 683 q 271 624 333 683 q 183 481 208 564 q 158 325 158 399 q 206 179 158 235 q 367 78 253 124 z "},"ʤ":{"ha":1225,"x_min":85,"x_max":1196,"o":"m 1188 674 l 828 275 l 843 275 q 1131 50 1131 275 q 1088 -122 1131 -46 q 969 -240 1046 -197 q 796 -282 893 -282 q 651 -251 711 -282 q 542 -162 590 -221 l 585 -128 q 680 -202 631 -179 q 794 -225 729 -225 q 939 -190 878 -225 q 1032 -92 1000 -154 q 1064 50 1064 -29 q 1008 181 1064 142 q 833 221 953 221 l 749 221 l 757 275 l 1108 668 l 689 668 l 594 0 l 540 0 l 553 157 q 306 -15 454 -15 q 144 60 203 -15 q 85 269 85 136 q 119 483 85 375 q 231 665 154 592 q 425 739 307 739 q 619 636 556 739 l 675 1029 l 739 1021 l 697 725 l 1196 725 l 1188 674 m 611 572 q 433 685 551 685 q 273 619 336 685 q 181 458 210 554 q 153 268 153 363 q 195 99 153 158 q 314 40 238 40 q 449 93 392 40 q 567 250 506 146 l 611 572 z "},"ɗ":{"ha":797,"x_min":85,"x_max":965,"o":"m 832 1029 q 907 1016 876 1029 q 965 982 938 1003 l 932 942 q 888 967 911 958 q 833 975 865 975 q 755 946 788 975 q 714 853 722 917 l 696 725 l 594 0 l 540 0 l 553 157 q 306 -15 454 -15 q 144 60 203 -15 q 85 269 85 136 q 119 483 85 375 q 231 665 154 592 q 425 739 307 739 q 619 636 556 739 l 632 725 l 651 854 q 713 985 665 942 q 832 1029 760 1029 m 611 572 q 433 685 551 685 q 273 619 336 685 q 181 458 210 554 q 153 268 153 363 q 195 99 153 158 q 314 40 238 40 q 449 93 392 40 q 567 250 506 146 l 611 572 z "},"ḏ":{"ha":797,"x_min":85,"x_max":739,"o":"m 739 1021 l 594 0 l 540 0 l 553 157 q 306 -15 454 -15 q 144 60 203 -15 q 85 269 85 136 q 119 483 85 375 q 231 665 154 592 q 425 739 307 739 q 619 636 556 739 l 675 1029 l 739 1021 m 433 685 q 273 619 336 685 q 181 458 210 554 q 153 268 153 363 q 195 99 153 158 q 314 40 238 40 q 449 93 392 40 q 567 250 506 146 l 611 572 q 433 685 551 685 m 178 -160 l 496 -160 l 486 -214 l 169 -214 l 178 -160 z "},"ɖ":{"ha":799,"x_min":85,"x_max":794,"o":"m 794 -237 q 654 -282 731 -282 q 551 -245 589 -282 q 513 -140 513 -208 q 515 -103 513 -131 l 531 0 l 551 151 q 306 -15 453 -15 q 144 60 203 -15 q 85 269 85 136 q 119 483 85 375 q 231 665 154 592 q 425 739 307 739 q 619 636 556 739 l 675 1029 l 739 1021 l 594 0 l 579 -108 q 578 -139 578 -119 q 657 -226 578 -226 q 717 -218 692 -226 q 769 -194 742 -210 l 794 -237 m 314 40 q 449 93 392 40 q 567 250 506 146 l 611 572 q 433 685 551 685 q 273 619 336 685 q 181 458 210 554 q 153 268 153 363 q 195 99 153 158 q 314 40 238 40 z "},"ƌ":{"ha":797,"x_min":85,"x_max":739,"o":"m 594 0 l 540 0 l 553 157 q 306 -15 454 -15 q 144 60 203 -15 q 85 269 85 136 q 119 483 85 375 q 231 665 154 592 q 425 739 307 739 q 619 636 556 739 l 667 967 l 339 967 l 347 1021 l 739 1021 l 594 0 m 611 572 q 433 685 551 685 q 273 619 336 685 q 181 458 210 554 q 153 268 153 363 q 195 99 153 158 q 314 40 238 40 q 449 93 392 40 q 567 250 506 146 l 611 572 z "},"ǳ":{"ha":1375,"x_min":85,"x_max":1378,"o":"m 739 1021 l 594 0 l 540 0 l 553 157 q 306 -15 454 -15 q 144 60 203 -15 q 85 269 85 136 q 119 483 85 375 q 231 665 154 592 q 425 739 307 739 q 619 636 556 739 l 675 1029 l 739 1021 m 433 685 q 273 619 336 685 q 181 458 210 554 q 153 268 153 363 q 195 99 153 158 q 314 40 238 40 q 449 93 392 40 q 567 250 506 146 l 611 572 q 433 685 551 685 m 1378 725 l 1371 674 l 875 57 l 1278 57 l 1264 0 l 785 0 l 793 51 l 1289 668 l 914 668 l 922 725 l 1378 725 z "},"ʣ":{"ha":1181,"x_min":85,"x_max":1185,"o":"m 1178 674 l 676 57 l 1085 57 l 1071 0 l 540 0 l 553 157 q 306 -15 454 -15 q 144 60 203 -15 q 85 269 85 136 q 119 483 85 375 q 231 665 154 592 q 425 739 307 739 q 619 636 556 739 l 675 1029 l 739 1021 l 697 725 l 1185 725 l 1178 674 m 611 572 q 433 685 551 685 q 273 619 336 685 q 181 458 210 554 q 153 268 153 363 q 195 99 153 158 q 314 40 238 40 q 449 93 392 40 q 567 250 506 146 l 611 572 m 601 54 l 1096 668 l 689 668 l 601 54 z "},"ǆ":{"ha":1375,"x_min":85,"x_max":1386,"o":"m 739 1021 l 594 0 l 540 0 l 553 157 q 306 -15 454 -15 q 144 60 203 -15 q 85 269 85 136 q 119 483 85 375 q 231 665 154 592 q 425 739 307 739 q 619 636 556 739 l 675 1029 l 739 1021 m 433 685 q 273 619 336 685 q 181 458 210 554 q 153 268 153 363 q 195 99 153 158 q 314 40 238 40 q 449 93 392 40 q 567 250 506 146 l 611 572 q 433 685 551 685 m 1378 725 l 1371 674 l 875 57 l 1278 57 l 1264 0 l 785 0 l 793 51 l 1289 668 l 914 668 l 922 725 l 1378 725 m 1358 1061 l 1386 1026 l 1190 882 l 1151 882 l 994 1026 l 1026 1061 l 1176 943 l 1358 1061 z "},"ʥ":{"ha":1196,"x_min":85,"x_max":1211,"o":"m 1211 167 q 1136 37 1211 74 q 931 0 1061 0 q 908 -151 918 -71 l 854 -147 q 878 0 863 -79 l 540 0 l 553 157 q 306 -15 454 -15 q 144 60 203 -15 q 85 269 85 136 q 119 483 85 375 q 231 665 154 592 q 425 739 307 739 q 619 636 556 739 l 675 1029 l 739 1021 l 697 725 l 1186 725 l 1179 674 l 679 57 l 892 57 q 967 221 915 163 q 1092 279 1019 279 q 1178 249 1146 279 q 1211 167 1211 218 m 611 572 q 433 685 551 685 q 273 619 336 685 q 181 458 210 554 q 153 268 153 363 q 195 99 153 158 q 314 40 238 40 q 449 93 392 40 q 567 250 506 146 l 611 572 m 689 668 l 601 54 l 1099 668 l 689 668 m 946 57 q 1099 80 1044 56 q 1154 165 1154 104 q 1088 229 1154 229 q 946 57 988 229 z "},"e":{"ha":711,"x_min":86,"x_max":664,"o":"m 664 568 q 531 373 664 439 q 153 290 399 307 l 153 276 q 205 99 153 157 q 347 42 257 42 q 453 60 406 42 q 556 117 501 78 l 586 71 q 469 6 528 28 q 344 -15 411 -15 q 154 60 222 -15 q 86 275 86 136 q 126 492 86 385 q 249 669 167 599 q 454 739 332 739 q 608 691 551 739 q 664 568 664 643 m 454 685 q 301 635 364 685 q 202 508 238 586 q 157 343 167 431 q 488 413 378 358 q 597 565 597 467 q 561 651 597 618 q 454 685 525 685 z "},"é":{"ha":711,"x_min":86,"x_max":664,"o":"m 664 568 q 531 373 664 439 q 153 290 399 307 l 153 276 q 205 99 153 157 q 347 42 257 42 q 453 60 406 42 q 556 117 501 78 l 586 71 q 469 6 528 28 q 344 -15 411 -15 q 154 60 222 -15 q 86 275 86 136 q 126 492 86 385 q 249 669 167 599 q 454 739 332 739 q 608 691 551 739 q 664 568 664 643 m 454 685 q 301 635 364 685 q 202 508 238 586 q 157 343 167 431 q 488 413 378 358 q 597 565 597 467 q 561 651 597 618 q 454 685 525 685 m 594 1078 l 618 1017 l 339 900 l 321 938 l 594 1078 z "},"ĕ":{"ha":711,"x_min":86,"x_max":664,"o":"m 664 568 q 531 373 664 439 q 153 290 399 307 l 153 276 q 205 99 153 157 q 347 42 257 42 q 453 60 406 42 q 556 117 501 78 l 586 71 q 469 6 528 28 q 344 -15 411 -15 q 154 60 222 -15 q 86 275 86 136 q 126 492 86 385 q 249 669 167 599 q 454 739 332 739 q 608 691 551 739 q 664 568 664 643 m 454 685 q 301 635 364 685 q 202 508 238 586 q 157 343 167 431 q 488 413 378 358 q 597 565 597 467 q 561 651 597 618 q 454 685 525 685 m 458 911 q 348 951 390 911 q 306 1057 306 992 l 351 1063 q 458 967 364 967 q 546 992 508 967 q 603 1065 583 1018 l 646 1053 q 576 950 628 989 q 458 911 525 911 z "},"ě":{"ha":711,"x_min":86,"x_max":669,"o":"m 664 568 q 531 373 664 439 q 153 290 399 307 l 153 276 q 205 99 153 157 q 347 42 257 42 q 453 60 406 42 q 556 117 501 78 l 586 71 q 469 6 528 28 q 344 -15 411 -15 q 154 60 222 -15 q 86 275 86 136 q 126 492 86 385 q 249 669 167 599 q 454 739 332 739 q 608 691 551 739 q 664 568 664 643 m 454 685 q 301 635 364 685 q 202 508 238 586 q 157 343 167 431 q 488 413 378 358 q 597 565 597 467 q 561 651 597 618 q 454 685 525 685 m 642 1061 l 669 1026 l 474 882 l 435 882 l 278 1026 l 310 1061 l 460 943 l 642 1061 z "},"ȩ":{"ha":711,"x_min":86,"x_max":664,"o":"m 664 568 q 531 373 664 439 q 153 290 399 307 l 153 276 q 205 99 153 157 q 347 42 257 42 q 453 60 406 42 q 556 117 501 78 l 586 71 q 475 8 531 29 q 354 -15 419 -14 l 340 -93 q 457 -190 457 -101 q 415 -277 457 -244 q 307 -310 372 -310 q 201 -279 244 -310 l 228 -239 q 307 -260 261 -260 q 372 -242 347 -260 q 397 -192 397 -225 q 372 -146 397 -160 q 283 -132 347 -132 l 308 -14 q 144 72 203 -3 q 86 275 86 147 q 126 492 86 385 q 249 669 167 599 q 454 739 332 739 q 608 691 551 739 q 664 568 664 643 m 454 685 q 301 635 364 685 q 202 508 238 586 q 157 343 167 431 q 488 413 378 358 q 597 565 597 467 q 561 651 597 618 q 454 685 525 685 z "},"ê":{"ha":711,"x_min":86,"x_max":664,"o":"m 664 568 q 531 373 664 439 q 153 290 399 307 l 153 276 q 205 99 153 157 q 347 42 257 42 q 453 60 406 42 q 556 117 501 78 l 586 71 q 469 6 528 28 q 344 -15 411 -15 q 154 60 222 -15 q 86 275 86 136 q 126 492 86 385 q 249 669 167 599 q 454 739 332 739 q 608 691 551 739 q 664 568 664 643 m 454 685 q 301 635 364 685 q 202 508 238 586 q 157 343 167 431 q 488 413 378 358 q 597 565 597 467 q 561 651 597 618 q 454 685 525 685 m 293 899 l 264 933 l 461 1076 l 499 1076 l 656 933 l 624 899 l 474 1015 l 293 899 z "},"ế":{"ha":711,"x_min":86,"x_max":771,"o":"m 771 1114 l 590 953 l 561 982 l 729 1158 l 771 1114 m 458 925 l 276 814 l 250 850 l 444 986 l 482 986 l 639 849 l 608 814 l 458 925 m 454 739 q 608 691 551 739 q 664 568 664 643 q 531 373 664 439 q 153 290 399 307 l 153 276 q 205 99 153 157 q 347 42 257 42 q 453 60 406 42 q 556 117 501 78 l 586 71 q 469 6 528 28 q 344 -15 411 -15 q 154 60 222 -15 q 86 275 86 136 q 126 492 86 385 q 249 669 167 599 q 454 739 332 739 m 157 343 q 488 413 378 358 q 597 565 597 467 q 561 651 597 618 q 454 685 525 685 q 301 635 364 685 q 202 508 238 586 q 157 343 167 431 z "},"ệ":{"ha":711,"x_min":86,"x_max":664,"o":"m 664 568 q 531 373 664 439 q 153 290 399 307 l 153 276 q 205 99 153 157 q 347 42 257 42 q 453 60 406 42 q 556 117 501 78 l 586 71 q 469 6 528 28 q 344 -15 411 -15 q 154 60 222 -15 q 86 275 86 136 q 126 492 86 385 q 249 669 167 599 q 454 739 332 739 q 608 691 551 739 q 664 568 664 643 m 454 685 q 301 635 364 685 q 202 508 238 586 q 157 343 167 431 q 488 413 378 358 q 597 565 597 467 q 561 651 597 618 q 454 685 525 685 m 293 899 l 264 933 l 461 1076 l 499 1076 l 656 933 l 624 899 l 474 1015 l 293 899 m 321 -125 q 354 -137 342 -125 q 367 -168 367 -149 q 351 -207 367 -192 q 313 -222 336 -222 q 280 -210 292 -222 q 268 -179 268 -199 q 283 -140 268 -156 q 321 -125 299 -125 z "},"ề":{"ha":711,"x_min":86,"x_max":664,"o":"m 347 978 l 315 953 l 178 1118 l 228 1158 l 347 978 m 276 814 l 250 850 l 444 986 l 482 986 l 639 849 l 608 814 l 458 925 l 276 814 m 664 568 q 531 373 664 439 q 153 290 399 307 l 153 276 q 205 99 153 157 q 347 42 257 42 q 453 60 406 42 q 556 117 501 78 l 586 71 q 469 6 528 28 q 344 -15 411 -15 q 154 60 222 -15 q 86 275 86 136 q 126 492 86 385 q 249 669 167 599 q 454 739 332 739 q 608 691 551 739 q 664 568 664 643 m 454 685 q 301 635 364 685 q 202 508 238 586 q 157 343 167 431 q 488 413 378 358 q 597 565 597 467 q 561 651 597 618 q 454 685 525 685 z "},"ể":{"ha":711,"x_min":86,"x_max":785,"o":"m 664 568 q 531 373 664 439 q 153 290 399 307 l 153 276 q 205 99 153 157 q 347 42 257 42 q 453 60 406 42 q 556 117 501 78 l 586 71 q 469 6 528 28 q 344 -15 411 -15 q 154 60 222 -15 q 86 275 86 136 q 126 492 86 385 q 249 669 167 599 q 454 739 332 739 q 608 691 551 739 q 664 568 664 643 m 454 685 q 301 635 364 685 q 202 508 238 586 q 157 343 167 431 q 488 413 378 358 q 597 565 597 467 q 561 651 597 618 q 454 685 525 685 m 272 814 l 246 850 l 440 986 l 478 986 l 635 849 l 604 814 l 454 925 l 272 814 m 615 1056 q 724 1131 724 1061 q 667 1181 724 1181 q 624 1175 642 1181 q 583 1158 606 1169 l 565 1203 q 617 1224 592 1217 q 674 1231 642 1231 q 755 1203 725 1231 q 785 1131 785 1176 q 753 1056 785 1085 q 668 1021 722 1028 l 658 944 l 603 944 l 615 1056 z "},"ễ":{"ha":711,"x_min":86,"x_max":679,"o":"m 396 1079 q 352 1067 369 1079 q 308 1024 335 1056 l 271 1050 q 396 1133 332 1133 q 438 1125 419 1133 q 483 1100 457 1117 q 520 1078 504 1086 q 553 1071 536 1071 q 595 1085 575 1071 q 640 1132 615 1100 l 679 1108 q 554 1018 622 1018 q 508 1027 528 1018 q 460 1053 488 1036 q 426 1073 440 1067 q 396 1079 411 1079 m 456 911 l 274 800 l 247 836 l 442 972 l 479 972 l 636 835 l 606 800 l 456 911 m 454 739 q 608 691 551 739 q 664 568 664 643 q 531 373 664 439 q 153 290 399 307 l 153 276 q 205 99 153 157 q 347 42 257 42 q 453 60 406 42 q 556 117 501 78 l 586 71 q 469 6 528 28 q 344 -15 411 -15 q 154 60 222 -15 q 86 275 86 136 q 126 492 86 385 q 249 669 167 599 q 454 739 332 739 m 157 343 q 488 413 378 358 q 597 565 597 467 q 561 651 597 618 q 454 685 525 685 q 301 635 364 685 q 202 508 238 586 q 157 343 167 431 z "},"ȅ":{"ha":711,"x_min":86,"x_max":664,"o":"m 664 568 q 531 373 664 439 q 153 290 399 307 l 153 276 q 205 99 153 157 q 347 42 257 42 q 453 60 406 42 q 556 117 501 78 l 586 71 q 469 6 528 28 q 344 -15 411 -15 q 154 60 222 -15 q 86 275 86 136 q 126 492 86 385 q 249 669 167 599 q 454 739 332 739 q 608 691 551 739 q 664 568 664 643 m 454 685 q 301 635 364 685 q 202 508 238 586 q 157 343 167 431 q 488 413 378 358 q 597 565 597 467 q 561 651 597 618 q 454 685 525 685 m 329 1117 l 407 917 l 361 896 l 265 1085 l 329 1117 m 497 1115 l 565 922 l 519 901 l 433 1085 l 497 1115 z "},"ë":{"ha":711,"x_min":86,"x_max":664,"o":"m 664 568 q 531 373 664 439 q 153 290 399 307 l 153 276 q 205 99 153 157 q 347 42 257 42 q 453 60 406 42 q 556 117 501 78 l 586 71 q 469 6 528 28 q 344 -15 411 -15 q 154 60 222 -15 q 86 275 86 136 q 126 492 86 385 q 249 669 167 599 q 454 739 332 739 q 608 691 551 739 q 664 568 664 643 m 454 685 q 301 635 364 685 q 202 508 238 586 q 157 343 167 431 q 488 413 378 358 q 597 565 597 467 q 561 651 597 618 q 454 685 525 685 m 336 925 q 306 936 318 925 q 294 965 294 947 q 309 1002 294 988 q 346 1017 324 1017 q 377 1006 365 1017 q 389 976 389 994 q 374 940 389 954 q 336 925 358 925 m 589 925 q 558 936 569 925 q 546 965 546 947 q 560 1002 546 988 q 597 1017 575 1017 q 628 1006 617 1017 q 640 976 640 994 q 626 940 640 954 q 589 925 611 925 z "},"ė":{"ha":711,"x_min":86,"x_max":664,"o":"m 664 568 q 531 373 664 439 q 153 290 399 307 l 153 276 q 205 99 153 157 q 347 42 257 42 q 453 60 406 42 q 556 117 501 78 l 586 71 q 469 6 528 28 q 344 -15 411 -15 q 154 60 222 -15 q 86 275 86 136 q 126 492 86 385 q 249 669 167 599 q 454 739 332 739 q 608 691 551 739 q 664 568 664 643 m 454 685 q 301 635 364 685 q 202 508 238 586 q 157 343 167 431 q 488 413 378 358 q 597 565 597 467 q 561 651 597 618 q 454 685 525 685 m 467 936 q 433 948 446 936 q 421 979 421 960 q 436 1018 421 1003 q 475 1033 451 1033 q 508 1022 496 1033 q 519 990 519 1010 q 504 951 519 967 q 467 936 489 936 z "},"ẹ":{"ha":711,"x_min":86,"x_max":664,"o":"m 664 568 q 531 373 664 439 q 153 290 399 307 l 153 276 q 205 99 153 157 q 347 42 257 42 q 453 60 406 42 q 556 117 501 78 l 586 71 q 469 6 528 28 q 344 -15 411 -15 q 154 60 222 -15 q 86 275 86 136 q 126 492 86 385 q 249 669 167 599 q 454 739 332 739 q 608 691 551 739 q 664 568 664 643 m 454 685 q 301 635 364 685 q 202 508 238 586 q 157 343 167 431 q 488 413 378 358 q 597 565 597 467 q 561 651 597 618 q 454 685 525 685 m 321 -125 q 354 -137 342 -125 q 367 -168 367 -149 q 351 -207 367 -192 q 313 -222 336 -222 q 280 -210 292 -222 q 268 -179 268 -199 q 283 -140 268 -156 q 321 -125 299 -125 z "},"è":{"ha":711,"x_min":86,"x_max":664,"o":"m 664 568 q 531 373 664 439 q 153 290 399 307 l 153 276 q 205 99 153 157 q 347 42 257 42 q 453 60 406 42 q 556 117 501 78 l 586 71 q 469 6 528 28 q 344 -15 411 -15 q 154 60 222 -15 q 86 275 86 136 q 126 492 86 385 q 249 669 167 599 q 454 739 332 739 q 608 691 551 739 q 664 568 664 643 m 454 685 q 301 635 364 685 q 202 508 238 586 q 157 343 167 431 q 488 413 378 358 q 597 565 597 467 q 561 651 597 618 q 454 685 525 685 m 385 1078 l 619 938 l 596 900 l 349 1017 l 385 1078 z "},"ẻ":{"ha":711,"x_min":86,"x_max":664,"o":"m 664 568 q 531 373 664 439 q 153 290 399 307 l 153 276 q 205 99 153 157 q 347 42 257 42 q 453 60 406 42 q 556 117 501 78 l 586 71 q 469 6 528 28 q 344 -15 411 -15 q 154 60 222 -15 q 86 275 86 136 q 126 492 86 385 q 249 669 167 599 q 454 739 332 739 q 608 691 551 739 q 664 568 664 643 m 454 685 q 301 635 364 685 q 202 508 238 586 q 157 343 167 431 q 488 413 378 358 q 597 565 597 467 q 561 651 597 618 q 454 685 525 685 m 436 969 q 544 1044 544 975 q 488 1094 544 1094 q 444 1089 463 1094 q 404 1072 426 1083 l 386 1117 q 438 1138 413 1131 q 494 1144 463 1144 q 576 1117 546 1144 q 606 1044 606 1090 q 574 970 606 999 q 489 935 543 942 l 479 858 l 424 858 l 436 969 z "},"ȇ":{"ha":711,"x_min":86,"x_max":664,"o":"m 664 568 q 531 373 664 439 q 153 290 399 307 l 153 276 q 205 99 153 157 q 347 42 257 42 q 453 60 406 42 q 556 117 501 78 l 586 71 q 469 6 528 28 q 344 -15 411 -15 q 154 60 222 -15 q 86 275 86 136 q 126 492 86 385 q 249 669 167 599 q 454 739 332 739 q 608 691 551 739 q 664 568 664 643 m 454 685 q 301 635 364 685 q 202 508 238 586 q 157 343 167 431 q 488 413 378 358 q 597 565 597 467 q 561 651 597 618 q 454 685 525 685 m 281 882 q 350 984 299 946 q 469 1022 401 1022 q 579 983 538 1022 q 622 878 621 943 l 576 872 q 467 968 561 968 q 380 942 417 968 q 324 868 343 917 l 281 882 z "},"ē":{"ha":711,"x_min":86,"x_max":664,"o":"m 664 568 q 531 373 664 439 q 153 290 399 307 l 153 276 q 205 99 153 157 q 347 42 257 42 q 453 60 406 42 q 556 117 501 78 l 586 71 q 469 6 528 28 q 344 -15 411 -15 q 154 60 222 -15 q 86 275 86 136 q 126 492 86 385 q 249 669 167 599 q 454 739 332 739 q 608 691 551 739 q 664 568 664 643 m 454 685 q 301 635 364 685 q 202 508 238 586 q 157 343 167 431 q 488 413 378 358 q 597 565 597 467 q 561 651 597 618 q 454 685 525 685 m 622 943 l 304 943 l 314 997 l 631 997 l 622 943 z "},"ę":{"ha":711,"x_min":86,"x_max":664,"o":"m 664 568 q 531 373 664 439 q 153 290 399 307 l 153 276 q 205 99 153 157 q 347 42 257 42 q 453 60 406 42 q 556 117 501 78 l 586 71 q 454 1 513 18 q 335 -73 371 -37 q 299 -158 299 -108 q 322 -212 299 -193 q 392 -232 344 -232 q 468 -224 422 -232 l 461 -281 q 383 -289 419 -289 q 273 -254 311 -289 q 235 -165 235 -219 q 347 -15 235 -74 l 344 -15 q 154 60 222 -15 q 86 275 86 136 q 126 492 86 385 q 249 669 167 599 q 454 739 332 739 q 608 691 551 739 q 664 568 664 643 m 454 685 q 301 635 364 685 q 202 508 238 586 q 157 343 167 431 q 488 413 378 358 q 597 565 597 467 q 561 651 597 618 q 454 685 525 685 z "},"ɛ":{"ha":649,"x_min":69,"x_max":622,"o":"m 308 -15 q 135 38 200 -15 q 69 183 69 92 q 124 319 69 263 q 278 385 178 376 q 183 435 217 401 q 150 532 150 469 q 178 629 150 582 q 265 708 206 676 q 411 739 324 739 q 622 671 535 739 l 583 632 q 506 672 547 658 q 411 686 465 686 q 262 640 310 686 q 214 532 214 593 q 255 440 214 474 q 375 407 296 407 l 458 407 l 442 353 l 365 353 q 188 304 239 353 q 136 182 136 256 q 183 78 136 115 q 311 42 229 42 q 427 59 379 42 q 532 117 475 76 l 563 72 q 308 -15 447 -15 z "},"ʚ":{"ha":768,"x_min":69,"x_max":681,"o":"m 308 -15 q 135 39 201 -15 q 69 183 69 93 q 124 319 69 263 q 279 385 178 376 q 186 435 219 401 q 153 532 153 469 q 181 628 153 581 q 266 708 208 676 q 410 739 324 739 q 610 661 539 739 q 681 443 681 583 q 637 210 681 315 q 509 45 593 106 q 308 -15 425 -15 m 313 42 q 479 97 411 42 q 581 242 547 151 q 615 443 615 333 q 562 624 615 564 q 408 685 508 685 q 263 638 310 685 q 215 532 215 592 q 256 440 215 474 q 375 407 296 407 l 432 407 l 417 353 l 365 353 q 188 304 240 353 q 136 182 136 256 q 183 78 136 115 q 313 42 229 42 z "},"ɜ":{"ha":654,"x_min":6,"x_max":558,"o":"m 347 739 q 500 692 442 739 q 558 565 558 644 q 510 444 558 490 q 379 385 463 397 q 502 334 457 376 q 547 217 547 292 q 517 105 547 158 q 421 18 486 51 q 256 -15 356 -15 q 6 79 106 -15 l 44 119 q 256 42 129 42 q 427 93 374 42 q 481 218 481 144 q 428 321 481 288 q 281 354 376 354 l 196 354 l 210 407 l 281 407 q 437 449 382 407 q 492 563 492 492 q 453 653 492 619 q 343 686 415 686 q 236 671 282 686 q 129 622 190 656 l 100 664 q 219 720 160 701 q 347 739 278 739 z "},"ɞ":{"ha":760,"x_min":86,"x_max":665,"o":"m 360 -15 q 156 61 226 -15 q 86 275 86 138 q 130 508 86 401 q 257 676 174 614 q 454 739 340 739 q 608 691 550 739 q 665 563 665 643 q 618 445 665 490 q 485 385 571 400 q 608 334 563 376 q 654 217 654 292 q 624 105 654 158 q 526 18 593 51 q 360 -15 460 -15 m 361 42 q 534 93 481 42 q 588 218 588 144 q 535 321 588 288 q 386 354 483 354 l 339 354 l 351 407 l 386 407 q 543 449 488 407 q 599 563 599 492 q 561 652 599 619 q 453 685 524 685 q 287 627 354 685 q 186 476 219 569 q 153 274 153 382 q 361 42 153 42 z "},"ɝ":{"ha":897,"x_min":6,"x_max":956,"o":"m 956 497 q 815 453 892 453 q 713 488 750 453 q 675 586 675 522 q 678 622 675 597 l 685 668 l 554 607 q 558 565 558 589 q 510 444 558 490 q 379 385 463 397 q 502 334 457 376 q 547 217 547 292 q 517 105 547 158 q 421 18 486 51 q 256 -15 356 -15 q 6 79 106 -15 l 44 119 q 256 42 129 42 q 427 93 374 42 q 481 218 481 144 q 428 321 481 288 q 281 354 376 354 l 196 354 l 210 407 l 281 407 q 437 449 382 407 q 492 563 492 492 q 453 653 492 619 q 343 686 415 686 q 236 671 282 686 q 129 622 190 656 l 100 664 q 219 720 160 701 q 347 739 278 739 q 460 716 411 739 q 535 653 510 693 l 693 725 l 756 725 l 740 625 q 738 593 738 600 q 818 508 738 508 q 878 517 853 508 q 931 542 903 525 l 956 497 z "},"ɘ":{"ha":714,"x_min":44,"x_max":626,"o":"m 349 739 q 557 653 488 739 q 625 433 626 567 q 583 210 626 313 q 459 46 540 107 q 269 -15 378 -15 q 145 7 199 -15 q 44 74 92 29 l 85 113 q 168 59 125 76 q 269 42 211 42 q 442 110 374 42 q 540 289 511 178 q 206 350 314 297 q 99 518 99 403 q 131 631 99 581 q 219 710 163 682 q 349 739 276 739 m 165 519 q 205 422 165 458 q 328 366 244 385 q 551 342 413 347 q 558 436 558 393 q 507 615 558 546 q 349 685 456 685 q 214 639 263 685 q 165 519 165 593 z "},"ʃ":{"ha":368,"x_min":-164,"x_max":536,"o":"m 403 1029 q 478 1016 447 1029 q 536 982 508 1003 l 503 942 q 459 967 482 958 q 404 975 436 975 q 326 946 358 975 q 285 853 293 917 l 267 725 l 164 0 l 165 0 l 150 -107 q 88 -237 138 -193 q -33 -282 39 -282 q -164 -235 -104 -282 l -132 -194 q -87 -219 -110 -211 q -35 -226 -65 -226 q 44 -198 13 -226 q 86 -104 76 -169 l 101 0 l 100 0 l 203 725 l 222 854 q 283 985 236 942 q 403 1029 331 1029 z "},"ʆ":{"ha":389,"x_min":-189,"x_max":557,"o":"m 424 1029 q 499 1016 468 1029 q 557 982 529 1003 l 524 942 q 480 967 503 958 q 425 975 457 975 q 347 946 379 975 q 306 853 314 917 l 288 725 l 289 725 l 183 -29 q 318 -79 257 -49 l 294 -119 q 175 -78 228 -90 q 101 -227 156 -174 q -46 -281 46 -281 q -151 -247 -112 -281 q -189 -156 -189 -212 q -135 -47 -189 -86 q 1 -7 -81 -7 q 119 -17 71 -7 l 225 725 l 224 725 l 243 854 q 304 985 257 942 q 424 1029 351 1029 m -43 -231 q 59 -190 24 -231 q 111 -65 94 -150 q 1 -56 68 -56 q -97 -81 -61 -56 q -132 -154 -132 -107 q -109 -210 -132 -190 q -43 -231 -86 -231 z "},"ƪ":{"ha":383,"x_min":-1,"x_max":379,"o":"m 379 -237 q 239 -282 315 -282 q 135 -245 174 -282 q 97 -140 97 -208 q 100 -103 97 -131 l 115 0 l 217 725 q 131 706 175 706 q 35 741 72 706 q -1 838 -1 776 q 22 935 -1 892 q 86 1004 46 979 q 174 1029 126 1029 q 268 994 233 1029 q 303 899 303 960 q 300 864 303 889 l 179 0 l 164 -108 q 163 -139 163 -119 q 242 -226 163 -226 q 301 -218 276 -226 q 354 -194 326 -210 l 379 -237 m 139 760 q 224 778 185 760 l 238 872 q 239 899 239 882 q 172 975 239 975 q 93 935 122 975 q 64 838 64 896 q 139 760 64 760 z "},"ʅ":{"ha":543,"x_min":53,"x_max":490,"o":"m 490 29 q 350 -15 426 -15 q 247 22 285 -15 q 208 126 208 58 q 211 164 208 136 l 226 267 l 253 458 l 268 567 q 269 597 269 578 q 190 685 269 685 q 131 676 156 685 q 78 653 106 668 l 53 696 q 193 740 117 740 q 297 703 258 740 q 335 599 335 667 q 332 561 335 589 l 317 458 l 290 267 l 275 158 q 274 128 274 147 q 353 40 274 40 q 413 49 388 40 q 465 72 438 57 l 490 29 z "},"ɇ":{"ha":711,"x_min":86,"x_max":664,"o":"m 664 568 q 590 411 664 471 q 374 319 515 351 l 265 57 q 347 42 297 42 q 453 60 406 42 q 556 117 501 78 l 586 71 q 469 6 528 28 q 344 -15 411 -15 q 242 1 288 -15 l 201 -97 l 165 -87 l 208 17 q 117 115 149 50 q 86 275 86 181 q 126 492 86 385 q 249 669 167 599 q 454 739 332 739 q 504 735 482 739 l 540 821 l 576 810 l 542 726 q 632 666 600 708 q 664 568 664 624 m 454 685 q 301 635 364 685 q 202 508 238 586 q 157 343 167 431 q 354 369 274 351 l 483 683 q 454 685 474 685 m 597 565 q 578 632 597 603 q 521 675 560 661 l 399 379 q 597 565 597 435 m 329 311 q 153 290 251 297 l 153 276 q 232 75 153 131 l 329 311 z "},"ẽ":{"ha":711,"x_min":86,"x_max":675,"o":"m 664 568 q 531 373 664 439 q 153 290 399 307 l 153 276 q 205 99 153 157 q 347 42 257 42 q 453 60 406 42 q 556 117 501 78 l 586 71 q 469 6 528 28 q 344 -15 411 -15 q 154 60 222 -15 q 86 275 86 136 q 126 492 86 385 q 249 669 167 599 q 454 739 332 739 q 608 691 551 739 q 664 568 664 643 m 454 685 q 301 635 364 685 q 202 508 238 586 q 157 343 167 431 q 488 413 378 358 q 597 565 597 467 q 561 651 597 618 q 454 685 525 685 m 550 931 q 503 940 524 931 q 456 965 483 949 q 422 985 436 979 q 392 992 407 992 q 348 980 365 992 q 304 936 331 968 l 267 963 q 392 1046 328 1046 q 434 1038 415 1046 q 479 1013 453 1029 q 516 991 500 999 q 549 983 532 983 q 591 998 571 983 q 636 1044 611 1013 l 675 1021 q 550 931 618 931 z "}}}
